<?xml version="1.0" encoding="utf-8" standalone="no"?>
<!DOCTYPE svg PUBLIC "-//W3C//DTD SVG 1.1//EN"
  "http://www.w3.org/Graphics/SVG/1.1/DTD/svg11.dtd">
<!-- Created with matplotlib (https://matplotlib.org/) -->
<svg height="360pt" version="1.1" viewBox="0 0 576 360" width="576pt" xmlns="http://www.w3.org/2000/svg" xmlns:xlink="http://www.w3.org/1999/xlink">
 <metadata>
  <rdf:RDF xmlns:cc="http://creativecommons.org/ns#" xmlns:dc="http://purl.org/dc/elements/1.1/" xmlns:rdf="http://www.w3.org/1999/02/22-rdf-syntax-ns#">
   <cc:Work>
    <dc:type rdf:resource="http://purl.org/dc/dcmitype/StillImage"/>
    <dc:date>2021-03-03T16:23:05.252924</dc:date>
    <dc:format>image/svg+xml</dc:format>
    <dc:creator>
     <cc:Agent>
      <dc:title>Matplotlib v3.3.2, https://matplotlib.org/</dc:title>
     </cc:Agent>
    </dc:creator>
   </cc:Work>
  </rdf:RDF>
 </metadata>
 <defs>
  <style type="text/css">*{stroke-linecap:butt;stroke-linejoin:round;}</style>
 </defs>
 <g id="figure_1">
  <g id="patch_1">
   <path d="M 0 360 
L 576 360 
L 576 0 
L 0 0 
z
" style="fill:none;"/>
  </g>
  <g id="axes_1">
   <g id="matplotlib.axis_1">
    <g id="ytick_1">
     <g id="line2d_1">
      <defs>
       <path d="M 0 0 
L 3.5 0 
" id="md228ce18bb" style="stroke:#000000;stroke-width:0.8;"/>
      </defs>
      <g>
       <use style="stroke:#000000;stroke-width:0.8;" x="507.325" xlink:href="#md228ce18bb" y="293.727273"/>
      </g>
     </g>
     <g id="text_1">
      <!-- 0.0 -->
      <g transform="translate(514.325 298.666257)scale(0.13 -0.13)">
       <defs>
        <path d="M 31.78125 66.40625 
Q 24.171875 66.40625 20.328125 58.90625 
Q 16.5 51.421875 16.5 36.375 
Q 16.5 21.390625 20.328125 13.890625 
Q 24.171875 6.390625 31.78125 6.390625 
Q 39.453125 6.390625 43.28125 13.890625 
Q 47.125 21.390625 47.125 36.375 
Q 47.125 51.421875 43.28125 58.90625 
Q 39.453125 66.40625 31.78125 66.40625 
z
M 31.78125 74.21875 
Q 44.046875 74.21875 50.515625 64.515625 
Q 56.984375 54.828125 56.984375 36.375 
Q 56.984375 17.96875 50.515625 8.265625 
Q 44.046875 -1.421875 31.78125 -1.421875 
Q 19.53125 -1.421875 13.0625 8.265625 
Q 6.59375 17.96875 6.59375 36.375 
Q 6.59375 54.828125 13.0625 64.515625 
Q 19.53125 74.21875 31.78125 74.21875 
z
" id="DejaVuSans-48"/>
        <path d="M 10.6875 12.40625 
L 21 12.40625 
L 21 0 
L 10.6875 0 
z
" id="DejaVuSans-46"/>
       </defs>
       <use xlink:href="#DejaVuSans-48"/>
       <use x="63.623047" xlink:href="#DejaVuSans-46"/>
       <use x="95.410156" xlink:href="#DejaVuSans-48"/>
      </g>
     </g>
    </g>
    <g id="ytick_2">
     <g id="line2d_2">
      <g>
       <use style="stroke:#000000;stroke-width:0.8;" x="507.325" xlink:href="#md228ce18bb" y="226.363636"/>
      </g>
     </g>
     <g id="text_2">
      <!-- 2.5 -->
      <g transform="translate(514.325 231.302621)scale(0.13 -0.13)">
       <defs>
        <path d="M 19.1875 8.296875 
L 53.609375 8.296875 
L 53.609375 0 
L 7.328125 0 
L 7.328125 8.296875 
Q 12.9375 14.109375 22.625 23.890625 
Q 32.328125 33.6875 34.8125 36.53125 
Q 39.546875 41.84375 41.421875 45.53125 
Q 43.3125 49.21875 43.3125 52.78125 
Q 43.3125 58.59375 39.234375 62.25 
Q 35.15625 65.921875 28.609375 65.921875 
Q 23.96875 65.921875 18.8125 64.3125 
Q 13.671875 62.703125 7.8125 59.421875 
L 7.8125 69.390625 
Q 13.765625 71.78125 18.9375 73 
Q 24.125 74.21875 28.421875 74.21875 
Q 39.75 74.21875 46.484375 68.546875 
Q 53.21875 62.890625 53.21875 53.421875 
Q 53.21875 48.921875 51.53125 44.890625 
Q 49.859375 40.875 45.40625 35.40625 
Q 44.1875 33.984375 37.640625 27.21875 
Q 31.109375 20.453125 19.1875 8.296875 
z
" id="DejaVuSans-50"/>
        <path d="M 10.796875 72.90625 
L 49.515625 72.90625 
L 49.515625 64.59375 
L 19.828125 64.59375 
L 19.828125 46.734375 
Q 21.96875 47.46875 24.109375 47.828125 
Q 26.265625 48.1875 28.421875 48.1875 
Q 40.625 48.1875 47.75 41.5 
Q 54.890625 34.8125 54.890625 23.390625 
Q 54.890625 11.625 47.5625 5.09375 
Q 40.234375 -1.421875 26.90625 -1.421875 
Q 22.3125 -1.421875 17.546875 -0.640625 
Q 12.796875 0.140625 7.71875 1.703125 
L 7.71875 11.625 
Q 12.109375 9.234375 16.796875 8.0625 
Q 21.484375 6.890625 26.703125 6.890625 
Q 35.15625 6.890625 40.078125 11.328125 
Q 45.015625 15.765625 45.015625 23.390625 
Q 45.015625 31 40.078125 35.4375 
Q 35.15625 39.890625 26.703125 39.890625 
Q 22.75 39.890625 18.8125 39.015625 
Q 14.890625 38.140625 10.796875 36.28125 
z
" id="DejaVuSans-53"/>
       </defs>
       <use xlink:href="#DejaVuSans-50"/>
       <use x="63.623047" xlink:href="#DejaVuSans-46"/>
       <use x="95.410156" xlink:href="#DejaVuSans-53"/>
      </g>
     </g>
    </g>
    <g id="ytick_3">
     <g id="line2d_3">
      <g>
       <use style="stroke:#000000;stroke-width:0.8;" x="507.325" xlink:href="#md228ce18bb" y="159"/>
      </g>
     </g>
     <g id="text_3">
      <!-- 5.0 -->
      <g transform="translate(514.325 163.938984)scale(0.13 -0.13)">
       <use xlink:href="#DejaVuSans-53"/>
       <use x="63.623047" xlink:href="#DejaVuSans-46"/>
       <use x="95.410156" xlink:href="#DejaVuSans-48"/>
      </g>
     </g>
    </g>
    <g id="ytick_4">
     <g id="line2d_4">
      <g>
       <use style="stroke:#000000;stroke-width:0.8;" x="507.325" xlink:href="#md228ce18bb" y="91.636364"/>
      </g>
     </g>
     <g id="text_4">
      <!-- 7.5 -->
      <g transform="translate(514.325 96.575348)scale(0.13 -0.13)">
       <defs>
        <path d="M 8.203125 72.90625 
L 55.078125 72.90625 
L 55.078125 68.703125 
L 28.609375 0 
L 18.3125 0 
L 43.21875 64.59375 
L 8.203125 64.59375 
z
" id="DejaVuSans-55"/>
       </defs>
       <use xlink:href="#DejaVuSans-55"/>
       <use x="63.623047" xlink:href="#DejaVuSans-46"/>
       <use x="95.410156" xlink:href="#DejaVuSans-53"/>
      </g>
     </g>
    </g>
    <g id="ytick_5">
     <g id="line2d_5">
      <g>
       <use style="stroke:#000000;stroke-width:0.8;" x="507.325" xlink:href="#md228ce18bb" y="24.272727"/>
      </g>
     </g>
     <g id="text_5">
      <!-- 10.0 -->
      <g transform="translate(514.325 29.211712)scale(0.13 -0.13)">
       <defs>
        <path d="M 12.40625 8.296875 
L 28.515625 8.296875 
L 28.515625 63.921875 
L 10.984375 60.40625 
L 10.984375 69.390625 
L 28.421875 72.90625 
L 38.28125 72.90625 
L 38.28125 8.296875 
L 54.390625 8.296875 
L 54.390625 0 
L 12.40625 0 
z
" id="DejaVuSans-49"/>
       </defs>
       <use xlink:href="#DejaVuSans-49"/>
       <use x="63.623047" xlink:href="#DejaVuSans-48"/>
       <use x="127.246094" xlink:href="#DejaVuSans-46"/>
       <use x="159.033203" xlink:href="#DejaVuSans-48"/>
      </g>
     </g>
    </g>
    <g id="text_6">
     <!-- Pressure ($Pa$) -->
     <g transform="translate(558.667969 208.875)rotate(-90)scale(0.15 -0.15)">
      <defs>
       <path d="M 19.671875 64.796875 
L 19.671875 37.40625 
L 32.078125 37.40625 
Q 38.96875 37.40625 42.71875 40.96875 
Q 46.484375 44.53125 46.484375 51.125 
Q 46.484375 57.671875 42.71875 61.234375 
Q 38.96875 64.796875 32.078125 64.796875 
z
M 9.8125 72.90625 
L 32.078125 72.90625 
Q 44.34375 72.90625 50.609375 67.359375 
Q 56.890625 61.8125 56.890625 51.125 
Q 56.890625 40.328125 50.609375 34.8125 
Q 44.34375 29.296875 32.078125 29.296875 
L 19.671875 29.296875 
L 19.671875 0 
L 9.8125 0 
z
" id="DejaVuSans-80"/>
       <path d="M 41.109375 46.296875 
Q 39.59375 47.171875 37.8125 47.578125 
Q 36.03125 48 33.890625 48 
Q 26.265625 48 22.1875 43.046875 
Q 18.109375 38.09375 18.109375 28.8125 
L 18.109375 0 
L 9.078125 0 
L 9.078125 54.6875 
L 18.109375 54.6875 
L 18.109375 46.1875 
Q 20.953125 51.171875 25.484375 53.578125 
Q 30.03125 56 36.53125 56 
Q 37.453125 56 38.578125 55.875 
Q 39.703125 55.765625 41.0625 55.515625 
z
" id="DejaVuSans-114"/>
       <path d="M 56.203125 29.59375 
L 56.203125 25.203125 
L 14.890625 25.203125 
Q 15.484375 15.921875 20.484375 11.0625 
Q 25.484375 6.203125 34.421875 6.203125 
Q 39.59375 6.203125 44.453125 7.46875 
Q 49.3125 8.734375 54.109375 11.28125 
L 54.109375 2.78125 
Q 49.265625 0.734375 44.1875 -0.34375 
Q 39.109375 -1.421875 33.890625 -1.421875 
Q 20.796875 -1.421875 13.15625 6.1875 
Q 5.515625 13.8125 5.515625 26.8125 
Q 5.515625 40.234375 12.765625 48.109375 
Q 20.015625 56 32.328125 56 
Q 43.359375 56 49.78125 48.890625 
Q 56.203125 41.796875 56.203125 29.59375 
z
M 47.21875 32.234375 
Q 47.125 39.59375 43.09375 43.984375 
Q 39.0625 48.390625 32.421875 48.390625 
Q 24.90625 48.390625 20.390625 44.140625 
Q 15.875 39.890625 15.1875 32.171875 
z
" id="DejaVuSans-101"/>
       <path d="M 44.28125 53.078125 
L 44.28125 44.578125 
Q 40.484375 46.53125 36.375 47.5 
Q 32.28125 48.484375 27.875 48.484375 
Q 21.1875 48.484375 17.84375 46.4375 
Q 14.5 44.390625 14.5 40.28125 
Q 14.5 37.15625 16.890625 35.375 
Q 19.28125 33.59375 26.515625 31.984375 
L 29.59375 31.296875 
Q 39.15625 29.25 43.1875 25.515625 
Q 47.21875 21.78125 47.21875 15.09375 
Q 47.21875 7.46875 41.1875 3.015625 
Q 35.15625 -1.421875 24.609375 -1.421875 
Q 20.21875 -1.421875 15.453125 -0.5625 
Q 10.6875 0.296875 5.421875 2 
L 5.421875 11.28125 
Q 10.40625 8.6875 15.234375 7.390625 
Q 20.0625 6.109375 24.8125 6.109375 
Q 31.15625 6.109375 34.5625 8.28125 
Q 37.984375 10.453125 37.984375 14.40625 
Q 37.984375 18.0625 35.515625 20.015625 
Q 33.0625 21.96875 24.703125 23.78125 
L 21.578125 24.515625 
Q 13.234375 26.265625 9.515625 29.90625 
Q 5.8125 33.546875 5.8125 39.890625 
Q 5.8125 47.609375 11.28125 51.796875 
Q 16.75 56 26.8125 56 
Q 31.78125 56 36.171875 55.265625 
Q 40.578125 54.546875 44.28125 53.078125 
z
" id="DejaVuSans-115"/>
       <path d="M 8.5 21.578125 
L 8.5 54.6875 
L 17.484375 54.6875 
L 17.484375 21.921875 
Q 17.484375 14.15625 20.5 10.265625 
Q 23.53125 6.390625 29.59375 6.390625 
Q 36.859375 6.390625 41.078125 11.03125 
Q 45.3125 15.671875 45.3125 23.6875 
L 45.3125 54.6875 
L 54.296875 54.6875 
L 54.296875 0 
L 45.3125 0 
L 45.3125 8.40625 
Q 42.046875 3.421875 37.71875 1 
Q 33.40625 -1.421875 27.6875 -1.421875 
Q 18.265625 -1.421875 13.375 4.4375 
Q 8.5 10.296875 8.5 21.578125 
z
M 31.109375 56 
z
" id="DejaVuSans-117"/>
       <path id="DejaVuSans-32"/>
       <path d="M 31 75.875 
Q 24.46875 64.65625 21.28125 53.65625 
Q 18.109375 42.671875 18.109375 31.390625 
Q 18.109375 20.125 21.3125 9.0625 
Q 24.515625 -2 31 -13.1875 
L 23.1875 -13.1875 
Q 15.875 -1.703125 12.234375 9.375 
Q 8.59375 20.453125 8.59375 31.390625 
Q 8.59375 42.28125 12.203125 53.3125 
Q 15.828125 64.359375 23.1875 75.875 
z
" id="DejaVuSans-40"/>
       <path d="M 16.890625 72.90625 
L 39.703125 72.90625 
Q 49.65625 72.90625 54.875 68.265625 
Q 60.109375 63.625 60.109375 54.6875 
Q 60.109375 42.671875 52.390625 35.984375 
Q 44.671875 29.296875 30.71875 29.296875 
L 18.3125 29.296875 
L 12.59375 0 
L 2.6875 0 
z
M 25.203125 64.796875 
L 19.921875 37.40625 
L 32.328125 37.40625 
Q 40.71875 37.40625 45.203125 41.703125 
Q 49.703125 46 49.703125 54 
Q 49.703125 59.125 46.65625 61.953125 
Q 43.609375 64.796875 38.09375 64.796875 
z
" id="DejaVuSans-Oblique-80"/>
       <path d="M 53.71875 31.203125 
L 47.609375 0 
L 38.625 0 
L 40.28125 8.296875 
Q 36.328125 3.421875 31.265625 1 
Q 26.21875 -1.421875 20.015625 -1.421875 
Q 13.03125 -1.421875 8.5625 2.84375 
Q 4.109375 7.125 4.109375 13.8125 
Q 4.109375 23.390625 11.75 28.953125 
Q 19.390625 34.515625 32.8125 34.515625 
L 45.3125 34.515625 
L 45.796875 36.921875 
Q 45.90625 37.3125 45.953125 37.765625 
Q 46 38.234375 46 39.203125 
Q 46 43.5625 42.453125 45.96875 
Q 38.921875 48.390625 32.515625 48.390625 
Q 28.125 48.390625 23.5 47.265625 
Q 18.890625 46.140625 14.015625 43.890625 
L 15.578125 52.203125 
Q 20.65625 54.109375 25.515625 55.046875 
Q 30.375 56 34.90625 56 
Q 44.578125 56 49.625 51.796875 
Q 54.6875 47.609375 54.6875 39.59375 
Q 54.6875 37.984375 54.4375 35.8125 
Q 54.203125 33.640625 53.71875 31.203125 
z
M 44 27.484375 
L 35.015625 27.484375 
Q 23.96875 27.484375 18.671875 24.53125 
Q 13.375 21.578125 13.375 15.375 
Q 13.375 11.078125 16.078125 8.640625 
Q 18.796875 6.203125 23.578125 6.203125 
Q 30.90625 6.203125 36.375 11.453125 
Q 41.84375 16.703125 43.609375 25.484375 
z
" id="DejaVuSans-Oblique-97"/>
       <path d="M 8.015625 75.875 
L 15.828125 75.875 
Q 23.140625 64.359375 26.78125 53.3125 
Q 30.421875 42.28125 30.421875 31.390625 
Q 30.421875 20.453125 26.78125 9.375 
Q 23.140625 -1.703125 15.828125 -13.1875 
L 8.015625 -13.1875 
Q 14.5 -2 17.703125 9.0625 
Q 20.90625 20.125 20.90625 31.390625 
Q 20.90625 42.671875 17.703125 53.65625 
Q 14.5 64.65625 8.015625 75.875 
z
" id="DejaVuSans-41"/>
      </defs>
      <use transform="translate(0 0.125)" xlink:href="#DejaVuSans-80"/>
      <use transform="translate(60.302734 0.125)" xlink:href="#DejaVuSans-114"/>
      <use transform="translate(101.416016 0.125)" xlink:href="#DejaVuSans-101"/>
      <use transform="translate(162.939453 0.125)" xlink:href="#DejaVuSans-115"/>
      <use transform="translate(215.039062 0.125)" xlink:href="#DejaVuSans-115"/>
      <use transform="translate(267.138672 0.125)" xlink:href="#DejaVuSans-117"/>
      <use transform="translate(330.517578 0.125)" xlink:href="#DejaVuSans-114"/>
      <use transform="translate(371.630859 0.125)" xlink:href="#DejaVuSans-101"/>
      <use transform="translate(433.154297 0.125)" xlink:href="#DejaVuSans-32"/>
      <use transform="translate(464.941406 0.125)" xlink:href="#DejaVuSans-40"/>
      <use transform="translate(503.955078 0.125)" xlink:href="#DejaVuSans-Oblique-80"/>
      <use transform="translate(564.257812 0.125)" xlink:href="#DejaVuSans-Oblique-97"/>
      <use transform="translate(625.537109 0.125)" xlink:href="#DejaVuSans-41"/>
     </g>
    </g>
   </g>
   <g id="line2d_6">
    <path clip-path="url(#pc0ddc4a667)" d="M 87.148377 293.634375 
L 104.799632 293.632793 
L 104.943528 271.402125 
L 105.950801 61.627935 
L 106.382489 42.996869 
L 106.622316 38.331258 
L 106.958074 35.396556 
L 107.245866 34.141031 
L 107.341797 33.810922 
L 107.581623 32.660279 
L 107.677554 32.85072 
L 107.725519 32.743975 
L 108.013312 31.829126 
L 108.109242 31.802642 
L 108.205173 31.526958 
L 108.349069 31.941745 
L 108.397035 31.917634 
L 108.445 31.680964 
L 108.492965 32.002689 
L 108.780758 31.509997 
L 108.828723 31.525137 
L 108.972619 32.282915 
L 109.020584 32.227789 
L 109.212446 31.125952 
L 109.308377 31.319122 
L 109.356342 31.244238 
L 109.6921 30.886337 
L 109.740065 30.904485 
L 109.883961 30.557827 
L 109.931926 30.659528 
L 110.027857 30.836032 
L 110.075823 30.69769 
L 110.123788 30.786675 
L 110.171753 30.652819 
L 110.315649 30.231199 
L 110.363615 30.362593 
L 110.459545 31.088466 
L 110.507511 30.927174 
L 110.603442 31.00354 
L 110.651407 30.849969 
L 110.699372 31.032487 
L 110.747338 31.091037 
L 110.795303 31.036888 
L 110.843268 30.987661 
L 110.891234 31.050286 
L 111.083095 31.998411 
L 111.131061 31.96915 
L 111.274957 32.234924 
L 111.370887 32.18682 
L 111.418853 32.086743 
L 111.65868 32.969437 
L 111.706645 32.744524 
L 111.898506 32.029887 
L 112.042403 32.510838 
L 112.282229 32.019752 
L 112.37816 31.764956 
L 112.570022 32.289618 
L 112.617987 32.233883 
L 112.857814 31.385795 
L 112.905779 31.412225 
L 113.049675 31.718884 
L 113.337468 31.326735 
L 113.577294 32.371763 
L 113.62526 32.30856 
L 113.769156 32.000081 
L 113.961017 31.758279 
L 114.008983 31.750847 
L 114.152879 31.25228 
L 114.200844 31.398224 
L 114.24881 31.316149 
L 114.392706 30.915924 
L 114.536602 31.184942 
L 114.872359 30.607313 
L 115.064221 30.946241 
L 115.208117 31.795181 
L 115.399978 31.396115 
L 115.447944 31.314231 
L 115.495909 31.454544 
L 115.543874 31.421036 
L 115.783701 30.875724 
L 115.831667 30.948524 
L 115.927597 31.172487 
L 115.975563 31.110933 
L 116.023528 31.162351 
L 116.071494 31.101719 
L 116.119459 31.046599 
L 116.167424 31.103865 
L 116.455216 31.442017 
L 116.695043 30.733044 
L 117.030801 32.294448 
L 117.270628 32.283233 
L 117.318593 32.013327 
L 117.414524 32.042728 
L 117.654351 31.659464 
L 117.798247 31.556332 
L 117.846212 31.29882 
L 117.942143 31.34485 
L 118.134004 31.628276 
L 118.325866 31.545958 
L 118.469762 31.479928 
L 118.517727 31.497801 
L 118.613658 31.074913 
L 118.661623 31.290669 
L 118.709589 31.379435 
L 118.805519 31.938593 
L 118.853485 31.700017 
L 119.093312 32.058184 
L 119.141277 32.023488 
L 119.237208 31.558173 
L 119.285173 31.568932 
L 119.525 31.727064 
L 119.668896 31.625756 
L 119.860758 31.623216 
L 120.052619 31.132158 
L 120.100584 31.289022 
L 120.244481 31.660485 
L 120.292446 31.608256 
L 120.388377 31.825096 
L 120.532273 31.288541 
L 120.580238 31.323813 
L 120.628203 31.678006 
L 120.676169 31.570496 
L 120.86803 30.774627 
L 121.059892 31.297375 
L 121.107857 31.117092 
L 121.155823 31.16795 
L 121.299719 31.588157 
L 121.49158 31.161094 
L 121.539545 31.315327 
L 121.587511 31.240788 
L 121.731407 30.766127 
L 121.779372 30.795203 
L 121.875303 30.845665 
L 121.923268 30.706447 
L 121.971234 30.902012 
L 122.019199 30.865047 
L 122.067165 31.046194 
L 122.11513 30.888746 
L 122.306991 30.861674 
L 122.450887 30.966702 
L 122.546818 31.006923 
L 122.594784 30.691981 
L 122.83461 31.260432 
L 122.882576 31.190883 
L 123.026472 30.547602 
L 123.074437 30.650232 
L 123.266299 30.699653 
L 123.314264 30.734772 
L 123.45816 31.326154 
L 123.554091 31.289349 
L 123.602056 31.109795 
L 123.650022 31.161317 
L 123.793918 31.592935 
L 123.841883 31.493159 
L 124.033745 30.980765 
L 124.129675 31.101518 
L 124.225606 31.455111 
L 124.273571 31.367864 
L 124.417468 30.96454 
L 124.609329 31.37828 
L 124.70526 30.912686 
L 124.80119 30.937878 
L 124.849156 30.897653 
L 125.088983 32.054358 
L 125.136948 32.127386 
L 125.232879 31.639158 
L 125.280844 31.749931 
L 125.568636 32.531273 
L 125.664567 32.334122 
L 125.712532 32.381717 
L 125.952359 31.933681 
L 126.096255 31.977107 
L 126.288117 32.202545 
L 126.336082 32.047349 
L 126.384048 32.22839 
L 126.575909 32.517409 
L 126.623874 32.548342 
L 126.863701 31.850787 
L 127.007597 32.262247 
L 127.151494 32.79279 
L 127.199459 32.745 
L 127.439286 32.089146 
L 127.535216 32.427516 
L 127.583182 32.251869 
L 127.823009 32.025703 
L 127.870974 32.208712 
L 127.918939 32.106644 
L 128.110801 31.870995 
L 128.158766 31.960693 
L 128.206732 31.93486 
L 128.398593 31.1946 
L 128.446558 31.238412 
L 128.590455 31.739598 
L 128.63842 31.680177 
L 128.686385 31.787221 
L 128.734351 31.723471 
L 128.878247 31.578687 
L 129.022143 31.593258 
L 129.166039 31.125007 
L 129.26197 31.318341 
L 129.3579 31.380506 
L 129.405866 31.300041 
L 129.693658 30.622425 
L 129.789589 30.902983 
L 129.837554 30.86593 
L 130.029416 31.337631 
L 130.173312 31.715641 
L 130.221277 31.389958 
L 130.269242 31.523386 
L 130.413139 31.650212 
L 130.461104 31.652604 
L 130.652965 31.000121 
L 130.700931 31.061613 
L 130.748896 31.117515 
L 131.036688 32.543823 
L 131.22855 31.439423 
L 131.420411 32.352131 
L 131.468377 32.290713 
L 131.708203 31.788031 
L 131.804134 31.76868 
L 131.8521 31.545551 
L 131.900065 31.557458 
L 132.139892 32.236694 
L 132.187857 32.18577 
L 132.331753 32.014316 
L 132.427684 31.902004 
L 132.619545 31.193941 
L 132.811407 31.704378 
L 133.003268 31.99985 
L 133.051234 31.970457 
L 133.099199 32.051113 
L 133.147165 32.01706 
L 133.19513 31.717663 
L 133.291061 31.759331 
L 133.386991 31.647347 
L 133.482922 31.955017 
L 133.722749 30.70557 
L 133.770714 30.793839 
L 133.91461 31.088337 
L 134.010541 30.878054 
L 134.058506 30.735891 
L 134.106472 30.767716 
L 134.202403 31.237811 
L 134.250368 31.170318 
L 134.442229 30.519936 
L 134.490195 30.732457 
L 134.586126 30.691314 
L 134.730022 30.598666 
L 134.873918 30.906648 
L 135.065779 30.757651 
L 135.113745 30.841186 
L 135.353571 31.4006 
L 135.401537 31.425685 
L 135.545433 31.301268 
L 135.689329 31.785936 
L 135.737294 31.561238 
L 135.929156 31.133833 
L 136.025087 31.228021 
L 136.121017 30.89588 
L 136.168983 30.966849 
L 136.456775 31.280004 
L 136.696602 30.713121 
L 136.792532 30.78271 
L 137.032359 31.650358 
L 137.080325 31.599049 
L 137.320152 30.812515 
L 137.512013 31.434098 
L 137.655909 31.396773 
L 137.75184 31.396519 
L 137.943701 31.673328 
L 138.183528 31.138059 
L 138.37539 32.24391 
L 138.423355 32.19233 
L 138.615216 31.315598 
L 138.855043 32.346212 
L 138.903009 32.285332 
L 138.998939 32.179672 
L 139.09487 31.897121 
L 139.142835 31.984444 
L 139.286732 31.707317 
L 139.334697 32.134022 
L 139.382662 31.985056 
L 139.430628 31.957008 
L 139.526558 32.210935 
L 139.71842 31.462142 
L 139.766385 31.589008 
L 139.862316 32.014179 
L 139.910281 31.822419 
L 140.054177 31.119699 
L 140.246039 31.760158 
L 140.294004 31.752556 
L 140.4379 31.253564 
L 140.581797 31.662242 
L 140.629762 31.448789 
L 140.677727 31.523181 
L 140.773658 31.657171 
L 140.869589 31.92409 
L 140.965519 32.086116 
L 141.013485 32.048881 
L 141.253312 31.174324 
L 141.349242 31.261484 
L 141.541104 31.713764 
L 141.589069 31.656692 
L 141.685 31.972501 
L 141.732965 31.945595 
L 141.876861 31.309857 
L 142.020758 31.489784 
L 142.164654 31.43861 
L 142.260584 31.431095 
L 142.30855 31.775535 
L 142.356515 31.766535 
L 142.404481 31.650977 
L 142.452446 31.760676 
L 142.500411 31.753026 
L 142.548377 31.960824 
L 142.596342 31.720227 
L 142.740238 31.62062 
L 142.9321 31.629469 
L 143.123961 32.378149 
L 143.171926 32.153302 
L 143.315823 31.153544 
L 143.363788 31.523216 
L 143.507684 31.747698 
L 143.699545 31.349848 
L 143.747511 31.486922 
L 143.795476 31.450471 
L 143.891407 31.133412 
L 143.939372 31.290163 
L 143.987338 31.217911 
L 144.035303 31.259604 
L 144.27513 31.417652 
L 144.419026 31.38353 
L 144.466991 31.410166 
L 144.514957 31.004877 
L 144.562922 31.012249 
L 144.610887 31.341078 
L 144.658853 31.264198 
L 144.802749 30.975394 
L 144.850714 31.146509 
L 144.99461 31.455799 
L 145.042576 31.153738 
L 145.090541 31.201264 
L 145.282403 31.842047 
L 145.474264 31.311431 
L 145.762056 31.479316 
L 145.810022 31.389869 
L 145.857987 31.523305 
L 145.905952 31.751986 
L 145.953918 31.637751 
L 146.385606 30.814698 
L 146.625433 32.062856 
L 146.673398 31.812984 
L 146.86526 31.133582 
L 146.913225 31.290317 
L 147.057121 31.484865 
L 147.105087 31.394913 
L 147.201017 31.746394 
L 147.392879 30.708413 
L 147.440844 30.796423 
L 147.58474 31.010412 
L 147.632706 30.963593 
L 147.776602 30.597355 
L 147.872532 31.419144 
L 147.968463 43.450869 
L 148.304221 134.020022 
L 148.639978 204.249183 
L 149.023701 244.633482 
L 149.407424 264.018372 
L 149.791147 273.321535 
L 150.17487 277.892211 
L 150.606558 280.345319 
L 150.990281 281.346092 
L 151.469935 282.067143 
L 152.14145 282.528897 
L 153.052792 282.893455 
L 156.07461 283.444301 
L 156.410368 283.472073 
L 161.350801 283.761747 
L 162.022316 283.749239 
L 162.837727 283.757465 
L 163.22145 283.780296 
L 165.907511 283.792588 
L 179.337814 283.819843 
L 179.625606 283.823257 
L 181.112532 283.817184 
L 181.304394 283.920558 
L 181.400325 284.34077 
L 181.496255 277.739629 
L 181.736082 231.267453 
L 182.551494 60.083381 
L 182.599459 59.648458 
L 182.743355 51.030146 
L 182.935216 45.576958 
L 183.318939 38.339194 
L 183.654697 34.893646 
L 183.798593 34.37313 
L 183.942489 33.516171 
L 183.990455 33.671058 
L 184.230281 33.191765 
L 184.278247 33.376144 
L 184.326212 33.221634 
L 184.470108 32.504613 
L 184.566039 32.565887 
L 184.614004 32.592412 
L 184.709935 32.941053 
L 184.7579 32.826096 
L 185.045693 31.665877 
L 185.093658 31.881598 
L 185.141623 31.755579 
L 185.333485 31.016485 
L 185.38145 30.861737 
L 185.429416 31.043185 
L 185.525346 31.153105 
L 185.669242 30.803187 
L 185.813139 31.216491 
L 185.909069 30.832664 
L 185.957035 30.90938 
L 186.052965 31.242631 
L 186.100931 31.174701 
L 186.196861 31.056805 
L 186.244827 31.22052 
L 186.292792 31.154599 
L 186.340758 30.87992 
L 186.388723 30.952339 
L 186.436688 31.018175 
L 186.484654 30.970649 
L 186.62855 30.759284 
L 186.820411 31.228326 
L 186.964307 30.859703 
L 187.012273 30.93396 
L 187.2521 32.226664 
L 187.300065 32.069276 
L 187.587857 31.030016 
L 187.683788 31.239835 
L 187.731753 31.172159 
L 187.779719 31.218011 
L 187.827684 31.152319 
L 187.923615 31.038307 
L 187.97158 31.150016 
L 188.067511 31.339009 
L 188.163442 30.982726 
L 188.259372 31.103138 
L 188.691061 31.714243 
L 188.786991 31.912689 
L 188.834957 31.837532 
L 188.978853 31.620012 
L 189.122749 32.035174 
L 189.21868 31.972931 
L 189.410541 31.86034 
L 189.458506 31.951006 
L 189.554437 32.259663 
L 189.602403 32.099275 
L 189.842229 31.857982 
L 189.93816 31.719115 
L 189.986126 31.500492 
L 190.034091 31.731247 
L 190.082056 31.941025 
L 190.130022 31.702228 
L 190.273918 31.313366 
L 190.321883 31.453757 
L 190.369848 31.366634 
L 190.513745 31.012422 
L 190.705606 31.402111 
L 190.801537 31.244747 
L 191.089329 31.962616 
L 191.18526 31.595718 
L 191.329156 30.743941 
L 191.377121 30.775034 
L 191.473052 31.243858 
L 191.521017 31.175816 
L 191.712879 30.682536 
L 191.856775 30.87604 
L 191.952706 30.604988 
L 192.000671 30.702401 
L 192.096602 31.242399 
L 192.288463 32.591965 
L 192.336429 32.293992 
L 192.384394 32.345235 
L 192.480325 32.03395 
L 192.52829 32.108834 
L 192.576255 32.176909 
L 192.720152 31.500064 
L 192.816082 31.628305 
L 192.864048 31.632689 
L 193.007944 32.0305 
L 193.055909 31.998321 
L 193.199805 31.242095 
L 193.247771 31.388965 
L 193.343701 31.848854 
L 193.391667 31.833188 
L 193.439632 31.657883 
L 193.535563 31.709926 
L 193.583528 31.653202 
L 193.631494 31.762699 
L 193.679459 31.808554 
L 193.727424 32.011303 
L 193.77539 31.766118 
L 193.919286 31.743839 
L 194.063182 31.530097 
L 194.398939 30.97369 
L 194.542835 31.237217 
L 194.638766 31.001095 
L 194.686732 30.740371 
L 194.734697 30.825476 
L 195.022489 31.270279 
L 195.070455 31.199835 
L 195.214351 31.033525 
L 195.262316 31.091981 
L 195.406212 31.424592 
L 195.598074 31.593194 
L 195.646039 31.278642 
L 195.74197 31.347697 
L 195.789935 31.377591 
L 195.981797 31.026592 
L 196.125693 31.193103 
L 196.365519 30.42617 
L 196.605346 31.054168 
L 196.845173 30.794793 
L 196.941104 31.357802 
L 197.037035 31.315504 
L 197.085 31.455701 
L 197.132965 31.368401 
L 197.324827 30.81488 
L 197.516688 31.288122 
L 197.660584 31.571068 
L 197.804481 30.911332 
L 197.900411 31.249125 
L 197.948377 31.073229 
L 198.188203 31.436006 
L 198.236169 31.350496 
L 198.284134 31.27276 
L 198.3321 31.309467 
L 198.571926 31.606292 
L 198.907684 31.140201 
L 198.955649 31.188958 
L 199.003615 31.125907 
L 199.147511 30.724185 
L 199.195476 30.810762 
L 199.387338 31.298983 
L 199.435303 31.225929 
L 199.483268 31.266893 
L 199.723095 31.806189 
L 199.962922 31.170941 
L 200.010887 31.32428 
L 200.106818 31.49279 
L 200.202749 32.129889 
L 200.250714 32.088675 
L 200.39461 31.711085 
L 200.538506 32.103599 
L 200.634437 32.02948 
L 200.778333 31.852966 
L 201.162056 32.531318 
L 201.449848 31.814035 
L 201.593745 32.269687 
L 201.881537 30.96136 
L 201.929502 31.133751 
L 202.073398 31.865068 
L 202.169329 31.627356 
L 202.313225 30.865769 
L 202.36119 30.993163 
L 202.601017 32.092394 
L 202.648983 31.947212 
L 202.792879 31.194822 
L 202.840844 31.238614 
L 202.98474 31.436258 
L 203.128636 30.992408 
L 203.224567 31.101379 
L 203.368463 31.720059 
L 203.60829 31.067767 
L 203.656255 31.337861 
L 203.752186 31.299024 
L 203.944048 31.472376 
L 204.135909 31.211091 
L 204.327771 30.779235 
L 204.375736 30.860807 
L 204.519632 31.162168 
L 204.711494 30.812859 
L 204.95132 31.050712 
L 205.143182 30.874684 
L 205.191147 30.947579 
L 205.335043 31.448324 
L 205.383009 31.46907 
L 205.526905 31.084947 
L 205.57487 31.353479 
L 205.622835 31.275472 
L 205.814697 30.680497 
L 205.862662 30.878422 
L 205.958593 30.821708 
L 206.102489 30.232076 
L 206.150455 30.256015 
L 206.294351 30.830683 
L 206.342316 30.692827 
L 206.390281 30.782254 
L 206.486212 30.732469 
L 206.630108 31.153598 
L 206.678074 31.093762 
L 206.774004 30.892299 
L 206.965866 31.367581 
L 207.013831 31.288292 
L 207.061797 31.323586 
L 207.109762 31.248296 
L 207.157727 31.179851 
L 207.205693 31.225003 
L 207.253658 31.373427 
L 207.301623 31.18623 
L 207.349589 31.123427 
L 207.397554 31.281085 
L 207.445519 31.102283 
L 207.685346 31.417583 
L 207.781277 31.111112 
L 207.829242 31.162514 
L 208.021104 31.450494 
L 208.260931 30.956052 
L 208.308896 31.128926 
L 208.356861 31.286084 
L 208.452792 31.256233 
L 208.548723 30.928958 
L 208.596688 30.996919 
L 208.740584 31.023944 
L 208.932446 31.702824 
L 208.980411 31.485682 
L 209.028377 31.395656 
L 209.076342 31.528566 
L 209.124307 31.542017 
L 209.316169 32.387152 
L 209.364134 32.376238 
L 209.460065 32.254801 
L 209.50803 32.363295 
L 209.603961 32.449095 
L 209.747857 32.92341 
L 209.939719 32.340117 
L 210.227511 33.454342 
L 210.275476 33.185347 
L 210.371407 32.708735 
L 210.563268 31.945099 
L 210.707165 32.128114 
L 210.75513 32.087061 
L 210.803095 32.04974 
L 210.851061 32.123188 
L 211.042922 33.11861 
L 211.090887 32.772761 
L 211.138853 32.673103 
L 211.234784 32.900364 
L 211.426645 32.191185 
L 211.522576 31.809022 
L 211.762403 32.226269 
L 211.810368 32.22998 
L 212.050195 33.110895 
L 212.09816 32.980498 
L 212.194091 32.549199 
L 212.290022 32.602735 
L 212.337987 32.518534 
L 212.385952 32.549365 
L 212.433918 32.63108 
L 212.481883 32.436927 
L 212.529848 32.528864 
L 212.625779 32.683543 
L 212.673745 32.591997 
L 212.72171 32.723524 
L 212.865606 32.649507 
L 212.913571 32.561055 
L 212.961537 32.695396 
L 213.105433 32.913231 
L 213.201364 32.547294 
L 213.249329 32.57551 
L 213.34526 32.731855 
L 213.393225 32.850668 
L 213.44119 32.743929 
L 213.633052 31.843125 
L 213.824913 31.978366 
L 213.872879 31.575111 
L 213.96881 31.636639 
L 214.160671 32.210043 
L 214.208636 32.054166 
L 214.352532 31.37368 
L 214.400498 31.401212 
L 214.640325 32.796136 
L 215.359805 31.454934 
L 215.407771 31.582455 
L 215.551667 31.213618 
L 215.647597 31.293958 
L 215.695563 31.221361 
L 215.743528 31.155365 
L 215.887424 31.373711 
L 215.93539 31.079113 
L 216.03132 31.173036 
L 216.223182 30.923181 
L 216.415043 31.74537 
L 216.463009 31.631736 
L 216.65487 31.190859 
L 216.798766 31.596495 
L 216.846732 31.603771 
L 216.942662 32.016618 
L 216.990628 31.985701 
L 217.230455 31.057355 
L 217.27842 31.006268 
L 217.422316 31.839393 
L 217.470281 31.717212 
L 217.662143 32.061779 
L 217.710108 31.91938 
L 217.90197 32.839601 
L 217.949935 32.733867 
L 218.045866 32.335611 
L 218.141797 31.723391 
L 218.189762 31.933883 
L 218.333658 32.73244 
L 218.525519 31.854358 
L 218.669416 32.246738 
L 218.813312 31.820079 
L 218.957208 32.087873 
L 219.101104 33.145859 
L 219.149069 33.065972 
L 219.676688 31.776854 
L 219.724654 31.87511 
L 219.86855 31.331442 
L 219.916515 31.47019 
L 220.012446 31.862294 
L 220.060411 31.845406 
L 220.252273 31.345672 
L 220.300238 31.37575 
L 220.348203 31.295718 
L 220.396169 31.222962 
L 220.540065 31.566926 
L 220.683961 31.589303 
L 220.731926 31.436169 
L 220.827857 31.477885 
L 221.067684 32.992491 
L 221.163615 32.646964 
L 221.21158 32.61243 
L 221.451407 31.730438 
L 221.547338 31.721082 
L 221.643268 32.015955 
L 221.691234 31.985098 
L 221.739199 31.957047 
L 221.883095 31.612191 
L 221.979026 31.730734 
L 222.074957 32.131307 
L 222.122922 32.036276 
L 222.266818 31.457853 
L 222.362749 31.59342 
L 222.55461 31.629527 
L 222.698506 32.228677 
L 222.746472 32.178482 
L 222.938333 31.80962 
L 223.034264 31.688908 
L 223.082229 31.795159 
L 223.130195 31.676998 
L 223.226126 31.374312 
L 223.274091 31.401787 
L 223.417987 31.656467 
L 223.657814 31.261143 
L 223.897641 32.283519 
L 223.993571 41.109897 
L 224.281364 114.554093 
L 224.665087 201.452759 
L 225.04881 243.266323 
L 225.432532 263.404554 
L 225.816255 273.057482 
L 226.199978 277.754028 
L 226.583701 280.070365 
L 227.01539 281.354628 
L 227.495043 282.051116 
L 228.022662 282.502162 
L 228.35842 282.656331 
L 229.029935 282.880105 
L 231.140411 283.298425 
L 231.380238 283.294758 
L 232.099719 283.422334 
L 233.250887 283.556537 
L 233.682576 283.621524 
L 234.114264 283.641586 
L 234.402056 283.664398 
L 235.888983 283.695768 
L 238.383182 283.779637 
L 239.390455 283.772489 
L 241.836688 283.815313 
L 243.611407 283.787619 
L 244.043095 283.78547 
L 245.002403 283.819871 
L 245.865779 283.833398 
L 246.441364 283.814608 
L 247.016948 283.838923 
L 247.784394 283.81851 
L 248.168117 283.816938 
L 248.887597 283.817813 
L 249.846905 283.795469 
L 250.566385 283.81921 
L 252.245173 283.813394 
L 252.724827 283.827796 
L 253.396342 283.786247 
L 253.82803 283.782444 
L 257.233571 283.834727 
L 257.377468 284.401237 
L 257.473398 277.486997 
L 257.713225 230.012532 
L 258.480671 60.755907 
L 258.528636 60.9041 
L 258.576602 60.609318 
L 259.152186 39.291755 
L 259.871667 33.23401 
L 260.015563 32.544083 
L 260.111494 32.090912 
L 260.159459 32.160616 
L 260.207424 32.116609 
L 260.25539 32.398729 
L 260.35132 32.380765 
L 260.639113 31.83606 
L 260.783009 31.610033 
L 260.878939 31.93394 
L 260.97487 31.889266 
L 261.166732 31.456302 
L 261.214697 31.583699 
L 261.262662 31.431074 
L 261.358593 31.522481 
L 261.454524 31.290539 
L 261.550455 31.357529 
L 261.790281 32.025508 
L 261.838247 31.993783 
L 262.078074 30.964682 
L 262.126039 31.029395 
L 262.3179 31.974462 
L 262.365866 31.840002 
L 262.509762 31.300628 
L 262.557727 31.442177 
L 262.749589 32.077223 
L 262.845519 31.900305 
L 262.893485 31.93365 
L 263.085346 31.682733 
L 263.229242 31.984683 
L 263.421104 31.226936 
L 263.469069 31.267808 
L 263.565 31.65599 
L 263.756861 32.117135 
L 263.804827 32.184456 
L 263.852792 32.138281 
L 263.900758 31.988928 
L 263.948723 32.17528 
L 264.044654 32.401086 
L 264.092619 32.335218 
L 264.140584 32.167961 
L 264.18855 32.230662 
L 264.284481 32.339481 
L 264.476342 31.656146 
L 264.524307 31.550624 
L 264.572273 31.615758 
L 264.668203 32.1339 
L 264.716169 32.092321 
L 264.8121 31.922545 
L 264.860065 32.007556 
L 265.051926 32.926529 
L 265.147857 32.86577 
L 265.339719 32.092289 
L 265.579545 32.668824 
L 265.723442 32.314679 
L 265.915303 31.773568 
L 266.011234 32.225276 
L 266.059199 32.17539 
L 266.251061 31.473441 
L 266.346991 31.918669 
L 266.442922 31.876645 
L 266.634784 31.411298 
L 266.682749 31.43541 
L 266.730714 31.45733 
L 266.87461 31.183059 
L 266.970541 31.219896 
L 267.114437 32.009656 
L 267.162403 31.979372 
L 267.210368 31.844465 
L 267.258333 31.936574 
L 267.354264 31.784067 
L 267.450195 31.667789 
L 267.49816 31.883336 
L 267.546126 31.864535 
L 267.737987 31.532185 
L 267.929848 31.666681 
L 267.977814 31.345449 
L 268.073745 31.402909 
L 268.313571 30.709649 
L 268.649329 31.218005 
L 268.793225 31.135917 
L 268.889156 31.327357 
L 269.033052 31.129335 
L 269.176948 31.49614 
L 269.36881 31.276532 
L 269.416775 31.312895 
L 269.46474 31.238577 
L 269.608636 31.053759 
L 269.656602 31.110375 
L 269.704567 31.108156 
L 269.752532 31.32089 
L 269.800498 31.138469 
L 269.896429 31.392916 
L 269.944394 31.526075 
L 269.992359 31.432377 
L 270.040325 31.347197 
L 270.08829 31.377136 
L 270.280152 31.935185 
L 270.376082 31.890294 
L 270.472013 31.3456 
L 270.519978 31.375684 
L 270.71184 31.685236 
L 270.807771 31.371359 
L 270.855736 31.399102 
L 271.047597 31.842812 
L 271.191494 31.654151 
L 271.287424 31.863025 
L 271.33539 31.792384 
L 271.43132 31.508718 
L 271.479286 31.201846 
L 271.527251 31.244999 
L 271.671147 31.939776 
L 271.719113 31.808469 
L 271.863009 30.708111 
L 271.910974 30.796149 
L 272.150801 32.172774 
L 272.342662 32.113086 
L 272.390628 32.395527 
L 272.438593 32.330164 
L 272.630455 31.970781 
L 272.67842 32.158783 
L 272.870281 32.456152 
L 273.014177 32.182406 
L 273.110108 32.2996 
L 273.206039 33.001664 
L 273.254004 32.881197 
L 273.30197 32.932746 
L 273.493831 31.845191 
L 273.541797 32.04461 
L 273.685693 32.237931 
L 273.733658 32.079519 
L 273.781623 32.150259 
L 273.829589 32.214569 
L 273.925519 32.023576 
L 274.02145 32.212262 
L 274.117381 31.767872 
L 274.165346 31.813256 
L 274.261277 31.887141 
L 274.405173 31.228669 
L 274.501104 31.306397 
L 274.645 31.496946 
L 274.692965 31.191144 
L 274.740931 31.23527 
L 274.884827 31.638736 
L 275.124654 30.86862 
L 275.172619 30.727315 
L 275.220584 31.028359 
L 275.26855 30.765156 
L 275.412446 30.599569 
L 275.700238 31.242465 
L 275.8921 30.697886 
L 275.98803 31.082485 
L 276.083961 31.89817 
L 276.131926 31.878021 
L 276.323788 30.923803 
L 276.371753 30.938544 
L 276.61158 31.412245 
L 276.803442 31.210357 
L 276.851407 31.467488 
L 276.899372 31.379116 
L 277.091234 30.991613 
L 277.187165 30.495512 
L 277.23513 30.763941 
L 277.283095 30.68584 
L 277.379026 30.901705 
L 277.426991 30.757392 
L 277.474957 30.84095 
L 277.762749 31.426799 
L 277.810714 31.664254 
L 277.85868 31.557994 
L 277.906645 31.56877 
L 278.002576 31.23606 
L 278.050541 31.329791 
L 278.242403 31.716492 
L 278.338333 31.406952 
L 278.386299 31.431459 
L 278.530195 32.070993 
L 278.817987 31.537699 
L 278.961883 31.705335 
L 279.153745 31.793819 
L 279.297641 31.479795 
L 279.489502 31.630898 
L 279.681364 32.225483 
L 279.969156 32.963739 
L 280.161017 32.286989 
L 280.44881 31.118336 
L 280.54474 31.322589 
L 280.592706 31.462141 
L 280.640671 31.374255 
L 280.880498 30.943484 
L 280.928463 31.117501 
L 280.976429 31.060946 
L 281.024394 30.955844 
L 281.072359 31.236113 
L 281.16829 31.214935 
L 281.216255 31.256898 
L 281.264221 31.509798 
L 281.360152 31.441121 
L 281.504048 31.205933 
L 281.552013 31.356091 
L 281.599978 31.277846 
L 281.839805 31.106242 
L 281.887771 30.997023 
L 281.935736 31.058797 
L 282.031667 31.370997 
L 282.079632 31.291397 
L 282.271494 30.860788 
L 282.41539 31.152392 
L 282.51132 30.735763 
L 282.559286 30.767599 
L 282.751147 30.873841 
L 282.943009 31.387244 
L 282.990974 31.520918 
L 283.182835 30.928814 
L 283.422662 32.356737 
L 283.518593 32.189878 
L 283.566558 32.035834 
L 283.614524 32.110546 
L 283.662489 32.178466 
L 283.902316 31.531576 
L 284.094177 31.819262 
L 284.238074 31.666629 
L 284.429935 30.983885 
L 284.525866 31.094335 
L 284.621797 31.292992 
L 284.669762 31.220483 
L 284.717727 31.261942 
L 284.861623 30.732769 
L 285.005519 31.021157 
L 285.053485 30.97336 
L 285.149416 30.382813 
L 285.197381 30.500423 
L 285.629069 31.29672 
L 285.772965 30.892453 
L 285.820931 30.748981 
L 285.964827 31.31775 
L 286.060758 30.970037 
L 286.108723 31.141639 
L 286.156688 31.297642 
L 286.204654 31.22471 
L 286.252619 31.158409 
L 286.34855 31.560697 
L 286.396515 31.463852 
L 286.588377 30.822797 
L 286.636342 30.900409 
L 286.828203 31.218229 
L 286.876169 30.937765 
L 286.924134 31.219677 
L 286.9721 31.261209 
L 287.020065 31.513718 
L 287.06803 31.421143 
L 287.115996 31.283296 
L 287.163961 31.319045 
L 287.211926 31.351544 
L 287.403788 32.042344 
L 287.451753 32.009089 
L 287.595649 31.142809 
L 287.643615 31.191329 
L 287.739545 31.480528 
L 287.787511 31.390971 
L 287.835476 31.416931 
L 287.883442 31.225779 
L 287.931407 31.481508 
L 288.123268 32.31424 
L 288.459026 31.914009 
L 288.506991 31.999796 
L 288.554957 32.077784 
L 288.698853 31.576892 
L 288.746818 31.639638 
L 288.794784 31.750368 
L 288.842749 31.582591 
L 288.93868 31.193795 
L 288.986645 31.23768 
L 289.082576 31.616449 
L 289.130541 31.514535 
L 289.322403 30.808204 
L 289.610195 31.987221 
L 289.65816 31.744224 
L 289.754091 31.376183 
L 289.802056 31.403488 
L 290.041883 31.623242 
L 290.137814 31.232272 
L 290.185779 31.272659 
L 290.425606 32.032871 
L 290.473571 31.893101 
L 290.569502 31.504102 
L 290.617468 31.519777 
L 290.809329 32.11409 
L 290.90526 31.930774 
L 291.049156 31.485077 
L 291.384913 32.053303 
L 291.672706 31.480476 
L 291.960498 32.637369 
L 292.152359 32.233891 
L 292.200325 32.290598 
L 292.24829 32.234774 
L 292.440152 31.969078 
L 292.488117 32.049859 
L 292.727944 32.753726 
L 293.015736 31.857742 
L 293.063701 31.948644 
L 293.159632 31.794042 
L 293.303528 31.274972 
L 293.351494 31.311477 
L 293.447424 31.428522 
L 293.49539 31.343692 
L 293.59132 31.098853 
L 293.639286 31.205057 
L 293.687251 31.247918 
L 293.879113 30.82133 
L 293.927078 30.899075 
L 293.975043 30.755001 
L 294.023009 30.838777 
L 294.070974 30.914936 
L 294.118939 30.876796 
L 294.262835 30.604467 
L 294.454697 30.891456 
L 294.502662 30.855451 
L 294.550628 30.500591 
L 294.598593 30.822246 
L 294.646558 31.007284 
L 294.694524 30.853373 
L 295.030281 31.178365 
L 295.078247 31.116277 
L 295.126212 31.167209 
L 295.174177 31.213511 
L 295.318074 30.750957 
L 295.366039 30.8351 
L 295.46197 31.195885 
L 295.749762 32.285677 
L 295.845693 32.438636 
L 295.893658 32.369353 
L 296.085519 31.944748 
L 296.18145 32.103188 
L 296.421277 32.406136 
L 296.565173 32.068067 
L 296.613139 32.139849 
L 296.661104 32.205105 
L 296.709069 32.157053 
L 296.805 31.976042 
L 296.852965 32.05619 
L 296.996861 32.344245 
L 297.284654 31.108333 
L 297.380584 31.206946 
L 297.476515 30.79061 
L 297.524481 30.871148 
L 297.620411 31.206155 
L 297.668377 31.14154 
L 297.812273 30.696884 
L 297.860238 30.785943 
L 298.004134 31.247018 
L 298.0521 31.178689 
L 298.243961 29.964894 
L 298.291926 30.120498 
L 298.387857 30.605305 
L 298.531753 31.449403 
L 298.579719 31.362675 
L 298.723615 30.902072 
L 298.915476 31.370626 
L 298.963442 31.29106 
L 299.011407 31.326103 
L 299.203268 31.705099 
L 299.347165 31.173983 
L 299.39513 31.273357 
L 299.443095 31.417385 
L 299.491061 31.333568 
L 299.634957 30.670776 
L 299.682922 30.815896 
L 299.922749 31.725059 
L 300.01868 39.594123 
L 300.306472 113.702306 
L 300.690195 200.906561 
L 301.073918 242.972475 
L 301.457641 263.220933 
L 301.841364 272.982453 
L 302.225087 277.68561 
L 302.60881 280.06093 
L 302.992532 281.250343 
L 303.424221 281.972349 
L 303.568117 282.046445 
L 303.999805 282.421065 
L 304.959113 282.86516 
L 305.966385 283.07829 
L 306.494004 283.202104 
L 307.26145 283.342664 
L 310.331234 283.651168 
L 311.770195 283.715785 
L 312.345779 283.744734 
L 313.017294 283.747524 
L 314.264394 283.783609 
L 314.792013 283.773805 
L 315.127771 283.76942 
L 316.662662 283.801364 
L 317.909762 283.807088 
L 318.581277 283.804564 
L 319.012965 283.831266 
L 319.204827 283.794436 
L 322.322576 283.787215 
L 323.953398 283.78084 
L 324.433052 283.792589 
L 324.76881 283.779369 
L 325.152532 283.803157 
L 325.728117 283.823092 
L 328.414177 283.799346 
L 328.558074 283.750674 
L 329.133658 283.808477 
L 330.140931 283.824395 
L 333.210714 283.85165 
L 333.450541 284.004121 
L 333.498506 284.260883 
L 333.546472 283.847609 
L 333.642403 276.966004 
L 333.834264 242.0811 
L 334.649675 58.815611 
L 334.697641 58.925443 
L 334.745606 59.132667 
L 334.889502 50.329371 
L 335.081364 45.60539 
L 335.561017 36.192317 
L 335.896775 33.260439 
L 336.232532 32.088921 
L 336.376429 31.932234 
L 336.424394 32.12374 
L 336.472359 31.975709 
L 336.616255 31.216232 
L 336.712186 31.296119 
L 336.808117 31.459755 
L 336.999978 31.070207 
L 337.047944 31.125327 
L 337.383701 32.354406 
L 337.431667 32.078029 
L 337.479632 32.04153 
L 337.575563 31.782954 
L 337.623528 31.880655 
L 337.767424 31.766443 
L 337.863355 31.653224 
L 338.007251 31.952751 
L 338.295043 30.974574 
L 338.438939 31.266277 
L 338.582835 31.452605 
L 338.630801 31.365586 
L 338.678766 31.501229 
L 338.822662 31.794185 
L 338.966558 32.245012 
L 339.302316 31.4514 
L 339.446212 31.253145 
L 339.590108 30.877462 
L 339.638074 30.950105 
L 339.686039 30.908768 
L 339.78197 30.837025 
L 339.829935 30.913344 
L 339.925866 31.455779 
L 340.021797 31.396477 
L 340.069762 31.368248 
L 340.117727 31.557338 
L 340.357554 30.259292 
L 340.405519 30.280756 
L 340.741277 30.908 
L 340.789242 30.870491 
L 340.837208 30.997455 
L 340.885173 30.844438 
L 341.029069 30.850814 
L 341.077035 30.711127 
L 341.172965 30.771301 
L 341.412792 31.131396 
L 341.508723 30.923401 
L 341.652619 31.199434 
L 341.74855 31.233429 
L 341.988377 32.542579 
L 342.228203 31.523783 
L 342.46803 33.191944 
L 342.515996 33.161555 
L 342.803788 31.760115 
L 342.851753 31.752516 
L 342.899719 32.067736 
L 342.947684 32.032172 
L 343.09158 31.463644 
L 343.139545 31.590373 
L 343.235476 31.702941 
L 343.379372 31.265095 
L 343.523268 31.954874 
L 343.571234 31.92957 
L 343.619199 31.906567 
L 343.763095 31.27166 
L 343.811061 31.308467 
L 343.859026 31.341927 
L 343.906991 31.694473 
L 344.002922 31.647433 
L 344.050887 31.650078 
L 344.098853 31.867235 
L 344.146818 31.742522 
L 344.242749 31.526079 
L 344.43461 32.108714 
L 344.674437 31.381414 
L 344.722403 31.461931 
L 344.770368 31.642504 
L 344.818333 31.538221 
L 344.914264 31.45973 
L 345.154091 31.820244 
L 345.250022 31.902678 
L 345.297987 31.989495 
L 345.393918 31.935179 
L 345.537814 32.174349 
L 345.68171 31.952048 
L 345.873571 32.336731 
L 345.921537 32.169337 
L 346.113398 31.369998 
L 346.30526 31.101232 
L 346.449156 31.351676 
L 346.593052 31.707558 
L 346.641017 31.704737 
L 346.832879 30.519421 
L 346.92881 30.827618 
L 347.02474 31.487426 
L 347.072706 31.450929 
L 347.264567 30.961683 
L 347.312532 31.026669 
L 347.408463 31.64705 
L 347.456429 31.542355 
L 347.552359 31.145899 
L 347.64829 30.837773 
L 347.984048 32.04977 
L 348.032013 32.123215 
L 348.127944 32.445911 
L 348.319805 31.867557 
L 348.367771 32.064943 
L 348.415736 31.975945 
L 348.559632 31.794109 
L 348.607597 31.890796 
L 348.799459 32.099666 
L 348.89539 32.02623 
L 349.087251 31.056534 
L 349.135216 31.220273 
L 349.375043 31.627916 
L 349.470974 31.333749 
L 349.518939 31.364911 
L 349.662835 31.853274 
L 349.854697 33.04506 
L 349.950628 32.700171 
L 350.142489 31.889151 
L 350.190455 32.19195 
L 350.286385 32.102497 
L 350.430281 31.623856 
L 350.670108 32.189182 
L 350.814004 31.786598 
L 350.909935 31.767495 
L 350.9579 31.973978 
L 351.005866 31.946937 
L 351.197727 31.398078 
L 351.293658 31.446404 
L 351.389589 31.486344 
L 351.533485 30.808631 
L 351.869242 32.335962 
L 352.013139 32.064596 
L 352.109069 32.202236 
L 352.205 32.315988 
L 352.252965 32.257856 
L 352.444827 31.760491 
L 352.588723 32.308438 
L 352.780584 32.019391 
L 352.876515 31.559667 
L 352.924481 31.677667 
L 353.116342 31.637374 
L 353.212273 31.341565 
L 353.260238 31.372017 
L 353.4521 31.646831 
L 353.500065 31.649531 
L 353.643961 32.146093 
L 353.787857 31.891772 
L 353.835823 31.979581 
L 354.027684 31.459016 
L 354.411407 32.952834 
L 354.555303 32.791619 
L 354.651234 33.066641 
L 354.843095 33.868522 
L 354.891061 33.776626 
L 355.178853 32.041374 
L 355.226818 32.061895 
L 355.370714 32.397339 
L 355.51461 32.315699 
L 355.754437 32.951062 
L 355.994264 32.333997 
L 356.090195 32.424882 
L 356.13816 32.35685 
L 356.234091 32.043549 
L 356.282056 32.11756 
L 356.473918 32.558041 
L 356.569848 32.405052 
L 356.665779 31.966248 
L 356.713745 32.154662 
L 356.857641 32.529598 
L 356.905606 32.666799 
L 356.953571 32.469398 
L 357.145433 31.390283 
L 357.193398 31.631058 
L 357.289329 31.941555 
L 357.337294 31.917462 
L 357.433225 31.563281 
L 357.673052 30.547553 
L 357.768983 30.645877 
L 357.864913 30.824751 
L 357.912879 30.687434 
L 358.056775 30.541175 
L 358.10474 30.537013 
L 358.152706 30.747982 
L 358.200671 30.617643 
L 358.296602 30.450005 
L 358.344567 30.50782 
L 358.584394 31.031526 
L 358.632359 30.982787 
L 358.72829 30.800584 
L 358.824221 31.157598 
L 358.872186 31.097398 
L 359.064048 30.728284 
L 359.255909 30.966304 
L 359.399805 30.227126 
L 359.447771 30.251514 
L 359.591667 30.792249 
L 359.639632 30.765263 
L 359.687597 30.74073 
L 359.879459 31.563516 
L 359.927424 31.466414 
L 360.023355 31.136827 
L 360.119286 31.328109 
L 360.215216 31.388579 
L 360.263182 31.30738 
L 360.455043 30.863637 
L 360.550974 30.702113 
L 360.646905 30.924915 
L 360.790801 31.289312 
L 360.838766 31.324513 
L 360.886732 31.249139 
L 360.982662 30.81572 
L 361.030628 30.893975 
L 361.366385 31.959051 
L 361.462316 31.807523 
L 361.510281 31.902991 
L 361.654177 31.95405 
L 361.798074 32.286141 
L 361.846039 32.230722 
L 361.989935 31.603056 
L 362.085866 31.864725 
L 362.181797 31.627073 
L 362.325693 31.924229 
L 362.373658 31.901711 
L 362.613485 31.125854 
L 362.757381 31.663906 
L 362.853312 31.573364 
L 362.901277 31.421679 
L 362.949242 31.552223 
L 363.045173 32.130199 
L 363.093139 32.088957 
L 363.285 31.210222 
L 363.380931 31.496142 
L 363.476861 31.830054 
L 363.524827 31.708722 
L 363.572792 31.652107 
L 363.668723 31.197558 
L 363.716688 31.241101 
L 363.812619 31.629038 
L 363.90855 31.539666 
L 363.956515 31.552108 
L 364.148377 30.967058 
L 364.244307 31.402556 
L 364.292273 31.212711 
L 364.388203 31.044292 
L 364.580065 31.463327 
L 364.675996 31.607706 
L 364.867857 31.15581 
L 364.963788 31.041193 
L 365.107684 31.34162 
L 365.203615 31.194755 
L 365.347511 31.540854 
L 365.491407 31.173488 
L 365.539372 31.219219 
L 365.635303 31.396202 
L 365.683268 31.206934 
L 365.731234 31.249625 
L 365.923095 31.43908 
L 366.162922 32.149484 
L 366.210887 32.106488 
L 366.306818 31.524272 
L 366.354784 31.64549 
L 366.450714 31.748492 
L 366.642576 31.296339 
L 366.786472 31.18989 
L 366.978333 31.461286 
L 367.362056 32.204854 
L 367.553918 31.782294 
L 367.601883 31.880055 
L 367.697814 31.952109 
L 367.745779 32.249184 
L 367.793745 32.089749 
L 367.84171 32.052183 
L 368.081537 31.211219 
L 368.417294 31.600936 
L 368.46526 31.82256 
L 368.513225 31.701909 
L 368.657121 31.401867 
L 368.705087 31.534212 
L 368.753052 31.54715 
L 368.848983 31.764834 
L 369.08881 31.10262 
L 369.232706 31.520438 
L 369.376602 31.265525 
L 369.424567 31.30289 
L 369.472532 31.444233 
L 369.520498 31.357975 
L 369.760325 30.950317 
L 369.952186 31.532695 
L 370.096082 31.675841 
L 370.239978 31.186166 
L 370.287944 31.230744 
L 370.43184 31.430345 
L 370.575736 30.904107 
L 370.623701 31.028015 
L 370.671667 30.979595 
L 370.863528 31.450601 
L 371.247251 30.889736 
L 371.343182 31.021406 
L 371.487078 30.801411 
L 371.583009 30.904484 
L 371.678939 31.233705 
L 371.918766 30.613461 
L 372.014697 30.959024 
L 372.158593 31.964962 
L 372.206558 31.885053 
L 372.39842 31.452618 
L 372.494351 31.598855 
L 372.686212 32.114131 
L 372.734177 31.966973 
L 372.878074 31.565961 
L 373.069935 32.153702 
L 373.357727 31.609754 
L 373.405693 31.615825 
L 373.501623 31.772782 
L 373.693485 30.881651 
L 373.74145 30.953913 
L 373.933312 31.628289 
L 374.077208 31.229418 
L 374.125173 31.270065 
L 374.460931 31.943171 
L 374.508896 31.811555 
L 374.556861 31.906656 
L 374.604827 31.885736 
L 374.748723 32.216181 
L 375.084481 31.760773 
L 375.180411 31.336172 
L 375.228377 31.367114 
L 375.420238 31.603146 
L 375.516169 31.410892 
L 375.564134 31.542417 
L 375.70803 31.8695 
L 375.755996 31.744581 
L 375.947857 31.179193 
L 375.995823 31.170718 
L 376.091753 31.50742 
L 376.139719 31.469106 
L 376.187684 31.487963 
L 376.235649 33.115744 
L 376.379545 58.528049 
L 377.194957 229.987937 
L 377.57868 257.001722 
L 377.962403 269.981019 
L 378.346126 276.258519 
L 378.729848 279.35118 
L 379.113571 280.899168 
L 379.497294 281.740149 
L 379.928983 282.217005 
L 380.504567 282.581846 
L 382.567078 283.17194 
L 383.47842 283.330734 
L 386.212446 283.645301 
L 386.404307 283.627357 
L 387.795303 283.708514 
L 388.466818 283.718553 
L 389.234264 283.765217 
L 390.049675 283.76996 
L 390.913052 283.8011 
L 391.536602 283.791987 
L 391.920325 283.774165 
L 392.304048 283.763139 
L 393.743009 283.811794 
L 394.174697 283.793899 
L 396.045346 283.805526 
L 398.299719 283.82386 
L 398.827338 283.817493 
L 399.594784 283.804828 
L 400.410195 283.833478 
L 401.08171 283.806708 
L 402.136948 283.810755 
L 402.472706 283.841766 
L 405.782316 283.789073 
L 406.26197 283.790503 
L 408.8521 283.815568 
L 409.235823 283.811491 
L 409.619545 283.812875 
L 409.715476 284.046812 
L 409.763442 284.438284 
L 409.811407 283.794131 
L 409.955303 267.320211 
L 410.626818 116.968132 
L 410.962576 61.10008 
L 411.106472 52.98599 
L 411.298333 45.614755 
L 411.442229 42.47509 
L 411.682056 37.49947 
L 411.921883 35.680618 
L 412.16171 33.385241 
L 412.209675 33.552032 
L 412.257641 33.488907 
L 412.305606 33.431522 
L 412.593398 32.098792 
L 412.641364 32.275157 
L 412.689329 32.220736 
L 412.833225 31.938535 
L 412.88119 32.022092 
L 412.929156 32.044366 
L 413.216948 31.38515 
L 413.456775 31.739166 
L 413.50474 31.626096 
L 413.600671 31.683656 
L 414.032359 31.68762 
L 414.224221 32.053628 
L 414.607944 31.221451 
L 414.703874 31.300432 
L 414.847771 31.874048 
L 414.895736 31.856092 
L 415.135563 31.536397 
L 415.279459 31.678622 
L 415.327424 31.893184 
L 415.37539 31.766112 
L 415.519286 31.342728 
L 415.615216 31.400661 
L 415.807078 31.394487 
L 415.950974 31.170896 
L 416.238766 32.433945 
L 416.286732 32.150337 
L 416.478593 31.510018 
L 416.670455 31.670176 
L 416.814351 31.911356 
L 417.006212 31.131756 
L 417.198074 31.660211 
L 417.246039 31.608006 
L 417.4379 31.624847 
L 417.581797 31.922557 
L 417.677727 31.469877 
L 417.773658 31.505743 
L 417.917554 31.745219 
L 417.965519 31.846351 
L 418.013485 31.723537 
L 418.06145 31.719263 
L 418.109416 31.876443 
L 418.157381 31.697205 
L 418.349242 31.601911 
L 418.397208 31.393943 
L 418.493139 31.442987 
L 418.685 32.791814 
L 418.780931 32.695867 
L 418.972792 31.285116 
L 419.116688 31.818171 
L 419.260584 31.018005 
L 419.548377 31.721354 
L 419.692273 31.514091 
L 419.836169 31.598858 
L 419.9321 31.407348 
L 419.980065 31.431819 
L 420.075996 31.571904 
L 420.123961 31.47404 
L 420.171926 31.599824 
L 420.267857 31.505761 
L 420.363788 31.115657 
L 420.507684 30.828296 
L 420.603615 30.873016 
L 420.747511 30.601626 
L 420.891407 31.083691 
L 421.083268 31.619314 
L 421.27513 30.63049 
L 421.371061 31.065832 
L 421.419026 31.013974 
L 421.466991 30.96683 
L 421.610887 30.564735 
L 421.658853 30.558432 
L 421.89868 31.332408 
L 422.138506 30.626747 
L 422.330368 31.128928 
L 422.474264 30.882638 
L 422.810022 32.237752 
L 423.001883 32.714636 
L 423.049848 32.566575 
L 423.097814 32.593037 
L 423.337641 31.760104 
L 423.385606 31.859882 
L 423.433571 31.735838 
L 423.673398 31.399974 
L 423.817294 31.508683 
L 423.96119 31.540663 
L 424.105087 31.182219 
L 424.296948 31.338909 
L 424.392879 30.889909 
L 424.440844 31.015108 
L 424.58474 31.492404 
L 424.680671 31.368177 
L 424.776602 31.021474 
L 424.824567 31.081025 
L 425.016429 31.74181 
L 425.160325 30.863907 
L 425.20829 30.937782 
L 425.256255 30.951253 
L 425.592013 31.968782 
L 425.83184 31.197195 
L 425.879805 31.455523 
L 425.975736 31.69887 
L 426.023701 31.643151 
L 426.119632 31.492761 
L 426.263528 30.959875 
L 426.407424 31.608421 
L 426.45539 31.507237 
L 426.55132 31.439004 
L 426.791147 32.057462 
L 426.839113 31.969144 
L 427.126905 31.071661 
L 427.17487 31.234025 
L 427.222835 31.166877 
L 427.270801 30.998458 
L 427.414697 31.613005 
L 427.462662 31.565092 
L 427.654524 31.904716 
L 427.702489 31.883972 
L 427.846385 31.547528 
L 428.086212 32.587836 
L 428.42197 30.621821 
L 428.5179 30.697494 
L 428.709762 30.275969 
L 428.901623 30.995024 
L 428.949589 30.842227 
L 429.045519 30.684419 
L 429.477208 32.020314 
L 429.621104 32.032435 
L 429.669069 31.677952 
L 429.717035 31.785199 
L 430.100758 32.353744 
L 430.148723 32.399555 
L 430.196688 32.655954 
L 430.244654 32.459539 
L 430.38855 31.872584 
L 430.436515 31.962137 
L 430.724307 33.159062 
L 430.916169 32.200684 
L 430.964134 32.26041 
L 431.10803 32.497679 
L 431.251926 31.929636 
L 431.443788 32.348409 
L 431.539719 32.070738 
L 431.635649 32.261 
L 431.827511 32.748626 
L 432.019372 31.579305 
L 432.163268 32.102205 
L 432.259199 32.692106 
L 432.307165 32.599781 
L 432.35513 32.515849 
L 432.594957 30.613394 
L 432.786818 31.200481 
L 432.930714 31.661405 
L 432.97868 31.448029 
L 433.122576 31.069138 
L 433.314437 31.617442 
L 433.362403 31.515438 
L 433.506299 30.870423 
L 433.554264 30.943706 
L 433.69816 31.489784 
L 433.746126 31.399385 
L 433.937987 30.526985 
L 434.129848 31.060789 
L 434.225779 30.855287 
L 434.32171 30.499983 
L 434.561537 31.478841 
L 434.609502 31.389437 
L 434.657468 31.30816 
L 434.801364 31.488509 
L 435.137121 30.872143 
L 435.376948 31.632436 
L 435.424913 31.582757 
L 435.66474 31.609431 
L 435.712706 31.400779 
L 435.808636 31.448637 
L 436.000498 32.425867 
L 436.048463 32.357746 
L 436.192359 31.948738 
L 436.240325 32.031368 
L 436.432186 32.783947 
L 436.719978 31.599945 
L 437.007771 32.263265 
L 437.199632 31.730384 
L 437.295563 32.023642 
L 437.53539 31.267313 
L 437.63132 31.640939 
L 437.679286 31.429423 
L 437.823182 30.575074 
L 437.871147 30.675206 
L 438.110974 30.974114 
L 438.158939 30.930594 
L 438.302835 31.414266 
L 438.350801 31.223356 
L 438.446732 30.945714 
L 438.494697 31.012151 
L 438.734524 30.905808 
L 438.87842 31.088601 
L 438.926385 30.819922 
L 439.022316 30.861214 
L 439.454004 31.433195 
L 439.549935 30.860456 
L 439.5979 30.934644 
L 439.789762 31.508639 
L 439.885693 31.430402 
L 440.029589 31.207198 
L 440.125519 31.796247 
L 440.173485 31.785364 
L 440.413312 30.963177 
L 440.557208 31.415673 
L 440.701104 30.839395 
L 440.749069 30.861811 
L 440.797035 30.935876 
L 440.892965 31.581776 
L 440.940931 31.483014 
L 441.084827 30.962313 
L 441.324654 31.744379 
L 441.564481 31.486317 
L 441.660411 31.11911 
L 441.708377 31.277161 
L 441.900238 31.875774 
L 441.948203 31.857661 
L 442.044134 31.426006 
L 442.0921 31.448781 
L 442.235996 31.515181 
L 442.379892 32.142768 
L 442.427857 31.993007 
L 442.619719 30.707439 
L 442.763615 31.143667 
L 442.859545 30.943304 
L 442.907511 30.795209 
L 442.955476 30.929017 
L 443.099372 31.301711 
L 443.291234 30.391781 
L 443.339199 30.508576 
L 443.579026 31.023929 
L 443.626991 30.97588 
L 443.722922 30.946179 
L 443.866818 31.16774 
L 444.010714 31.009412 
L 444.05868 30.962683 
L 444.106645 31.134954 
L 444.15461 31.076813 
L 444.298506 30.931336 
L 444.442403 31.224031 
L 444.538333 31.702783 
L 444.586299 31.646709 
L 444.634264 31.64942 
L 444.77816 32.204134 
L 444.826126 32.048794 
L 444.970022 31.867477 
L 445.113918 31.712616 
L 445.161883 31.60196 
L 445.209848 31.716115 
L 445.257814 31.819892 
L 445.305779 31.699483 
L 445.497641 31.058843 
L 445.545606 31.007621 
L 445.641537 31.118832 
L 445.737468 30.903257 
L 445.881364 31.175425 
L 446.073225 31.903902 
L 446.169156 31.757065 
L 446.313052 31.394499 
L 446.361017 31.527514 
L 446.552879 31.753038 
L 446.600844 31.746083 
L 446.64881 32.061888 
L 446.696775 32.026855 
L 446.888636 31.355049 
L 446.984567 31.518219 
L 447.128463 31.215051 
L 447.224394 31.285381 
L 447.272359 31.213564 
L 447.36829 31.498904 
L 447.560152 30.707093 
L 447.752013 31.528038 
L 447.847944 30.958361 
L 447.895909 31.023649 
L 447.943874 30.975626 
L 448.135736 31.688457 
L 448.183701 31.579997 
L 448.279632 31.18677 
L 448.327597 31.33867 
L 448.567424 32.108911 
L 448.61539 32.069604 
L 448.903182 31.44684 
L 448.999113 31.486704 
L 449.095043 31.714878 
L 449.286905 31.037895 
L 449.33487 31.042265 
L 449.526732 31.599087 
L 449.574697 31.498752 
L 449.670628 31.324616 
L 449.718593 31.463984 
L 449.766558 31.268555 
L 450.006385 31.521268 
L 450.054351 31.428007 
L 450.246212 31.052112 
L 450.438074 31.60662 
L 450.534004 31.306387 
L 450.725866 30.789466 
L 450.821797 30.533438 
L 450.869762 30.637356 
L 451.013658 30.993398 
L 451.061623 30.948125 
L 451.157554 30.664562 
L 451.205519 30.756559 
L 451.397381 32.178569 
L 451.493312 31.984063 
L 451.685173 31.018456 
L 451.733139 31.078281 
L 451.925 31.981149 
L 452.164827 30.228433 
L 452.212792 30.252702 
L 452.308723 41.295972 
L 452.596515 121.146069 
L 452.980238 208.816435 
L 453.363961 251.619483 
L 453.747684 272.255863 
L 454.131407 282.209737 
L 454.51513 287.077772 
L 454.898853 289.504146 
L 455.378506 291.099297 
L 455.810195 291.884997 
L 456.385779 292.413745 
L 457.20119 292.802006 
L 460.127078 293.411373 
L 462.621277 293.628302 
L 476.003615 293.635543 
L 490.057468 293.635696 
L 490.057468 293.635696 
" style="fill:none;stroke:#000000;stroke-linecap:square;stroke-width:1.5;"/>
   </g>
   <g id="patch_2">
    <path d="M 64.125 307.2 
L 64.125 10.8 
" style="fill:none;stroke:#000000;stroke-linecap:square;stroke-linejoin:miter;stroke-width:0.8;"/>
   </g>
   <g id="patch_3">
    <path d="M 507.325 307.2 
L 507.325 10.8 
" style="fill:none;stroke:#000000;stroke-linecap:square;stroke-linejoin:miter;stroke-width:0.8;"/>
   </g>
   <g id="patch_4">
    <path d="M 64.125 307.2 
L 507.325 307.2 
" style="fill:none;stroke:#000000;stroke-linecap:square;stroke-linejoin:miter;stroke-width:0.8;"/>
   </g>
   <g id="patch_5">
    <path d="M 64.125 10.8 
L 507.325 10.8 
" style="fill:none;stroke:#000000;stroke-linecap:square;stroke-linejoin:miter;stroke-width:0.8;"/>
   </g>
  </g>
  <g id="axes_2">
   <g id="patch_6">
    <path clip-path="url(#pc0ddc4a667)" d="M 75.636688 91.636364 
L 81.392532 88.268182 
L 81.392532 91.569 
L 110.171753 91.569 
L 110.171753 91.703727 
L 81.392532 91.703727 
L 81.392532 95.004545 
z
" style="fill:#4878cf;stroke:#4878cf;stroke-linejoin:miter;"/>
   </g>
   <g id="patch_7">
    <path clip-path="url(#pc0ddc4a667)" d="M 501.569156 266.781818 
L 495.813312 270.15 
L 495.813312 266.849182 
L 467.034091 266.849182 
L 467.034091 266.714455 
L 495.813312 266.714455 
L 495.813312 263.413636 
z
" style="stroke:#000000;stroke-linejoin:miter;"/>
   </g>
   <g id="matplotlib.axis_2">
    <g id="xtick_1">
     <g id="line2d_7">
      <defs>
       <path d="M 0 0 
L 0 3.5 
" id="mdff3a31d3c" style="stroke:#000000;stroke-width:0.8;"/>
      </defs>
      <g>
       <use style="stroke:#000000;stroke-width:0.8;" x="87.148377" xlink:href="#mdff3a31d3c" y="307.2"/>
      </g>
     </g>
     <g id="text_7">
      <!-- 0 -->
      <g transform="translate(83.012752 324.077969)scale(0.13 -0.13)">
       <use xlink:href="#DejaVuSans-48"/>
      </g>
     </g>
    </g>
    <g id="xtick_2">
     <g id="line2d_8">
      <g>
       <use style="stroke:#000000;stroke-width:0.8;" x="144.706818" xlink:href="#mdff3a31d3c" y="307.2"/>
      </g>
     </g>
     <g id="text_8">
      <!-- 100 -->
      <g transform="translate(132.299943 324.077969)scale(0.13 -0.13)">
       <use xlink:href="#DejaVuSans-49"/>
       <use x="63.623047" xlink:href="#DejaVuSans-48"/>
       <use x="127.246094" xlink:href="#DejaVuSans-48"/>
      </g>
     </g>
    </g>
    <g id="xtick_3">
     <g id="line2d_9">
      <g>
       <use style="stroke:#000000;stroke-width:0.8;" x="202.26526" xlink:href="#mdff3a31d3c" y="307.2"/>
      </g>
     </g>
     <g id="text_9">
      <!-- 200 -->
      <g transform="translate(189.858385 324.077969)scale(0.13 -0.13)">
       <use xlink:href="#DejaVuSans-50"/>
       <use x="63.623047" xlink:href="#DejaVuSans-48"/>
       <use x="127.246094" xlink:href="#DejaVuSans-48"/>
      </g>
     </g>
    </g>
    <g id="xtick_4">
     <g id="line2d_10">
      <g>
       <use style="stroke:#000000;stroke-width:0.8;" x="259.823701" xlink:href="#mdff3a31d3c" y="307.2"/>
      </g>
     </g>
     <g id="text_10">
      <!-- 300 -->
      <g transform="translate(247.416826 324.077969)scale(0.13 -0.13)">
       <defs>
        <path d="M 40.578125 39.3125 
Q 47.65625 37.796875 51.625 33 
Q 55.609375 28.21875 55.609375 21.1875 
Q 55.609375 10.40625 48.1875 4.484375 
Q 40.765625 -1.421875 27.09375 -1.421875 
Q 22.515625 -1.421875 17.65625 -0.515625 
Q 12.796875 0.390625 7.625 2.203125 
L 7.625 11.71875 
Q 11.71875 9.328125 16.59375 8.109375 
Q 21.484375 6.890625 26.8125 6.890625 
Q 36.078125 6.890625 40.9375 10.546875 
Q 45.796875 14.203125 45.796875 21.1875 
Q 45.796875 27.640625 41.28125 31.265625 
Q 36.765625 34.90625 28.71875 34.90625 
L 20.21875 34.90625 
L 20.21875 43.015625 
L 29.109375 43.015625 
Q 36.375 43.015625 40.234375 45.921875 
Q 44.09375 48.828125 44.09375 54.296875 
Q 44.09375 59.90625 40.109375 62.90625 
Q 36.140625 65.921875 28.71875 65.921875 
Q 24.65625 65.921875 20.015625 65.03125 
Q 15.375 64.15625 9.8125 62.3125 
L 9.8125 71.09375 
Q 15.4375 72.65625 20.34375 73.4375 
Q 25.25 74.21875 29.59375 74.21875 
Q 40.828125 74.21875 47.359375 69.109375 
Q 53.90625 64.015625 53.90625 55.328125 
Q 53.90625 49.265625 50.4375 45.09375 
Q 46.96875 40.921875 40.578125 39.3125 
z
" id="DejaVuSans-51"/>
       </defs>
       <use xlink:href="#DejaVuSans-51"/>
       <use x="63.623047" xlink:href="#DejaVuSans-48"/>
       <use x="127.246094" xlink:href="#DejaVuSans-48"/>
      </g>
     </g>
    </g>
    <g id="xtick_5">
     <g id="line2d_11">
      <g>
       <use style="stroke:#000000;stroke-width:0.8;" x="317.382143" xlink:href="#mdff3a31d3c" y="307.2"/>
      </g>
     </g>
     <g id="text_11">
      <!-- 400 -->
      <g transform="translate(304.975268 324.077969)scale(0.13 -0.13)">
       <defs>
        <path d="M 37.796875 64.3125 
L 12.890625 25.390625 
L 37.796875 25.390625 
z
M 35.203125 72.90625 
L 47.609375 72.90625 
L 47.609375 25.390625 
L 58.015625 25.390625 
L 58.015625 17.1875 
L 47.609375 17.1875 
L 47.609375 0 
L 37.796875 0 
L 37.796875 17.1875 
L 4.890625 17.1875 
L 4.890625 26.703125 
z
" id="DejaVuSans-52"/>
       </defs>
       <use xlink:href="#DejaVuSans-52"/>
       <use x="63.623047" xlink:href="#DejaVuSans-48"/>
       <use x="127.246094" xlink:href="#DejaVuSans-48"/>
      </g>
     </g>
    </g>
    <g id="xtick_6">
     <g id="line2d_12">
      <g>
       <use style="stroke:#000000;stroke-width:0.8;" x="374.940584" xlink:href="#mdff3a31d3c" y="307.2"/>
      </g>
     </g>
     <g id="text_12">
      <!-- 500 -->
      <g transform="translate(362.533709 324.077969)scale(0.13 -0.13)">
       <use xlink:href="#DejaVuSans-53"/>
       <use x="63.623047" xlink:href="#DejaVuSans-48"/>
       <use x="127.246094" xlink:href="#DejaVuSans-48"/>
      </g>
     </g>
    </g>
    <g id="xtick_7">
     <g id="line2d_13">
      <g>
       <use style="stroke:#000000;stroke-width:0.8;" x="432.499026" xlink:href="#mdff3a31d3c" y="307.2"/>
      </g>
     </g>
     <g id="text_13">
      <!-- 600 -->
      <g transform="translate(420.092151 324.077969)scale(0.13 -0.13)">
       <defs>
        <path d="M 33.015625 40.375 
Q 26.375 40.375 22.484375 35.828125 
Q 18.609375 31.296875 18.609375 23.390625 
Q 18.609375 15.53125 22.484375 10.953125 
Q 26.375 6.390625 33.015625 6.390625 
Q 39.65625 6.390625 43.53125 10.953125 
Q 47.40625 15.53125 47.40625 23.390625 
Q 47.40625 31.296875 43.53125 35.828125 
Q 39.65625 40.375 33.015625 40.375 
z
M 52.59375 71.296875 
L 52.59375 62.3125 
Q 48.875 64.0625 45.09375 64.984375 
Q 41.3125 65.921875 37.59375 65.921875 
Q 27.828125 65.921875 22.671875 59.328125 
Q 17.53125 52.734375 16.796875 39.40625 
Q 19.671875 43.65625 24.015625 45.921875 
Q 28.375 48.1875 33.59375 48.1875 
Q 44.578125 48.1875 50.953125 41.515625 
Q 57.328125 34.859375 57.328125 23.390625 
Q 57.328125 12.15625 50.6875 5.359375 
Q 44.046875 -1.421875 33.015625 -1.421875 
Q 20.359375 -1.421875 13.671875 8.265625 
Q 6.984375 17.96875 6.984375 36.375 
Q 6.984375 53.65625 15.1875 63.9375 
Q 23.390625 74.21875 37.203125 74.21875 
Q 40.921875 74.21875 44.703125 73.484375 
Q 48.484375 72.75 52.59375 71.296875 
z
" id="DejaVuSans-54"/>
       </defs>
       <use xlink:href="#DejaVuSans-54"/>
       <use x="63.623047" xlink:href="#DejaVuSans-48"/>
       <use x="127.246094" xlink:href="#DejaVuSans-48"/>
      </g>
     </g>
    </g>
    <g id="xtick_8">
     <g id="line2d_14">
      <g>
       <use style="stroke:#000000;stroke-width:0.8;" x="490.057468" xlink:href="#mdff3a31d3c" y="307.2"/>
      </g>
     </g>
     <g id="text_14">
      <!-- 700 -->
      <g transform="translate(477.650593 324.077969)scale(0.13 -0.13)">
       <use xlink:href="#DejaVuSans-55"/>
       <use x="63.623047" xlink:href="#DejaVuSans-48"/>
       <use x="127.246094" xlink:href="#DejaVuSans-48"/>
      </g>
     </g>
    </g>
    <g id="text_15">
     <!-- Time ($min$) -->
     <g transform="translate(244.7 342.179219)scale(0.15 -0.15)">
      <defs>
       <path d="M -0.296875 72.90625 
L 61.375 72.90625 
L 61.375 64.59375 
L 35.5 64.59375 
L 35.5 0 
L 25.59375 0 
L 25.59375 64.59375 
L -0.296875 64.59375 
z
" id="DejaVuSans-84"/>
       <path d="M 9.421875 54.6875 
L 18.40625 54.6875 
L 18.40625 0 
L 9.421875 0 
z
M 9.421875 75.984375 
L 18.40625 75.984375 
L 18.40625 64.59375 
L 9.421875 64.59375 
z
" id="DejaVuSans-105"/>
       <path d="M 52 44.1875 
Q 55.375 50.25 60.0625 53.125 
Q 64.75 56 71.09375 56 
Q 79.640625 56 84.28125 50.015625 
Q 88.921875 44.046875 88.921875 33.015625 
L 88.921875 0 
L 79.890625 0 
L 79.890625 32.71875 
Q 79.890625 40.578125 77.09375 44.375 
Q 74.3125 48.1875 68.609375 48.1875 
Q 61.625 48.1875 57.5625 43.546875 
Q 53.515625 38.921875 53.515625 30.90625 
L 53.515625 0 
L 44.484375 0 
L 44.484375 32.71875 
Q 44.484375 40.625 41.703125 44.40625 
Q 38.921875 48.1875 33.109375 48.1875 
Q 26.21875 48.1875 22.15625 43.53125 
Q 18.109375 38.875 18.109375 30.90625 
L 18.109375 0 
L 9.078125 0 
L 9.078125 54.6875 
L 18.109375 54.6875 
L 18.109375 46.1875 
Q 21.1875 51.21875 25.484375 53.609375 
Q 29.78125 56 35.6875 56 
Q 41.65625 56 45.828125 52.96875 
Q 50 49.953125 52 44.1875 
z
" id="DejaVuSans-109"/>
       <path d="M 89.796875 33.015625 
L 83.40625 0 
L 74.421875 0 
L 80.71875 32.71875 
Q 81.109375 34.8125 81.296875 36.328125 
Q 81.5 37.84375 81.5 38.921875 
Q 81.5 43.3125 79.046875 45.75 
Q 76.609375 48.1875 72.21875 48.1875 
Q 65.671875 48.1875 60.546875 43.28125 
Q 55.421875 38.375 53.90625 30.515625 
L 47.90625 0 
L 38.921875 0 
L 45.3125 32.71875 
Q 45.703125 34.515625 45.890625 36.046875 
Q 46.09375 37.59375 46.09375 38.8125 
Q 46.09375 43.265625 43.65625 45.71875 
Q 41.21875 48.1875 36.921875 48.1875 
Q 30.28125 48.1875 25.140625 43.28125 
Q 20.015625 38.375 18.5 30.515625 
L 12.5 0 
L 3.515625 0 
L 14.203125 54.6875 
L 23.1875 54.6875 
L 21.484375 46.1875 
Q 25.140625 50.984375 30.046875 53.484375 
Q 34.96875 56 40.578125 56 
Q 46.53125 56 50.359375 52.875 
Q 54.203125 49.75 54.984375 44.1875 
Q 59.078125 49.953125 64.46875 52.96875 
Q 69.875 56 75.875 56 
Q 82.90625 56 86.734375 51.953125 
Q 90.578125 47.90625 90.578125 40.484375 
Q 90.578125 38.875 90.375 36.9375 
Q 90.1875 35.015625 89.796875 33.015625 
z
" id="DejaVuSans-Oblique-109"/>
       <path d="M 18.3125 75.984375 
L 27.296875 75.984375 
L 25.09375 64.59375 
L 16.109375 64.59375 
z
M 14.203125 54.6875 
L 23.1875 54.6875 
L 12.5 0 
L 3.515625 0 
z
" id="DejaVuSans-Oblique-105"/>
       <path d="M 55.71875 33.015625 
L 49.3125 0 
L 40.28125 0 
L 46.6875 32.671875 
Q 47.125 34.96875 47.359375 36.71875 
Q 47.609375 38.484375 47.609375 39.5 
Q 47.609375 43.609375 45.015625 45.890625 
Q 42.4375 48.1875 37.796875 48.1875 
Q 30.5625 48.1875 25.34375 43.375 
Q 20.125 38.578125 18.5 30.328125 
L 12.5 0 
L 3.515625 0 
L 14.109375 54.6875 
L 23.09375 54.6875 
L 21.296875 46.09375 
Q 25.046875 50.828125 30.3125 53.40625 
Q 35.59375 56 41.40625 56 
Q 48.640625 56 52.609375 52.09375 
Q 56.59375 48.1875 56.59375 41.109375 
Q 56.59375 39.359375 56.375 37.359375 
Q 56.15625 35.359375 55.71875 33.015625 
z
" id="DejaVuSans-Oblique-110"/>
      </defs>
      <use transform="translate(0 0.015625)" xlink:href="#DejaVuSans-84"/>
      <use transform="translate(61.083984 0.015625)" xlink:href="#DejaVuSans-105"/>
      <use transform="translate(88.867188 0.015625)" xlink:href="#DejaVuSans-109"/>
      <use transform="translate(186.279297 0.015625)" xlink:href="#DejaVuSans-101"/>
      <use transform="translate(247.802734 0.015625)" xlink:href="#DejaVuSans-32"/>
      <use transform="translate(279.589844 0.015625)" xlink:href="#DejaVuSans-40"/>
      <use transform="translate(318.603516 0.015625)" xlink:href="#DejaVuSans-Oblique-109"/>
      <use transform="translate(416.015625 0.015625)" xlink:href="#DejaVuSans-Oblique-105"/>
      <use transform="translate(443.798828 0.015625)" xlink:href="#DejaVuSans-Oblique-110"/>
      <use transform="translate(507.177734 0.015625)" xlink:href="#DejaVuSans-41"/>
     </g>
    </g>
   </g>
   <g id="matplotlib.axis_3">
    <g id="ytick_6">
     <g id="line2d_15">
      <defs>
       <path d="M 0 0 
L -3.5 0 
" id="m90976d8b0c" style="stroke:#000000;stroke-width:0.8;"/>
      </defs>
      <g>
       <use style="stroke:#000000;stroke-width:0.8;" x="64.125" xlink:href="#m90976d8b0c" y="293.727273"/>
      </g>
     </g>
     <g id="text_16">
      <!-- 0.0 -->
      <g transform="translate(36.450938 298.666257)scale(0.13 -0.13)">
       <use xlink:href="#DejaVuSans-48"/>
       <use x="63.623047" xlink:href="#DejaVuSans-46"/>
       <use x="95.410156" xlink:href="#DejaVuSans-48"/>
      </g>
     </g>
    </g>
    <g id="ytick_7">
     <g id="line2d_16">
      <g>
       <use style="stroke:#000000;stroke-width:0.8;" x="64.125" xlink:href="#m90976d8b0c" y="226.363636"/>
      </g>
     </g>
     <g id="text_17">
      <!-- 0.5 -->
      <g transform="translate(36.450938 231.302621)scale(0.13 -0.13)">
       <use xlink:href="#DejaVuSans-48"/>
       <use x="63.623047" xlink:href="#DejaVuSans-46"/>
       <use x="95.410156" xlink:href="#DejaVuSans-53"/>
      </g>
     </g>
    </g>
    <g id="ytick_8">
     <g id="line2d_17">
      <g>
       <use style="stroke:#000000;stroke-width:0.8;" x="64.125" xlink:href="#m90976d8b0c" y="159"/>
      </g>
     </g>
     <g id="text_18">
      <!-- 1.0 -->
      <g transform="translate(36.450938 163.938984)scale(0.13 -0.13)">
       <use xlink:href="#DejaVuSans-49"/>
       <use x="63.623047" xlink:href="#DejaVuSans-46"/>
       <use x="95.410156" xlink:href="#DejaVuSans-48"/>
      </g>
     </g>
    </g>
    <g id="ytick_9">
     <g id="line2d_18">
      <g>
       <use style="stroke:#000000;stroke-width:0.8;" x="64.125" xlink:href="#m90976d8b0c" y="91.636364"/>
      </g>
     </g>
     <g id="text_19">
      <!-- 1.5 -->
      <g transform="translate(36.450938 96.575348)scale(0.13 -0.13)">
       <use xlink:href="#DejaVuSans-49"/>
       <use x="63.623047" xlink:href="#DejaVuSans-46"/>
       <use x="95.410156" xlink:href="#DejaVuSans-53"/>
      </g>
     </g>
    </g>
    <g id="ytick_10">
     <g id="line2d_19">
      <g>
       <use style="stroke:#000000;stroke-width:0.8;" x="64.125" xlink:href="#m90976d8b0c" y="24.272727"/>
      </g>
     </g>
     <g id="text_20">
      <!-- 2.0 -->
      <g transform="translate(36.450938 29.211712)scale(0.13 -0.13)">
       <use xlink:href="#DejaVuSans-50"/>
       <use x="63.623047" xlink:href="#DejaVuSans-46"/>
       <use x="95.410156" xlink:href="#DejaVuSans-48"/>
      </g>
     </g>
    </g>
    <g id="text_21">
     <!-- Loading ($g\ g^{-1}$) -->
     <g transform="translate(29.300938 217.275)rotate(-90)scale(0.15 -0.15)">
      <defs>
       <path d="M 9.8125 72.90625 
L 19.671875 72.90625 
L 19.671875 8.296875 
L 55.171875 8.296875 
L 55.171875 0 
L 9.8125 0 
z
" id="DejaVuSans-76"/>
       <path d="M 30.609375 48.390625 
Q 23.390625 48.390625 19.1875 42.75 
Q 14.984375 37.109375 14.984375 27.296875 
Q 14.984375 17.484375 19.15625 11.84375 
Q 23.34375 6.203125 30.609375 6.203125 
Q 37.796875 6.203125 41.984375 11.859375 
Q 46.1875 17.53125 46.1875 27.296875 
Q 46.1875 37.015625 41.984375 42.703125 
Q 37.796875 48.390625 30.609375 48.390625 
z
M 30.609375 56 
Q 42.328125 56 49.015625 48.375 
Q 55.71875 40.765625 55.71875 27.296875 
Q 55.71875 13.875 49.015625 6.21875 
Q 42.328125 -1.421875 30.609375 -1.421875 
Q 18.84375 -1.421875 12.171875 6.21875 
Q 5.515625 13.875 5.515625 27.296875 
Q 5.515625 40.765625 12.171875 48.375 
Q 18.84375 56 30.609375 56 
z
" id="DejaVuSans-111"/>
       <path d="M 34.28125 27.484375 
Q 23.390625 27.484375 19.1875 25 
Q 14.984375 22.515625 14.984375 16.5 
Q 14.984375 11.71875 18.140625 8.90625 
Q 21.296875 6.109375 26.703125 6.109375 
Q 34.1875 6.109375 38.703125 11.40625 
Q 43.21875 16.703125 43.21875 25.484375 
L 43.21875 27.484375 
z
M 52.203125 31.203125 
L 52.203125 0 
L 43.21875 0 
L 43.21875 8.296875 
Q 40.140625 3.328125 35.546875 0.953125 
Q 30.953125 -1.421875 24.3125 -1.421875 
Q 15.921875 -1.421875 10.953125 3.296875 
Q 6 8.015625 6 15.921875 
Q 6 25.140625 12.171875 29.828125 
Q 18.359375 34.515625 30.609375 34.515625 
L 43.21875 34.515625 
L 43.21875 35.40625 
Q 43.21875 41.609375 39.140625 45 
Q 35.0625 48.390625 27.6875 48.390625 
Q 23 48.390625 18.546875 47.265625 
Q 14.109375 46.140625 10.015625 43.890625 
L 10.015625 52.203125 
Q 14.9375 54.109375 19.578125 55.046875 
Q 24.21875 56 28.609375 56 
Q 40.484375 56 46.34375 49.84375 
Q 52.203125 43.703125 52.203125 31.203125 
z
" id="DejaVuSans-97"/>
       <path d="M 45.40625 46.390625 
L 45.40625 75.984375 
L 54.390625 75.984375 
L 54.390625 0 
L 45.40625 0 
L 45.40625 8.203125 
Q 42.578125 3.328125 38.25 0.953125 
Q 33.9375 -1.421875 27.875 -1.421875 
Q 17.96875 -1.421875 11.734375 6.484375 
Q 5.515625 14.40625 5.515625 27.296875 
Q 5.515625 40.1875 11.734375 48.09375 
Q 17.96875 56 27.875 56 
Q 33.9375 56 38.25 53.625 
Q 42.578125 51.265625 45.40625 46.390625 
z
M 14.796875 27.296875 
Q 14.796875 17.390625 18.875 11.75 
Q 22.953125 6.109375 30.078125 6.109375 
Q 37.203125 6.109375 41.296875 11.75 
Q 45.40625 17.390625 45.40625 27.296875 
Q 45.40625 37.203125 41.296875 42.84375 
Q 37.203125 48.484375 30.078125 48.484375 
Q 22.953125 48.484375 18.875 42.84375 
Q 14.796875 37.203125 14.796875 27.296875 
z
" id="DejaVuSans-100"/>
       <path d="M 54.890625 33.015625 
L 54.890625 0 
L 45.90625 0 
L 45.90625 32.71875 
Q 45.90625 40.484375 42.875 44.328125 
Q 39.84375 48.1875 33.796875 48.1875 
Q 26.515625 48.1875 22.3125 43.546875 
Q 18.109375 38.921875 18.109375 30.90625 
L 18.109375 0 
L 9.078125 0 
L 9.078125 54.6875 
L 18.109375 54.6875 
L 18.109375 46.1875 
Q 21.34375 51.125 25.703125 53.5625 
Q 30.078125 56 35.796875 56 
Q 45.21875 56 50.046875 50.171875 
Q 54.890625 44.34375 54.890625 33.015625 
z
" id="DejaVuSans-110"/>
       <path d="M 45.40625 27.984375 
Q 45.40625 37.75 41.375 43.109375 
Q 37.359375 48.484375 30.078125 48.484375 
Q 22.859375 48.484375 18.828125 43.109375 
Q 14.796875 37.75 14.796875 27.984375 
Q 14.796875 18.265625 18.828125 12.890625 
Q 22.859375 7.515625 30.078125 7.515625 
Q 37.359375 7.515625 41.375 12.890625 
Q 45.40625 18.265625 45.40625 27.984375 
z
M 54.390625 6.78125 
Q 54.390625 -7.171875 48.1875 -13.984375 
Q 42 -20.796875 29.203125 -20.796875 
Q 24.46875 -20.796875 20.265625 -20.09375 
Q 16.0625 -19.390625 12.109375 -17.921875 
L 12.109375 -9.1875 
Q 16.0625 -11.328125 19.921875 -12.34375 
Q 23.78125 -13.375 27.78125 -13.375 
Q 36.625 -13.375 41.015625 -8.765625 
Q 45.40625 -4.15625 45.40625 5.171875 
L 45.40625 9.625 
Q 42.625 4.78125 38.28125 2.390625 
Q 33.9375 0 27.875 0 
Q 17.828125 0 11.671875 7.65625 
Q 5.515625 15.328125 5.515625 27.984375 
Q 5.515625 40.671875 11.671875 48.328125 
Q 17.828125 56 27.875 56 
Q 33.9375 56 38.28125 53.609375 
Q 42.625 51.21875 45.40625 46.390625 
L 45.40625 54.6875 
L 54.390625 54.6875 
z
" id="DejaVuSans-103"/>
       <path d="M 59.625 54.6875 
L 50.296875 6.78125 
Q 47.609375 -7.125 40.015625 -13.953125 
Q 32.421875 -20.796875 19.578125 -20.796875 
Q 14.84375 -20.796875 10.78125 -20.09375 
Q 6.734375 -19.390625 3.21875 -17.921875 
L 4.890625 -9.1875 
Q 8.203125 -11.328125 11.90625 -12.34375 
Q 15.625 -13.375 19.828125 -13.375 
Q 28.375 -13.375 33.859375 -8.703125 
Q 39.359375 -4.046875 41.109375 4.6875 
L 41.890625 8.796875 
Q 38.140625 4.5 33.15625 2.25 
Q 28.171875 0 22.40625 0 
Q 14.109375 0 9.34375 5.484375 
Q 4.59375 10.984375 4.59375 20.609375 
Q 4.59375 28.171875 7.46875 35.421875 
Q 10.359375 42.671875 15.578125 48.296875 
Q 19.046875 52 23.65625 54 
Q 28.265625 56 33.296875 56 
Q 38.8125 56 42.90625 53.4375 
Q 47.015625 50.875 49.03125 46.1875 
L 50.59375 54.6875 
z
M 46.09375 34.625 
Q 46.09375 41.265625 42.96875 44.875 
Q 39.84375 48.484375 34.078125 48.484375 
Q 30.515625 48.484375 27.296875 47.0625 
Q 24.078125 45.65625 21.78125 43.109375 
Q 18.0625 38.921875 15.984375 33.234375 
Q 13.921875 27.546875 13.921875 21.484375 
Q 13.921875 14.75 17.0625 11.125 
Q 20.21875 7.515625 26.125 7.515625 
Q 34.671875 7.515625 40.375 15.25 
Q 46.09375 23 46.09375 34.625 
z
" id="DejaVuSans-Oblique-103"/>
       <path d="M 10.59375 35.5 
L 73.1875 35.5 
L 73.1875 27.203125 
L 10.59375 27.203125 
z
" id="DejaVuSans-8722"/>
      </defs>
      <use transform="translate(0 0.684375)" xlink:href="#DejaVuSans-76"/>
      <use transform="translate(55.712891 0.684375)" xlink:href="#DejaVuSans-111"/>
      <use transform="translate(116.894531 0.684375)" xlink:href="#DejaVuSans-97"/>
      <use transform="translate(178.173828 0.684375)" xlink:href="#DejaVuSans-100"/>
      <use transform="translate(241.650391 0.684375)" xlink:href="#DejaVuSans-105"/>
      <use transform="translate(269.433594 0.684375)" xlink:href="#DejaVuSans-110"/>
      <use transform="translate(332.8125 0.684375)" xlink:href="#DejaVuSans-103"/>
      <use transform="translate(396.289062 0.684375)" xlink:href="#DejaVuSans-32"/>
      <use transform="translate(428.076172 0.684375)" xlink:href="#DejaVuSans-40"/>
      <use transform="translate(467.089844 0.684375)" xlink:href="#DejaVuSans-Oblique-103"/>
      <use transform="translate(563.036785 0.684375)" xlink:href="#DejaVuSans-Oblique-103"/>
      <use transform="translate(631.163243 38.965625)scale(0.7)" xlink:href="#DejaVuSans-8722"/>
      <use transform="translate(689.815587 38.965625)scale(0.7)" xlink:href="#DejaVuSans-49"/>
      <use transform="translate(737.086095 0.684375)" xlink:href="#DejaVuSans-41"/>
     </g>
    </g>
   </g>
   <g id="patch_8">
    <path d="M 64.125 307.2 
L 64.125 10.8 
" style="fill:none;stroke:#000000;stroke-linecap:square;stroke-linejoin:miter;stroke-width:0.8;"/>
   </g>
   <g id="patch_9">
    <path d="M 507.325 307.2 
L 507.325 10.8 
" style="fill:none;stroke:#000000;stroke-linecap:square;stroke-linejoin:miter;stroke-width:0.8;"/>
   </g>
   <g id="patch_10">
    <path d="M 64.125 307.2 
L 507.325 307.2 
" style="fill:none;stroke:#000000;stroke-linecap:square;stroke-linejoin:miter;stroke-width:0.8;"/>
   </g>
   <g id="patch_11">
    <path d="M 64.125 10.8 
L 507.325 10.8 
" style="fill:none;stroke:#000000;stroke-linecap:square;stroke-linejoin:miter;stroke-width:0.8;"/>
   </g>
   <g id="line2d_20">
    <path clip-path="url(#pc0ddc4a667)" d="M 87.148377 287.103226 
L 88.347511 287.456631 
L 91.609156 288.039664 
L 94.007424 288.271852 
L 97.412965 288.405873 
L 104.703701 288.443433 
L 104.895563 285.573512 
L 105.519113 267.585717 
L 105.758939 256.18969 
L 106.094697 242.37617 
L 106.334524 237.387527 
L 108.876688 181.740772 
L 109.931926 162.469964 
L 112.953745 119.686634 
L 114.536602 103.303672 
L 117.318593 81.996944 
L 118.469762 75.22079 
L 120.004654 67.81636 
L 122.73868 58.000412 
L 125.32881 52.042894 
L 126.096255 50.895608 
L 127.055563 49.799541 
L 128.974177 48.360313 
L 131.8521 47.044007 
L 134.346299 46.357685 
L 136.744567 45.956477 
L 138.759113 45.77892 
L 139.478593 45.746482 
L 147.968463 45.790871 
L 148.064394 47.066202 
L 148.20829 53.675044 
L 148.544048 86.488771 
L 148.975736 121.069522 
L 149.503355 149.432397 
L 150.126905 174.315856 
L 151.182143 204.90501 
L 151.997554 222.605984 
L 153.148723 241.254493 
L 154.0121 251.76274 
L 154.971407 260.655908 
L 155.690887 265.816132 
L 156.794091 271.503901 
L 157.417641 273.7464 
L 158.424913 276.236453 
L 159.096429 277.405933 
L 159.863874 278.404686 
L 160.679286 279.220761 
L 162.070281 280.269025 
L 163.077554 280.856326 
L 164.228723 281.390701 
L 165.907511 281.934467 
L 168.40171 282.399698 
L 171.327597 282.707006 
L 174.589242 282.828222 
L 178.13868 282.843588 
L 181.400325 282.940902 
L 181.496255 282.894806 
L 181.592186 282.223849 
L 181.784048 278.256154 
L 182.407597 256.128229 
L 182.79132 239.979163 
L 183.079113 233.957622 
L 184.997727 191.193926 
L 185.861104 174.384146 
L 187.204134 151.467463 
L 189.554437 119.507371 
L 190.705606 107.201369 
L 192.288463 93.300778 
L 193.535563 84.233467 
L 195.262316 74.081187 
L 197.180931 65.303259 
L 198.907684 59.213427 
L 200.346645 55.295243 
L 201.353918 53.063841 
L 202.169329 51.62632 
L 203.416429 49.985633 
L 204.615563 48.945906 
L 206.294351 47.912154 
L 209.220238 46.782795 
L 212.961537 46.028182 
L 216.846732 45.722581 
L 218.477554 45.731117 
L 219.964481 45.707215 
L 221.403442 45.698679 
L 223.082229 45.690142 
L 223.993571 45.76697 
L 224.089502 46.705968 
L 224.233398 52.558489 
L 224.473225 75.060306 
L 225.000844 119.643952 
L 225.528463 148.589006 
L 226.343874 180.181181 
L 227.303182 206.672035 
L 228.118593 223.988873 
L 229.317727 242.977129 
L 230.372965 254.980943 
L 231.524134 264.393122 
L 232.195649 268.447888 
L 232.91513 271.783894 
L 233.778506 274.614547 
L 234.689848 276.620589 
L 235.361364 277.687633 
L 236.12881 278.616388 
L 237.423874 279.760258 
L 238.910801 280.714622 
L 240.541623 281.460699 
L 242.364307 281.995075 
L 244.906472 282.428721 
L 249.079459 282.765053 
L 253.444307 282.809442 
L 257.377468 282.908464 
L 257.473398 282.840173 
L 257.617294 281.429968 
L 257.857121 275.241115 
L 258.38474 255.665559 
L 258.720498 240.711582 
L 259.296082 228.040225 
L 260.35132 203.438465 
L 262.413831 163.365427 
L 263.565 144.868011 
L 264.524307 131.535087 
L 265.387684 120.938063 
L 267.114437 102.92978 
L 268.217641 93.421994 
L 269.800498 82.14633 
L 271.767078 71.217242 
L 273.30197 64.611815 
L 274.740931 59.54293 
L 275.700238 56.734471 
L 277.283095 53.01433 
L 278.386299 51.153406 
L 279.297641 49.999292 
L 280.54474 48.910053 
L 282.319459 47.832766 
L 285.149416 46.743528 
L 287.355823 46.22964 
L 288.506991 46.038425 
L 290.377641 45.818188 
L 294.83842 45.688435 
L 296.469242 45.695264 
L 299.922749 45.681606 
L 300.01868 45.749897 
L 300.11461 46.649628 
L 300.258506 52.321179 
L 300.546299 79.186778 
L 300.977987 116.354043 
L 301.505606 145.990541 
L 302.08119 169.900856 
L 302.800671 192.94217 
L 303.664048 214.115731 
L 304.719286 233.740799 
L 305.534697 245.278529 
L 306.733831 257.986592 
L 307.789069 265.863082 
L 308.50855 269.825655 
L 309.371926 273.276047 
L 310.235303 275.606471 
L 311.242576 277.443493 
L 312.969329 279.338563 
L 315.079805 280.748768 
L 316.614697 281.443627 
L 318.389416 281.962637 
L 321.507165 282.462867 
L 324.24119 282.695055 
L 329.709242 282.778712 
L 333.546472 282.879441 
L 333.642403 282.795784 
L 333.786299 281.440212 
L 334.026126 275.287211 
L 334.553745 255.776531 
L 334.889502 240.51866 
L 335.465087 227.852425 
L 336.424394 205.560602 
L 337.431667 184.702886 
L 339.446212 149.293255 
L 341.556688 120.362713 
L 343.139545 103.759513 
L 344.866299 89.415031 
L 345.729675 83.514707 
L 346.784913 77.069763 
L 348.319805 69.262418 
L 349.039286 66.109944 
L 349.662835 63.631842 
L 350.909935 59.391837 
L 352.396861 55.293536 
L 353.595996 52.696778 
L 354.699199 50.955363 
L 356.809675 48.848592 
L 358.296602 47.924959 
L 360.215216 47.088396 
L 362.325693 46.454146 
L 364.723961 46.009402 
L 367.553918 45.717459 
L 369.040844 45.669655 
L 372.110628 45.662826 
L 372.734177 45.655997 
L 376.283615 45.702093 
L 376.33158 45.879649 
L 376.475476 49.3437 
L 376.667338 63.499528 
L 377.146991 109.101561 
L 377.770541 145.736158 
L 378.346126 169.82915 
L 379.305433 199.241996 
L 380.936255 232.774484 
L 382.039459 248.049428 
L 383.094697 258.677183 
L 383.862143 264.550191 
L 384.533658 268.548617 
L 385.492965 272.721185 
L 386.356342 275.215506 
L 387.363615 277.168623 
L 388.898506 278.983451 
L 389.761883 279.697943 
L 391.34474 280.694135 
L 392.687771 281.317289 
L 394.750281 281.93532 
L 397.196515 282.34848 
L 401.369502 282.684812 
L 404.151494 282.724079 
L 409.763442 282.797492 
L 409.859372 282.817979 
L 409.955303 282.298969 
L 410.147165 278.681264 
L 410.674784 261.821974 
L 411.346299 236.17878 
L 413.888463 180.446662 
L 414.895736 162.173752 
L 415.855043 146.664059 
L 418.828896 109.482282 
L 420.699545 92.774939 
L 421.754784 84.996617 
L 423.289675 75.727849 
L 424.680671 68.801455 
L 425.592013 64.907172 
L 427.654524 57.891147 
L 429.237381 53.844063 
L 430.580411 51.416326 
L 431.875476 49.802956 
L 432.786818 48.978344 
L 435.56881 47.416192 
L 439.837727 46.160495 
L 442.044134 45.840382 
L 445.593571 45.633803 
L 452.260758 45.630388 
L 452.356688 46.239883 
L 452.500584 51.027068 
L 452.740411 74.42008 
L 453.315996 125.904511 
L 454.035476 163.169091 
L 454.898853 193.502155 
L 455.570368 211.33971 
L 457.393052 244.604157 
L 458.112532 253.68854 
L 459.167771 264.060205 
L 460.175043 271.283663 
L 461.518074 277.699584 
L 462.429416 280.364632 
L 463.100931 281.764593 
L 463.772446 282.841881 
L 464.539892 283.784294 
L 466.074784 285.160353 
L 467.177987 285.885089 
L 468.377121 286.505682 
L 469.52829 286.96323 
L 471.542835 287.492484 
L 473.077727 287.76394 
L 476.291407 288.112223 
L 479.792879 288.250512 
L 484.301623 288.300022 
L 490.057468 288.325631 
L 490.057468 288.325631 
" style="fill:none;stroke:#4878cf;stroke-linecap:square;stroke-width:2;"/>
   </g>
  </g>
 </g>
 <defs>
  <clipPath id="pc0ddc4a667">
   <rect height="296.4" width="443.2" x="64.125" y="10.8"/>
  </clipPath>
 </defs>
</svg>
