<?xml version="1.0" encoding="utf-8" standalone="no"?>
<!DOCTYPE svg PUBLIC "-//W3C//DTD SVG 1.1//EN"
  "http://www.w3.org/Graphics/SVG/1.1/DTD/svg11.dtd">
<!-- Created with matplotlib (https://matplotlib.org/) -->
<svg height="288pt" version="1.1" viewBox="0 0 432 288" width="432pt" xmlns="http://www.w3.org/2000/svg" xmlns:xlink="http://www.w3.org/1999/xlink">
 <metadata>
  <rdf:RDF xmlns:cc="http://creativecommons.org/ns#" xmlns:dc="http://purl.org/dc/elements/1.1/" xmlns:rdf="http://www.w3.org/1999/02/22-rdf-syntax-ns#">
   <cc:Work>
    <dc:type rdf:resource="http://purl.org/dc/dcmitype/StillImage"/>
    <dc:date>2021-05-21T13:23:40.256932</dc:date>
    <dc:format>image/svg+xml</dc:format>
    <dc:creator>
     <cc:Agent>
      <dc:title>Matplotlib v3.3.4, https://matplotlib.org/</dc:title>
     </cc:Agent>
    </dc:creator>
   </cc:Work>
  </rdf:RDF>
 </metadata>
 <defs>
  <style type="text/css">*{stroke-linecap:butt;stroke-linejoin:round;}</style>
 </defs>
 <g id="figure_1">
  <g id="patch_1">
   <path d="M 0 288 
L 432 288 
L 432 0 
L 0 0 
z
" style="fill:none;"/>
  </g>
  <g id="axes_1">
   <g id="patch_2">
    <path d="M 60 231.5 
L 421.2 231.5 
L 421.2 13.465426 
L 60 13.465426 
z
" style="fill:#ffffff;"/>
   </g>
   <g id="matplotlib.axis_1">
    <g id="xtick_1">
     <g id="line2d_1">
      <defs>
       <path d="M 0 0 
L 0 3.5 
" id="m378138ba4b" style="stroke:#000000;stroke-width:0.8;"/>
      </defs>
      <g>
       <use style="stroke:#000000;stroke-width:0.8;" x="60" xlink:href="#m378138ba4b" y="231.5"/>
      </g>
     </g>
     <g id="text_1">
      <!-- 0.0 -->
      <g transform="translate(49.662969 248.377969)scale(0.13 -0.13)">
       <defs>
        <path d="M 31.78125 66.40625 
Q 24.171875 66.40625 20.328125 58.90625 
Q 16.5 51.421875 16.5 36.375 
Q 16.5 21.390625 20.328125 13.890625 
Q 24.171875 6.390625 31.78125 6.390625 
Q 39.453125 6.390625 43.28125 13.890625 
Q 47.125 21.390625 47.125 36.375 
Q 47.125 51.421875 43.28125 58.90625 
Q 39.453125 66.40625 31.78125 66.40625 
z
M 31.78125 74.21875 
Q 44.046875 74.21875 50.515625 64.515625 
Q 56.984375 54.828125 56.984375 36.375 
Q 56.984375 17.96875 50.515625 8.265625 
Q 44.046875 -1.421875 31.78125 -1.421875 
Q 19.53125 -1.421875 13.0625 8.265625 
Q 6.59375 17.96875 6.59375 36.375 
Q 6.59375 54.828125 13.0625 64.515625 
Q 19.53125 74.21875 31.78125 74.21875 
z
" id="DejaVuSans-48"/>
        <path d="M 10.6875 12.40625 
L 21 12.40625 
L 21 0 
L 10.6875 0 
z
" id="DejaVuSans-46"/>
       </defs>
       <use xlink:href="#DejaVuSans-48"/>
       <use x="63.623047" xlink:href="#DejaVuSans-46"/>
       <use x="95.410156" xlink:href="#DejaVuSans-48"/>
      </g>
     </g>
    </g>
    <g id="xtick_2">
     <g id="line2d_2">
      <g>
       <use style="stroke:#000000;stroke-width:0.8;" x="129.500478" xlink:href="#m378138ba4b" y="231.5"/>
      </g>
     </g>
     <g id="text_2">
      <!-- 0.2 -->
      <g transform="translate(119.163447 248.377969)scale(0.13 -0.13)">
       <defs>
        <path d="M 19.1875 8.296875 
L 53.609375 8.296875 
L 53.609375 0 
L 7.328125 0 
L 7.328125 8.296875 
Q 12.9375 14.109375 22.625 23.890625 
Q 32.328125 33.6875 34.8125 36.53125 
Q 39.546875 41.84375 41.421875 45.53125 
Q 43.3125 49.21875 43.3125 52.78125 
Q 43.3125 58.59375 39.234375 62.25 
Q 35.15625 65.921875 28.609375 65.921875 
Q 23.96875 65.921875 18.8125 64.3125 
Q 13.671875 62.703125 7.8125 59.421875 
L 7.8125 69.390625 
Q 13.765625 71.78125 18.9375 73 
Q 24.125 74.21875 28.421875 74.21875 
Q 39.75 74.21875 46.484375 68.546875 
Q 53.21875 62.890625 53.21875 53.421875 
Q 53.21875 48.921875 51.53125 44.890625 
Q 49.859375 40.875 45.40625 35.40625 
Q 44.1875 33.984375 37.640625 27.21875 
Q 31.109375 20.453125 19.1875 8.296875 
z
" id="DejaVuSans-50"/>
       </defs>
       <use xlink:href="#DejaVuSans-48"/>
       <use x="63.623047" xlink:href="#DejaVuSans-46"/>
       <use x="95.410156" xlink:href="#DejaVuSans-50"/>
      </g>
     </g>
    </g>
    <g id="xtick_3">
     <g id="line2d_3">
      <g>
       <use style="stroke:#000000;stroke-width:0.8;" x="199.000956" xlink:href="#m378138ba4b" y="231.5"/>
      </g>
     </g>
     <g id="text_3">
      <!-- 0.4 -->
      <g transform="translate(188.663925 248.377969)scale(0.13 -0.13)">
       <defs>
        <path d="M 37.796875 64.3125 
L 12.890625 25.390625 
L 37.796875 25.390625 
z
M 35.203125 72.90625 
L 47.609375 72.90625 
L 47.609375 25.390625 
L 58.015625 25.390625 
L 58.015625 17.1875 
L 47.609375 17.1875 
L 47.609375 0 
L 37.796875 0 
L 37.796875 17.1875 
L 4.890625 17.1875 
L 4.890625 26.703125 
z
" id="DejaVuSans-52"/>
       </defs>
       <use xlink:href="#DejaVuSans-48"/>
       <use x="63.623047" xlink:href="#DejaVuSans-46"/>
       <use x="95.410156" xlink:href="#DejaVuSans-52"/>
      </g>
     </g>
    </g>
    <g id="xtick_4">
     <g id="line2d_4">
      <g>
       <use style="stroke:#000000;stroke-width:0.8;" x="268.501434" xlink:href="#m378138ba4b" y="231.5"/>
      </g>
     </g>
     <g id="text_4">
      <!-- 0.6 -->
      <g transform="translate(258.164403 248.377969)scale(0.13 -0.13)">
       <defs>
        <path d="M 33.015625 40.375 
Q 26.375 40.375 22.484375 35.828125 
Q 18.609375 31.296875 18.609375 23.390625 
Q 18.609375 15.53125 22.484375 10.953125 
Q 26.375 6.390625 33.015625 6.390625 
Q 39.65625 6.390625 43.53125 10.953125 
Q 47.40625 15.53125 47.40625 23.390625 
Q 47.40625 31.296875 43.53125 35.828125 
Q 39.65625 40.375 33.015625 40.375 
z
M 52.59375 71.296875 
L 52.59375 62.3125 
Q 48.875 64.0625 45.09375 64.984375 
Q 41.3125 65.921875 37.59375 65.921875 
Q 27.828125 65.921875 22.671875 59.328125 
Q 17.53125 52.734375 16.796875 39.40625 
Q 19.671875 43.65625 24.015625 45.921875 
Q 28.375 48.1875 33.59375 48.1875 
Q 44.578125 48.1875 50.953125 41.515625 
Q 57.328125 34.859375 57.328125 23.390625 
Q 57.328125 12.15625 50.6875 5.359375 
Q 44.046875 -1.421875 33.015625 -1.421875 
Q 20.359375 -1.421875 13.671875 8.265625 
Q 6.984375 17.96875 6.984375 36.375 
Q 6.984375 53.65625 15.1875 63.9375 
Q 23.390625 74.21875 37.203125 74.21875 
Q 40.921875 74.21875 44.703125 73.484375 
Q 48.484375 72.75 52.59375 71.296875 
z
" id="DejaVuSans-54"/>
       </defs>
       <use xlink:href="#DejaVuSans-48"/>
       <use x="63.623047" xlink:href="#DejaVuSans-46"/>
       <use x="95.410156" xlink:href="#DejaVuSans-54"/>
      </g>
     </g>
    </g>
    <g id="xtick_5">
     <g id="line2d_5">
      <g>
       <use style="stroke:#000000;stroke-width:0.8;" x="338.001912" xlink:href="#m378138ba4b" y="231.5"/>
      </g>
     </g>
     <g id="text_5">
      <!-- 0.8 -->
      <g transform="translate(327.664881 248.377969)scale(0.13 -0.13)">
       <defs>
        <path d="M 31.78125 34.625 
Q 24.75 34.625 20.71875 30.859375 
Q 16.703125 27.09375 16.703125 20.515625 
Q 16.703125 13.921875 20.71875 10.15625 
Q 24.75 6.390625 31.78125 6.390625 
Q 38.8125 6.390625 42.859375 10.171875 
Q 46.921875 13.96875 46.921875 20.515625 
Q 46.921875 27.09375 42.890625 30.859375 
Q 38.875 34.625 31.78125 34.625 
z
M 21.921875 38.8125 
Q 15.578125 40.375 12.03125 44.71875 
Q 8.5 49.078125 8.5 55.328125 
Q 8.5 64.0625 14.71875 69.140625 
Q 20.953125 74.21875 31.78125 74.21875 
Q 42.671875 74.21875 48.875 69.140625 
Q 55.078125 64.0625 55.078125 55.328125 
Q 55.078125 49.078125 51.53125 44.71875 
Q 48 40.375 41.703125 38.8125 
Q 48.828125 37.15625 52.796875 32.3125 
Q 56.78125 27.484375 56.78125 20.515625 
Q 56.78125 9.90625 50.3125 4.234375 
Q 43.84375 -1.421875 31.78125 -1.421875 
Q 19.734375 -1.421875 13.25 4.234375 
Q 6.78125 9.90625 6.78125 20.515625 
Q 6.78125 27.484375 10.78125 32.3125 
Q 14.796875 37.15625 21.921875 38.8125 
z
M 18.3125 54.390625 
Q 18.3125 48.734375 21.84375 45.5625 
Q 25.390625 42.390625 31.78125 42.390625 
Q 38.140625 42.390625 41.71875 45.5625 
Q 45.3125 48.734375 45.3125 54.390625 
Q 45.3125 60.0625 41.71875 63.234375 
Q 38.140625 66.40625 31.78125 66.40625 
Q 25.390625 66.40625 21.84375 63.234375 
Q 18.3125 60.0625 18.3125 54.390625 
z
" id="DejaVuSans-56"/>
       </defs>
       <use xlink:href="#DejaVuSans-48"/>
       <use x="63.623047" xlink:href="#DejaVuSans-46"/>
       <use x="95.410156" xlink:href="#DejaVuSans-56"/>
      </g>
     </g>
    </g>
    <g id="xtick_6">
     <g id="line2d_6">
      <g>
       <use style="stroke:#000000;stroke-width:0.8;" x="407.50239" xlink:href="#m378138ba4b" y="231.5"/>
      </g>
     </g>
     <g id="text_6">
      <!-- 1.0 -->
      <g transform="translate(397.165359 248.377969)scale(0.13 -0.13)">
       <defs>
        <path d="M 12.40625 8.296875 
L 28.515625 8.296875 
L 28.515625 63.921875 
L 10.984375 60.40625 
L 10.984375 69.390625 
L 28.421875 72.90625 
L 38.28125 72.90625 
L 38.28125 8.296875 
L 54.390625 8.296875 
L 54.390625 0 
L 12.40625 0 
z
" id="DejaVuSans-49"/>
       </defs>
       <use xlink:href="#DejaVuSans-49"/>
       <use x="63.623047" xlink:href="#DejaVuSans-46"/>
       <use x="95.410156" xlink:href="#DejaVuSans-48"/>
      </g>
     </g>
    </g>
    <g id="text_7">
     <!-- Pressure ($p/p^0$) -->
     <g transform="translate(183.9 268.731562)scale(0.15 -0.15)">
      <defs>
       <path d="M 19.671875 64.796875 
L 19.671875 37.40625 
L 32.078125 37.40625 
Q 38.96875 37.40625 42.71875 40.96875 
Q 46.484375 44.53125 46.484375 51.125 
Q 46.484375 57.671875 42.71875 61.234375 
Q 38.96875 64.796875 32.078125 64.796875 
z
M 9.8125 72.90625 
L 32.078125 72.90625 
Q 44.34375 72.90625 50.609375 67.359375 
Q 56.890625 61.8125 56.890625 51.125 
Q 56.890625 40.328125 50.609375 34.8125 
Q 44.34375 29.296875 32.078125 29.296875 
L 19.671875 29.296875 
L 19.671875 0 
L 9.8125 0 
z
" id="DejaVuSans-80"/>
       <path d="M 41.109375 46.296875 
Q 39.59375 47.171875 37.8125 47.578125 
Q 36.03125 48 33.890625 48 
Q 26.265625 48 22.1875 43.046875 
Q 18.109375 38.09375 18.109375 28.8125 
L 18.109375 0 
L 9.078125 0 
L 9.078125 54.6875 
L 18.109375 54.6875 
L 18.109375 46.1875 
Q 20.953125 51.171875 25.484375 53.578125 
Q 30.03125 56 36.53125 56 
Q 37.453125 56 38.578125 55.875 
Q 39.703125 55.765625 41.0625 55.515625 
z
" id="DejaVuSans-114"/>
       <path d="M 56.203125 29.59375 
L 56.203125 25.203125 
L 14.890625 25.203125 
Q 15.484375 15.921875 20.484375 11.0625 
Q 25.484375 6.203125 34.421875 6.203125 
Q 39.59375 6.203125 44.453125 7.46875 
Q 49.3125 8.734375 54.109375 11.28125 
L 54.109375 2.78125 
Q 49.265625 0.734375 44.1875 -0.34375 
Q 39.109375 -1.421875 33.890625 -1.421875 
Q 20.796875 -1.421875 13.15625 6.1875 
Q 5.515625 13.8125 5.515625 26.8125 
Q 5.515625 40.234375 12.765625 48.109375 
Q 20.015625 56 32.328125 56 
Q 43.359375 56 49.78125 48.890625 
Q 56.203125 41.796875 56.203125 29.59375 
z
M 47.21875 32.234375 
Q 47.125 39.59375 43.09375 43.984375 
Q 39.0625 48.390625 32.421875 48.390625 
Q 24.90625 48.390625 20.390625 44.140625 
Q 15.875 39.890625 15.1875 32.171875 
z
" id="DejaVuSans-101"/>
       <path d="M 44.28125 53.078125 
L 44.28125 44.578125 
Q 40.484375 46.53125 36.375 47.5 
Q 32.28125 48.484375 27.875 48.484375 
Q 21.1875 48.484375 17.84375 46.4375 
Q 14.5 44.390625 14.5 40.28125 
Q 14.5 37.15625 16.890625 35.375 
Q 19.28125 33.59375 26.515625 31.984375 
L 29.59375 31.296875 
Q 39.15625 29.25 43.1875 25.515625 
Q 47.21875 21.78125 47.21875 15.09375 
Q 47.21875 7.46875 41.1875 3.015625 
Q 35.15625 -1.421875 24.609375 -1.421875 
Q 20.21875 -1.421875 15.453125 -0.5625 
Q 10.6875 0.296875 5.421875 2 
L 5.421875 11.28125 
Q 10.40625 8.6875 15.234375 7.390625 
Q 20.0625 6.109375 24.8125 6.109375 
Q 31.15625 6.109375 34.5625 8.28125 
Q 37.984375 10.453125 37.984375 14.40625 
Q 37.984375 18.0625 35.515625 20.015625 
Q 33.0625 21.96875 24.703125 23.78125 
L 21.578125 24.515625 
Q 13.234375 26.265625 9.515625 29.90625 
Q 5.8125 33.546875 5.8125 39.890625 
Q 5.8125 47.609375 11.28125 51.796875 
Q 16.75 56 26.8125 56 
Q 31.78125 56 36.171875 55.265625 
Q 40.578125 54.546875 44.28125 53.078125 
z
" id="DejaVuSans-115"/>
       <path d="M 8.5 21.578125 
L 8.5 54.6875 
L 17.484375 54.6875 
L 17.484375 21.921875 
Q 17.484375 14.15625 20.5 10.265625 
Q 23.53125 6.390625 29.59375 6.390625 
Q 36.859375 6.390625 41.078125 11.03125 
Q 45.3125 15.671875 45.3125 23.6875 
L 45.3125 54.6875 
L 54.296875 54.6875 
L 54.296875 0 
L 45.3125 0 
L 45.3125 8.40625 
Q 42.046875 3.421875 37.71875 1 
Q 33.40625 -1.421875 27.6875 -1.421875 
Q 18.265625 -1.421875 13.375 4.4375 
Q 8.5 10.296875 8.5 21.578125 
z
M 31.109375 56 
z
" id="DejaVuSans-117"/>
       <path id="DejaVuSans-32"/>
       <path d="M 31 75.875 
Q 24.46875 64.65625 21.28125 53.65625 
Q 18.109375 42.671875 18.109375 31.390625 
Q 18.109375 20.125 21.3125 9.0625 
Q 24.515625 -2 31 -13.1875 
L 23.1875 -13.1875 
Q 15.875 -1.703125 12.234375 9.375 
Q 8.59375 20.453125 8.59375 31.390625 
Q 8.59375 42.28125 12.203125 53.3125 
Q 15.828125 64.359375 23.1875 75.875 
z
" id="DejaVuSans-40"/>
       <path d="M 49.609375 33.6875 
Q 49.609375 40.875 46.484375 44.671875 
Q 43.359375 48.484375 37.5 48.484375 
Q 33.5 48.484375 29.859375 46.4375 
Q 26.21875 44.390625 23.390625 40.484375 
Q 20.609375 36.625 18.9375 31.15625 
Q 17.28125 25.6875 17.28125 20.3125 
Q 17.28125 13.484375 20.40625 9.796875 
Q 23.53125 6.109375 29.296875 6.109375 
Q 33.546875 6.109375 37.1875 8.109375 
Q 40.828125 10.109375 43.40625 13.921875 
Q 46.1875 17.921875 47.890625 23.34375 
Q 49.609375 28.765625 49.609375 33.6875 
z
M 21.78125 46.390625 
Q 25.390625 51.125 30.296875 53.5625 
Q 35.203125 56 41.21875 56 
Q 49.609375 56 54.25 50.5 
Q 58.890625 45.015625 58.890625 35.109375 
Q 58.890625 27 56 19.65625 
Q 53.125 12.3125 47.703125 6.5 
Q 44.09375 2.640625 39.546875 0.609375 
Q 35.015625 -1.421875 29.984375 -1.421875 
Q 24.171875 -1.421875 20.21875 1 
Q 16.265625 3.421875 14.3125 8.203125 
L 8.6875 -20.796875 
L -0.296875 -20.796875 
L 14.40625 54.6875 
L 23.390625 54.6875 
z
" id="DejaVuSans-Oblique-112"/>
       <path d="M 25.390625 72.90625 
L 33.6875 72.90625 
L 8.296875 -9.28125 
L 0 -9.28125 
z
" id="DejaVuSans-47"/>
       <path d="M 8.015625 75.875 
L 15.828125 75.875 
Q 23.140625 64.359375 26.78125 53.3125 
Q 30.421875 42.28125 30.421875 31.390625 
Q 30.421875 20.453125 26.78125 9.375 
Q 23.140625 -1.703125 15.828125 -13.1875 
L 8.015625 -13.1875 
Q 14.5 -2 17.703125 9.0625 
Q 20.90625 20.125 20.90625 31.390625 
Q 20.90625 42.671875 17.703125 53.65625 
Q 14.5 64.65625 8.015625 75.875 
z
" id="DejaVuSans-41"/>
      </defs>
      <use transform="translate(0 0.765625)" xlink:href="#DejaVuSans-80"/>
      <use transform="translate(60.302734 0.765625)" xlink:href="#DejaVuSans-114"/>
      <use transform="translate(101.416016 0.765625)" xlink:href="#DejaVuSans-101"/>
      <use transform="translate(162.939453 0.765625)" xlink:href="#DejaVuSans-115"/>
      <use transform="translate(215.039062 0.765625)" xlink:href="#DejaVuSans-115"/>
      <use transform="translate(267.138672 0.765625)" xlink:href="#DejaVuSans-117"/>
      <use transform="translate(330.517578 0.765625)" xlink:href="#DejaVuSans-114"/>
      <use transform="translate(371.630859 0.765625)" xlink:href="#DejaVuSans-101"/>
      <use transform="translate(433.154297 0.765625)" xlink:href="#DejaVuSans-32"/>
      <use transform="translate(464.941406 0.765625)" xlink:href="#DejaVuSans-40"/>
      <use transform="translate(503.955078 0.765625)" xlink:href="#DejaVuSans-Oblique-112"/>
      <use transform="translate(567.431641 0.765625)" xlink:href="#DejaVuSans-47"/>
      <use transform="translate(601.123047 0.765625)" xlink:href="#DejaVuSans-Oblique-112"/>
      <use transform="translate(669.249505 39.046875)scale(0.7)" xlink:href="#DejaVuSans-48"/>
      <use transform="translate(716.520013 0.765625)" xlink:href="#DejaVuSans-41"/>
     </g>
    </g>
   </g>
   <g id="matplotlib.axis_2">
    <g id="ytick_1">
     <g id="line2d_7">
      <defs>
       <path d="M 0 0 
L -3.5 0 
" id="m1c4c93020c" style="stroke:#000000;stroke-width:0.8;"/>
      </defs>
      <g>
       <use style="stroke:#000000;stroke-width:0.8;" x="60" xlink:href="#m1c4c93020c" y="231.5"/>
      </g>
     </g>
     <g id="text_8">
      <!-- 0 -->
      <g transform="translate(44.72875 236.438984)scale(0.13 -0.13)">
       <use xlink:href="#DejaVuSans-48"/>
      </g>
     </g>
    </g>
    <g id="ytick_2">
     <g id="line2d_8">
      <g>
       <use style="stroke:#000000;stroke-width:0.8;" x="60" xlink:href="#m1c4c93020c" y="200.686626"/>
      </g>
     </g>
     <g id="text_9">
      <!-- 10 -->
      <g transform="translate(36.4575 205.625611)scale(0.13 -0.13)">
       <use xlink:href="#DejaVuSans-49"/>
       <use x="63.623047" xlink:href="#DejaVuSans-48"/>
      </g>
     </g>
    </g>
    <g id="ytick_3">
     <g id="line2d_9">
      <g>
       <use style="stroke:#000000;stroke-width:0.8;" x="60" xlink:href="#m1c4c93020c" y="169.873252"/>
      </g>
     </g>
     <g id="text_10">
      <!-- 20 -->
      <g transform="translate(36.4575 174.812237)scale(0.13 -0.13)">
       <use xlink:href="#DejaVuSans-50"/>
       <use x="63.623047" xlink:href="#DejaVuSans-48"/>
      </g>
     </g>
    </g>
    <g id="ytick_4">
     <g id="line2d_10">
      <g>
       <use style="stroke:#000000;stroke-width:0.8;" x="60" xlink:href="#m1c4c93020c" y="139.059879"/>
      </g>
     </g>
     <g id="text_11">
      <!-- 30 -->
      <g transform="translate(36.4575 143.998863)scale(0.13 -0.13)">
       <defs>
        <path d="M 40.578125 39.3125 
Q 47.65625 37.796875 51.625 33 
Q 55.609375 28.21875 55.609375 21.1875 
Q 55.609375 10.40625 48.1875 4.484375 
Q 40.765625 -1.421875 27.09375 -1.421875 
Q 22.515625 -1.421875 17.65625 -0.515625 
Q 12.796875 0.390625 7.625 2.203125 
L 7.625 11.71875 
Q 11.71875 9.328125 16.59375 8.109375 
Q 21.484375 6.890625 26.8125 6.890625 
Q 36.078125 6.890625 40.9375 10.546875 
Q 45.796875 14.203125 45.796875 21.1875 
Q 45.796875 27.640625 41.28125 31.265625 
Q 36.765625 34.90625 28.71875 34.90625 
L 20.21875 34.90625 
L 20.21875 43.015625 
L 29.109375 43.015625 
Q 36.375 43.015625 40.234375 45.921875 
Q 44.09375 48.828125 44.09375 54.296875 
Q 44.09375 59.90625 40.109375 62.90625 
Q 36.140625 65.921875 28.71875 65.921875 
Q 24.65625 65.921875 20.015625 65.03125 
Q 15.375 64.15625 9.8125 62.3125 
L 9.8125 71.09375 
Q 15.4375 72.65625 20.34375 73.4375 
Q 25.25 74.21875 29.59375 74.21875 
Q 40.828125 74.21875 47.359375 69.109375 
Q 53.90625 64.015625 53.90625 55.328125 
Q 53.90625 49.265625 50.4375 45.09375 
Q 46.96875 40.921875 40.578125 39.3125 
z
" id="DejaVuSans-51"/>
       </defs>
       <use xlink:href="#DejaVuSans-51"/>
       <use x="63.623047" xlink:href="#DejaVuSans-48"/>
      </g>
     </g>
    </g>
    <g id="ytick_5">
     <g id="line2d_11">
      <g>
       <use style="stroke:#000000;stroke-width:0.8;" x="60" xlink:href="#m1c4c93020c" y="108.246505"/>
      </g>
     </g>
     <g id="text_12">
      <!-- 40 -->
      <g transform="translate(36.4575 113.185489)scale(0.13 -0.13)">
       <use xlink:href="#DejaVuSans-52"/>
       <use x="63.623047" xlink:href="#DejaVuSans-48"/>
      </g>
     </g>
    </g>
    <g id="ytick_6">
     <g id="line2d_12">
      <g>
       <use style="stroke:#000000;stroke-width:0.8;" x="60" xlink:href="#m1c4c93020c" y="77.433131"/>
      </g>
     </g>
     <g id="text_13">
      <!-- 50 -->
      <g transform="translate(36.4575 82.372116)scale(0.13 -0.13)">
       <defs>
        <path d="M 10.796875 72.90625 
L 49.515625 72.90625 
L 49.515625 64.59375 
L 19.828125 64.59375 
L 19.828125 46.734375 
Q 21.96875 47.46875 24.109375 47.828125 
Q 26.265625 48.1875 28.421875 48.1875 
Q 40.625 48.1875 47.75 41.5 
Q 54.890625 34.8125 54.890625 23.390625 
Q 54.890625 11.625 47.5625 5.09375 
Q 40.234375 -1.421875 26.90625 -1.421875 
Q 22.3125 -1.421875 17.546875 -0.640625 
Q 12.796875 0.140625 7.71875 1.703125 
L 7.71875 11.625 
Q 12.109375 9.234375 16.796875 8.0625 
Q 21.484375 6.890625 26.703125 6.890625 
Q 35.15625 6.890625 40.078125 11.328125 
Q 45.015625 15.765625 45.015625 23.390625 
Q 45.015625 31 40.078125 35.4375 
Q 35.15625 39.890625 26.703125 39.890625 
Q 22.75 39.890625 18.8125 39.015625 
Q 14.890625 38.140625 10.796875 36.28125 
z
" id="DejaVuSans-53"/>
       </defs>
       <use xlink:href="#DejaVuSans-53"/>
       <use x="63.623047" xlink:href="#DejaVuSans-48"/>
      </g>
     </g>
    </g>
    <g id="ytick_7">
     <g id="line2d_13">
      <g>
       <use style="stroke:#000000;stroke-width:0.8;" x="60" xlink:href="#m1c4c93020c" y="46.619757"/>
      </g>
     </g>
     <g id="text_14">
      <!-- 60 -->
      <g transform="translate(36.4575 51.558742)scale(0.13 -0.13)">
       <use xlink:href="#DejaVuSans-54"/>
       <use x="63.623047" xlink:href="#DejaVuSans-48"/>
      </g>
     </g>
    </g>
    <g id="ytick_8">
     <g id="line2d_14">
      <g>
       <use style="stroke:#000000;stroke-width:0.8;" x="60" xlink:href="#m1c4c93020c" y="15.806384"/>
      </g>
     </g>
     <g id="text_15">
      <!-- 70 -->
      <g transform="translate(36.4575 20.745368)scale(0.13 -0.13)">
       <defs>
        <path d="M 8.203125 72.90625 
L 55.078125 72.90625 
L 55.078125 68.703125 
L 28.609375 0 
L 18.3125 0 
L 43.21875 64.59375 
L 8.203125 64.59375 
z
" id="DejaVuSans-55"/>
       </defs>
       <use xlink:href="#DejaVuSans-55"/>
       <use x="63.623047" xlink:href="#DejaVuSans-48"/>
      </g>
     </g>
    </g>
    <g id="text_16">
     <!-- Loading ($mmol\ g^{-1}$) -->
     <g transform="translate(29.3075 197.257713)rotate(-90)scale(0.15 -0.15)">
      <defs>
       <path d="M 9.8125 72.90625 
L 19.671875 72.90625 
L 19.671875 8.296875 
L 55.171875 8.296875 
L 55.171875 0 
L 9.8125 0 
z
" id="DejaVuSans-76"/>
       <path d="M 30.609375 48.390625 
Q 23.390625 48.390625 19.1875 42.75 
Q 14.984375 37.109375 14.984375 27.296875 
Q 14.984375 17.484375 19.15625 11.84375 
Q 23.34375 6.203125 30.609375 6.203125 
Q 37.796875 6.203125 41.984375 11.859375 
Q 46.1875 17.53125 46.1875 27.296875 
Q 46.1875 37.015625 41.984375 42.703125 
Q 37.796875 48.390625 30.609375 48.390625 
z
M 30.609375 56 
Q 42.328125 56 49.015625 48.375 
Q 55.71875 40.765625 55.71875 27.296875 
Q 55.71875 13.875 49.015625 6.21875 
Q 42.328125 -1.421875 30.609375 -1.421875 
Q 18.84375 -1.421875 12.171875 6.21875 
Q 5.515625 13.875 5.515625 27.296875 
Q 5.515625 40.765625 12.171875 48.375 
Q 18.84375 56 30.609375 56 
z
" id="DejaVuSans-111"/>
       <path d="M 34.28125 27.484375 
Q 23.390625 27.484375 19.1875 25 
Q 14.984375 22.515625 14.984375 16.5 
Q 14.984375 11.71875 18.140625 8.90625 
Q 21.296875 6.109375 26.703125 6.109375 
Q 34.1875 6.109375 38.703125 11.40625 
Q 43.21875 16.703125 43.21875 25.484375 
L 43.21875 27.484375 
z
M 52.203125 31.203125 
L 52.203125 0 
L 43.21875 0 
L 43.21875 8.296875 
Q 40.140625 3.328125 35.546875 0.953125 
Q 30.953125 -1.421875 24.3125 -1.421875 
Q 15.921875 -1.421875 10.953125 3.296875 
Q 6 8.015625 6 15.921875 
Q 6 25.140625 12.171875 29.828125 
Q 18.359375 34.515625 30.609375 34.515625 
L 43.21875 34.515625 
L 43.21875 35.40625 
Q 43.21875 41.609375 39.140625 45 
Q 35.0625 48.390625 27.6875 48.390625 
Q 23 48.390625 18.546875 47.265625 
Q 14.109375 46.140625 10.015625 43.890625 
L 10.015625 52.203125 
Q 14.9375 54.109375 19.578125 55.046875 
Q 24.21875 56 28.609375 56 
Q 40.484375 56 46.34375 49.84375 
Q 52.203125 43.703125 52.203125 31.203125 
z
" id="DejaVuSans-97"/>
       <path d="M 45.40625 46.390625 
L 45.40625 75.984375 
L 54.390625 75.984375 
L 54.390625 0 
L 45.40625 0 
L 45.40625 8.203125 
Q 42.578125 3.328125 38.25 0.953125 
Q 33.9375 -1.421875 27.875 -1.421875 
Q 17.96875 -1.421875 11.734375 6.484375 
Q 5.515625 14.40625 5.515625 27.296875 
Q 5.515625 40.1875 11.734375 48.09375 
Q 17.96875 56 27.875 56 
Q 33.9375 56 38.25 53.625 
Q 42.578125 51.265625 45.40625 46.390625 
z
M 14.796875 27.296875 
Q 14.796875 17.390625 18.875 11.75 
Q 22.953125 6.109375 30.078125 6.109375 
Q 37.203125 6.109375 41.296875 11.75 
Q 45.40625 17.390625 45.40625 27.296875 
Q 45.40625 37.203125 41.296875 42.84375 
Q 37.203125 48.484375 30.078125 48.484375 
Q 22.953125 48.484375 18.875 42.84375 
Q 14.796875 37.203125 14.796875 27.296875 
z
" id="DejaVuSans-100"/>
       <path d="M 9.421875 54.6875 
L 18.40625 54.6875 
L 18.40625 0 
L 9.421875 0 
z
M 9.421875 75.984375 
L 18.40625 75.984375 
L 18.40625 64.59375 
L 9.421875 64.59375 
z
" id="DejaVuSans-105"/>
       <path d="M 54.890625 33.015625 
L 54.890625 0 
L 45.90625 0 
L 45.90625 32.71875 
Q 45.90625 40.484375 42.875 44.328125 
Q 39.84375 48.1875 33.796875 48.1875 
Q 26.515625 48.1875 22.3125 43.546875 
Q 18.109375 38.921875 18.109375 30.90625 
L 18.109375 0 
L 9.078125 0 
L 9.078125 54.6875 
L 18.109375 54.6875 
L 18.109375 46.1875 
Q 21.34375 51.125 25.703125 53.5625 
Q 30.078125 56 35.796875 56 
Q 45.21875 56 50.046875 50.171875 
Q 54.890625 44.34375 54.890625 33.015625 
z
" id="DejaVuSans-110"/>
       <path d="M 45.40625 27.984375 
Q 45.40625 37.75 41.375 43.109375 
Q 37.359375 48.484375 30.078125 48.484375 
Q 22.859375 48.484375 18.828125 43.109375 
Q 14.796875 37.75 14.796875 27.984375 
Q 14.796875 18.265625 18.828125 12.890625 
Q 22.859375 7.515625 30.078125 7.515625 
Q 37.359375 7.515625 41.375 12.890625 
Q 45.40625 18.265625 45.40625 27.984375 
z
M 54.390625 6.78125 
Q 54.390625 -7.171875 48.1875 -13.984375 
Q 42 -20.796875 29.203125 -20.796875 
Q 24.46875 -20.796875 20.265625 -20.09375 
Q 16.0625 -19.390625 12.109375 -17.921875 
L 12.109375 -9.1875 
Q 16.0625 -11.328125 19.921875 -12.34375 
Q 23.78125 -13.375 27.78125 -13.375 
Q 36.625 -13.375 41.015625 -8.765625 
Q 45.40625 -4.15625 45.40625 5.171875 
L 45.40625 9.625 
Q 42.625 4.78125 38.28125 2.390625 
Q 33.9375 0 27.875 0 
Q 17.828125 0 11.671875 7.65625 
Q 5.515625 15.328125 5.515625 27.984375 
Q 5.515625 40.671875 11.671875 48.328125 
Q 17.828125 56 27.875 56 
Q 33.9375 56 38.28125 53.609375 
Q 42.625 51.21875 45.40625 46.390625 
L 45.40625 54.6875 
L 54.390625 54.6875 
z
" id="DejaVuSans-103"/>
       <path d="M 89.796875 33.015625 
L 83.40625 0 
L 74.421875 0 
L 80.71875 32.71875 
Q 81.109375 34.8125 81.296875 36.328125 
Q 81.5 37.84375 81.5 38.921875 
Q 81.5 43.3125 79.046875 45.75 
Q 76.609375 48.1875 72.21875 48.1875 
Q 65.671875 48.1875 60.546875 43.28125 
Q 55.421875 38.375 53.90625 30.515625 
L 47.90625 0 
L 38.921875 0 
L 45.3125 32.71875 
Q 45.703125 34.515625 45.890625 36.046875 
Q 46.09375 37.59375 46.09375 38.8125 
Q 46.09375 43.265625 43.65625 45.71875 
Q 41.21875 48.1875 36.921875 48.1875 
Q 30.28125 48.1875 25.140625 43.28125 
Q 20.015625 38.375 18.5 30.515625 
L 12.5 0 
L 3.515625 0 
L 14.203125 54.6875 
L 23.1875 54.6875 
L 21.484375 46.1875 
Q 25.140625 50.984375 30.046875 53.484375 
Q 34.96875 56 40.578125 56 
Q 46.53125 56 50.359375 52.875 
Q 54.203125 49.75 54.984375 44.1875 
Q 59.078125 49.953125 64.46875 52.96875 
Q 69.875 56 75.875 56 
Q 82.90625 56 86.734375 51.953125 
Q 90.578125 47.90625 90.578125 40.484375 
Q 90.578125 38.875 90.375 36.9375 
Q 90.1875 35.015625 89.796875 33.015625 
z
" id="DejaVuSans-Oblique-109"/>
       <path d="M 25.390625 -1.421875 
Q 15.765625 -1.421875 10.171875 4.515625 
Q 4.59375 10.453125 4.59375 20.703125 
Q 4.59375 26.65625 6.515625 32.828125 
Q 8.453125 39.015625 11.53125 43.21875 
Q 16.359375 49.75 22.3125 52.875 
Q 28.265625 56 35.796875 56 
Q 45.125 56 50.859375 50.1875 
Q 56.59375 44.390625 56.59375 35.015625 
Q 56.59375 28.515625 54.6875 22.0625 
Q 52.78125 15.625 49.703125 11.375 
Q 44.921875 4.828125 38.96875 1.703125 
Q 33.015625 -1.421875 25.390625 -1.421875 
z
M 13.921875 21 
Q 13.921875 13.578125 17.015625 9.890625 
Q 20.125 6.203125 26.421875 6.203125 
Q 35.453125 6.203125 41.375 14.078125 
Q 47.3125 21.96875 47.3125 34.078125 
Q 47.3125 41.15625 44.140625 44.765625 
Q 40.96875 48.390625 34.8125 48.390625 
Q 29.734375 48.390625 25.78125 46.015625 
Q 21.828125 43.65625 18.703125 38.8125 
Q 16.40625 35.203125 15.15625 30.5625 
Q 13.921875 25.921875 13.921875 21 
z
" id="DejaVuSans-Oblique-111"/>
       <path d="M 18.3125 75.984375 
L 27.296875 75.984375 
L 12.5 0 
L 3.515625 0 
z
" id="DejaVuSans-Oblique-108"/>
       <path d="M 59.625 54.6875 
L 50.296875 6.78125 
Q 47.609375 -7.125 40.015625 -13.953125 
Q 32.421875 -20.796875 19.578125 -20.796875 
Q 14.84375 -20.796875 10.78125 -20.09375 
Q 6.734375 -19.390625 3.21875 -17.921875 
L 4.890625 -9.1875 
Q 8.203125 -11.328125 11.90625 -12.34375 
Q 15.625 -13.375 19.828125 -13.375 
Q 28.375 -13.375 33.859375 -8.703125 
Q 39.359375 -4.046875 41.109375 4.6875 
L 41.890625 8.796875 
Q 38.140625 4.5 33.15625 2.25 
Q 28.171875 0 22.40625 0 
Q 14.109375 0 9.34375 5.484375 
Q 4.59375 10.984375 4.59375 20.609375 
Q 4.59375 28.171875 7.46875 35.421875 
Q 10.359375 42.671875 15.578125 48.296875 
Q 19.046875 52 23.65625 54 
Q 28.265625 56 33.296875 56 
Q 38.8125 56 42.90625 53.4375 
Q 47.015625 50.875 49.03125 46.1875 
L 50.59375 54.6875 
z
M 46.09375 34.625 
Q 46.09375 41.265625 42.96875 44.875 
Q 39.84375 48.484375 34.078125 48.484375 
Q 30.515625 48.484375 27.296875 47.0625 
Q 24.078125 45.65625 21.78125 43.109375 
Q 18.0625 38.921875 15.984375 33.234375 
Q 13.921875 27.546875 13.921875 21.484375 
Q 13.921875 14.75 17.0625 11.125 
Q 20.21875 7.515625 26.125 7.515625 
Q 34.671875 7.515625 40.375 15.25 
Q 46.09375 23 46.09375 34.625 
z
" id="DejaVuSans-Oblique-103"/>
       <path d="M 10.59375 35.5 
L 73.1875 35.5 
L 73.1875 27.203125 
L 10.59375 27.203125 
z
" id="DejaVuSans-8722"/>
      </defs>
      <use transform="translate(0 0.684375)" xlink:href="#DejaVuSans-76"/>
      <use transform="translate(55.712891 0.684375)" xlink:href="#DejaVuSans-111"/>
      <use transform="translate(116.894531 0.684375)" xlink:href="#DejaVuSans-97"/>
      <use transform="translate(178.173828 0.684375)" xlink:href="#DejaVuSans-100"/>
      <use transform="translate(241.650391 0.684375)" xlink:href="#DejaVuSans-105"/>
      <use transform="translate(269.433594 0.684375)" xlink:href="#DejaVuSans-110"/>
      <use transform="translate(332.8125 0.684375)" xlink:href="#DejaVuSans-103"/>
      <use transform="translate(396.289062 0.684375)" xlink:href="#DejaVuSans-32"/>
      <use transform="translate(428.076172 0.684375)" xlink:href="#DejaVuSans-40"/>
      <use transform="translate(467.089844 0.684375)" xlink:href="#DejaVuSans-Oblique-109"/>
      <use transform="translate(564.501953 0.684375)" xlink:href="#DejaVuSans-Oblique-109"/>
      <use transform="translate(661.914062 0.684375)" xlink:href="#DejaVuSans-Oblique-111"/>
      <use transform="translate(723.095703 0.684375)" xlink:href="#DejaVuSans-Oblique-108"/>
      <use transform="translate(783.349285 0.684375)" xlink:href="#DejaVuSans-Oblique-103"/>
      <use transform="translate(851.475743 38.965625)scale(0.7)" xlink:href="#DejaVuSans-8722"/>
      <use transform="translate(910.128087 38.965625)scale(0.7)" xlink:href="#DejaVuSans-49"/>
      <use transform="translate(957.398595 0.684375)" xlink:href="#DejaVuSans-41"/>
     </g>
    </g>
   </g>
   <g id="line2d_15">
    <path clip-path="url(#p9e54845837)" d="M 60.538589 214.397035 
L 60.682804 213.156313 
L 60.851253 211.930948 
L 61.042213 210.714529 
L 61.258619 209.523996 
L 61.494144 208.3486 
L 61.756498 207.183517 
L 62.040808 206.038356 
L 62.346412 204.909017 
L 62.677663 203.792356 
L 63.02254 202.694236 
L 63.396142 201.607567 
L 66.771304 194.494056 
L 70.686071 189.794188 
L 73.708903 187.390955 
L 76.553839 185.6347 
L 80.27429 183.767183 
L 85.785484 181.510201 
L 87.665615 180.817182 
L 91.084212 179.639583 
L 94.493896 178.531656 
L 97.946663 177.456312 
L 101.313645 176.431745 
L 104.742202 175.397714 
L 108.180809 174.360076 
L 111.585707 173.318672 
L 114.913391 172.245219 
L 118.223163 171.073743 
L 121.496936 169.7894 
L 125.197346 168.63717 
L 129.023256 167.48745 
L 132.544149 166.41168 
L 136.116134 165.300849 
L 139.603894 164.176201 
L 143.119589 163.015189 
L 146.488315 161.871375 
L 149.932881 160.658291 
L 153.262508 159.451798 
L 156.727104 158.157001 
L 160.266884 156.787737 
L 163.545566 155.467344 
L 166.996836 154.032651 
L 170.420527 152.549676 
L 173.846519 151.001055 
L 177.327714 149.343546 
L 180.81488 147.64179 
L 184.567644 145.650054 
L 187.986507 143.502259 
L 190.149815 139.987846 
L 193.808824 62.884177 
L 197.101431 39.911372 
L 200.623887 36.028494 
L 208.491993 34.23038 
L 217.567233 33.380079 
L 228.033686 32.562643 
L 233.368831 32.184589 
L 250.766403 31.082121 
L 267.828202 30.114841 
L 285.385489 29.243418 
L 302.68336 28.476861 
L 319.920113 27.733178 
L 337.556672 27.055767 
L 354.669711 26.381528 
L 372.116748 25.619771 
L 389.398098 24.668695 
L 404.025647 23.033598 
" style="fill:none;stroke:#000000;stroke-linecap:square;stroke-width:1.5;"/>
    <defs>
     <path d="M 0 3 
C 0.795609 3 1.55874 2.683901 2.12132 2.12132 
C 2.683901 1.55874 3 0.795609 3 0 
C 3 -0.795609 2.683901 -1.55874 2.12132 -2.12132 
C 1.55874 -2.683901 0.795609 -3 0 -3 
C -0.795609 -3 -1.55874 -2.683901 -2.12132 -2.12132 
C -2.683901 -1.55874 -3 -0.795609 -3 0 
C -3 0.795609 -2.683901 1.55874 -2.12132 2.12132 
C -1.55874 2.683901 -0.795609 3 0 3 
z
" id="m1daa7755a3" style="stroke:#000000;"/>
    </defs>
    <g clip-path="url(#p9e54845837)">
     <use style="stroke:#000000;" x="60.538589" xlink:href="#m1daa7755a3" y="214.397035"/>
     <use style="stroke:#000000;" x="60.682804" xlink:href="#m1daa7755a3" y="213.156313"/>
     <use style="stroke:#000000;" x="60.851253" xlink:href="#m1daa7755a3" y="211.930948"/>
     <use style="stroke:#000000;" x="61.042213" xlink:href="#m1daa7755a3" y="210.714529"/>
     <use style="stroke:#000000;" x="61.258619" xlink:href="#m1daa7755a3" y="209.523996"/>
     <use style="stroke:#000000;" x="61.494144" xlink:href="#m1daa7755a3" y="208.3486"/>
     <use style="stroke:#000000;" x="61.756498" xlink:href="#m1daa7755a3" y="207.183517"/>
     <use style="stroke:#000000;" x="62.040808" xlink:href="#m1daa7755a3" y="206.038356"/>
     <use style="stroke:#000000;" x="62.346412" xlink:href="#m1daa7755a3" y="204.909017"/>
     <use style="stroke:#000000;" x="62.677663" xlink:href="#m1daa7755a3" y="203.792356"/>
     <use style="stroke:#000000;" x="63.02254" xlink:href="#m1daa7755a3" y="202.694236"/>
     <use style="stroke:#000000;" x="63.396142" xlink:href="#m1daa7755a3" y="201.607567"/>
     <use style="stroke:#000000;" x="66.771304" xlink:href="#m1daa7755a3" y="194.494056"/>
     <use style="stroke:#000000;" x="70.686071" xlink:href="#m1daa7755a3" y="189.794188"/>
     <use style="stroke:#000000;" x="73.708903" xlink:href="#m1daa7755a3" y="187.390955"/>
     <use style="stroke:#000000;" x="76.553839" xlink:href="#m1daa7755a3" y="185.6347"/>
     <use style="stroke:#000000;" x="80.27429" xlink:href="#m1daa7755a3" y="183.767183"/>
     <use style="stroke:#000000;" x="85.785484" xlink:href="#m1daa7755a3" y="181.510201"/>
     <use style="stroke:#000000;" x="87.665615" xlink:href="#m1daa7755a3" y="180.817182"/>
     <use style="stroke:#000000;" x="91.084212" xlink:href="#m1daa7755a3" y="179.639583"/>
     <use style="stroke:#000000;" x="94.493896" xlink:href="#m1daa7755a3" y="178.531656"/>
     <use style="stroke:#000000;" x="97.946663" xlink:href="#m1daa7755a3" y="177.456312"/>
     <use style="stroke:#000000;" x="101.313645" xlink:href="#m1daa7755a3" y="176.431745"/>
     <use style="stroke:#000000;" x="104.742202" xlink:href="#m1daa7755a3" y="175.397714"/>
     <use style="stroke:#000000;" x="108.180809" xlink:href="#m1daa7755a3" y="174.360076"/>
     <use style="stroke:#000000;" x="111.585707" xlink:href="#m1daa7755a3" y="173.318672"/>
     <use style="stroke:#000000;" x="114.913391" xlink:href="#m1daa7755a3" y="172.245219"/>
     <use style="stroke:#000000;" x="118.223163" xlink:href="#m1daa7755a3" y="171.073743"/>
     <use style="stroke:#000000;" x="121.496936" xlink:href="#m1daa7755a3" y="169.7894"/>
     <use style="stroke:#000000;" x="125.197346" xlink:href="#m1daa7755a3" y="168.63717"/>
     <use style="stroke:#000000;" x="129.023256" xlink:href="#m1daa7755a3" y="167.48745"/>
     <use style="stroke:#000000;" x="132.544149" xlink:href="#m1daa7755a3" y="166.41168"/>
     <use style="stroke:#000000;" x="136.116134" xlink:href="#m1daa7755a3" y="165.300849"/>
     <use style="stroke:#000000;" x="139.603894" xlink:href="#m1daa7755a3" y="164.176201"/>
     <use style="stroke:#000000;" x="143.119589" xlink:href="#m1daa7755a3" y="163.015189"/>
     <use style="stroke:#000000;" x="146.488315" xlink:href="#m1daa7755a3" y="161.871375"/>
     <use style="stroke:#000000;" x="149.932881" xlink:href="#m1daa7755a3" y="160.658291"/>
     <use style="stroke:#000000;" x="153.262508" xlink:href="#m1daa7755a3" y="159.451798"/>
     <use style="stroke:#000000;" x="156.727104" xlink:href="#m1daa7755a3" y="158.157001"/>
     <use style="stroke:#000000;" x="160.266884" xlink:href="#m1daa7755a3" y="156.787737"/>
     <use style="stroke:#000000;" x="163.545566" xlink:href="#m1daa7755a3" y="155.467344"/>
     <use style="stroke:#000000;" x="166.996836" xlink:href="#m1daa7755a3" y="154.032651"/>
     <use style="stroke:#000000;" x="170.420527" xlink:href="#m1daa7755a3" y="152.549676"/>
     <use style="stroke:#000000;" x="173.846519" xlink:href="#m1daa7755a3" y="151.001055"/>
     <use style="stroke:#000000;" x="177.327714" xlink:href="#m1daa7755a3" y="149.343546"/>
     <use style="stroke:#000000;" x="180.81488" xlink:href="#m1daa7755a3" y="147.64179"/>
     <use style="stroke:#000000;" x="184.567644" xlink:href="#m1daa7755a3" y="145.650054"/>
     <use style="stroke:#000000;" x="187.986507" xlink:href="#m1daa7755a3" y="143.502259"/>
     <use style="stroke:#000000;" x="190.149815" xlink:href="#m1daa7755a3" y="139.987846"/>
     <use style="stroke:#000000;" x="193.808824" xlink:href="#m1daa7755a3" y="62.884177"/>
     <use style="stroke:#000000;" x="197.101431" xlink:href="#m1daa7755a3" y="39.911372"/>
     <use style="stroke:#000000;" x="200.623887" xlink:href="#m1daa7755a3" y="36.028494"/>
     <use style="stroke:#000000;" x="208.491993" xlink:href="#m1daa7755a3" y="34.23038"/>
     <use style="stroke:#000000;" x="217.567233" xlink:href="#m1daa7755a3" y="33.380079"/>
     <use style="stroke:#000000;" x="228.033686" xlink:href="#m1daa7755a3" y="32.562643"/>
     <use style="stroke:#000000;" x="233.368831" xlink:href="#m1daa7755a3" y="32.184589"/>
     <use style="stroke:#000000;" x="250.766403" xlink:href="#m1daa7755a3" y="31.082121"/>
     <use style="stroke:#000000;" x="267.828202" xlink:href="#m1daa7755a3" y="30.114841"/>
     <use style="stroke:#000000;" x="285.385489" xlink:href="#m1daa7755a3" y="29.243418"/>
     <use style="stroke:#000000;" x="302.68336" xlink:href="#m1daa7755a3" y="28.476861"/>
     <use style="stroke:#000000;" x="319.920113" xlink:href="#m1daa7755a3" y="27.733178"/>
     <use style="stroke:#000000;" x="337.556672" xlink:href="#m1daa7755a3" y="27.055767"/>
     <use style="stroke:#000000;" x="354.669711" xlink:href="#m1daa7755a3" y="26.381528"/>
     <use style="stroke:#000000;" x="372.116748" xlink:href="#m1daa7755a3" y="25.619771"/>
     <use style="stroke:#000000;" x="389.398098" xlink:href="#m1daa7755a3" y="24.668695"/>
     <use style="stroke:#000000;" x="404.025647" xlink:href="#m1daa7755a3" y="23.033598"/>
    </g>
   </g>
   <g id="line2d_16">
    <path clip-path="url(#p9e54845837)" d="M 384.412664 24.401031 
L 366.282724 25.35279 
L 348.4711 26.112933 
L 331.016081 26.828449 
L 313.649697 27.544678 
L 296.343816 28.29903 
L 279.122315 29.135214 
L 261.910623 30.058735 
L 244.798422 31.089441 
L 227.771772 32.277775 
L 210.742973 33.696259 
L 193.970744 35.394486 
L 183.258912 143.751972 
L 179.034242 147.40261 
L 173.819686 150.268459 
L 169.152567 152.511997 
L 163.043283 155.1919 
L 156.233815 157.982986 
L 151.077983 159.949205 
L 144.754165 162.23508 
L 137.918184 164.559078 
L 130.83483 166.822606 
L 113.719716 172.572958 
L 94.669289 178.48513 
" style="fill:none;stroke:#000000;stroke-dasharray:5.55,2.4;stroke-dashoffset:0;stroke-width:1.5;"/>
    <defs>
     <path d="M 0 3 
C 0.795609 3 1.55874 2.683901 2.12132 2.12132 
C 2.683901 1.55874 3 0.795609 3 0 
C 3 -0.795609 2.683901 -1.55874 2.12132 -2.12132 
C 1.55874 -2.683901 0.795609 -3 0 -3 
C -0.795609 -3 -1.55874 -2.683901 -2.12132 -2.12132 
C -2.683901 -1.55874 -3 -0.795609 -3 0 
C -3 0.795609 -2.683901 1.55874 -2.12132 2.12132 
C -1.55874 2.683901 -0.795609 3 0 3 
z
" id="m945f1fdf5a" style="stroke:#000000;"/>
    </defs>
    <g clip-path="url(#p9e54845837)">
     <use style="fill-opacity:0;stroke:#000000;" x="384.412664" xlink:href="#m945f1fdf5a" y="24.401031"/>
     <use style="fill-opacity:0;stroke:#000000;" x="366.282724" xlink:href="#m945f1fdf5a" y="25.35279"/>
     <use style="fill-opacity:0;stroke:#000000;" x="348.4711" xlink:href="#m945f1fdf5a" y="26.112933"/>
     <use style="fill-opacity:0;stroke:#000000;" x="331.016081" xlink:href="#m945f1fdf5a" y="26.828449"/>
     <use style="fill-opacity:0;stroke:#000000;" x="313.649697" xlink:href="#m945f1fdf5a" y="27.544678"/>
     <use style="fill-opacity:0;stroke:#000000;" x="296.343816" xlink:href="#m945f1fdf5a" y="28.29903"/>
     <use style="fill-opacity:0;stroke:#000000;" x="279.122315" xlink:href="#m945f1fdf5a" y="29.135214"/>
     <use style="fill-opacity:0;stroke:#000000;" x="261.910623" xlink:href="#m945f1fdf5a" y="30.058735"/>
     <use style="fill-opacity:0;stroke:#000000;" x="244.798422" xlink:href="#m945f1fdf5a" y="31.089441"/>
     <use style="fill-opacity:0;stroke:#000000;" x="227.771772" xlink:href="#m945f1fdf5a" y="32.277775"/>
     <use style="fill-opacity:0;stroke:#000000;" x="210.742973" xlink:href="#m945f1fdf5a" y="33.696259"/>
     <use style="fill-opacity:0;stroke:#000000;" x="193.970744" xlink:href="#m945f1fdf5a" y="35.394486"/>
     <use style="fill-opacity:0;stroke:#000000;" x="183.258912" xlink:href="#m945f1fdf5a" y="143.751972"/>
     <use style="fill-opacity:0;stroke:#000000;" x="179.034242" xlink:href="#m945f1fdf5a" y="147.40261"/>
     <use style="fill-opacity:0;stroke:#000000;" x="173.819686" xlink:href="#m945f1fdf5a" y="150.268459"/>
     <use style="fill-opacity:0;stroke:#000000;" x="169.152567" xlink:href="#m945f1fdf5a" y="152.511997"/>
     <use style="fill-opacity:0;stroke:#000000;" x="163.043283" xlink:href="#m945f1fdf5a" y="155.1919"/>
     <use style="fill-opacity:0;stroke:#000000;" x="156.233815" xlink:href="#m945f1fdf5a" y="157.982986"/>
     <use style="fill-opacity:0;stroke:#000000;" x="151.077983" xlink:href="#m945f1fdf5a" y="159.949205"/>
     <use style="fill-opacity:0;stroke:#000000;" x="144.754165" xlink:href="#m945f1fdf5a" y="162.23508"/>
     <use style="fill-opacity:0;stroke:#000000;" x="137.918184" xlink:href="#m945f1fdf5a" y="164.559078"/>
     <use style="fill-opacity:0;stroke:#000000;" x="130.83483" xlink:href="#m945f1fdf5a" y="166.822606"/>
     <use style="fill-opacity:0;stroke:#000000;" x="113.719716" xlink:href="#m945f1fdf5a" y="172.572958"/>
     <use style="fill-opacity:0;stroke:#000000;" x="94.669289" xlink:href="#m945f1fdf5a" y="178.48513"/>
    </g>
   </g>
   <g id="patch_3">
    <path d="M 60 231.5 
L 60 13.465426 
" style="fill:none;stroke:#000000;stroke-linecap:square;stroke-linejoin:miter;stroke-width:0.8;"/>
   </g>
   <g id="patch_4">
    <path d="M 421.2 231.5 
L 421.2 13.465426 
" style="fill:none;stroke:#000000;stroke-linecap:square;stroke-linejoin:miter;stroke-width:0.8;"/>
   </g>
   <g id="patch_5">
    <path d="M 60 231.5 
L 421.2 231.5 
" style="fill:none;stroke:#000000;stroke-linecap:square;stroke-linejoin:miter;stroke-width:0.8;"/>
   </g>
   <g id="patch_6">
    <path d="M 60 13.465426 
L 421.2 13.465426 
" style="fill:none;stroke:#000000;stroke-linecap:square;stroke-linejoin:miter;stroke-width:0.8;"/>
   </g>
   <g id="legend_1">
    <g id="line2d_17">
     <path d="M 70.8 29.183551 
L 94.8 29.183551 
" style="fill:none;stroke:#000000;stroke-linecap:square;stroke-width:1.5;"/>
    </g>
    <g id="line2d_18">
     <g>
      <use style="stroke:#000000;" x="82.8" xlink:href="#m1daa7755a3" y="29.183551"/>
     </g>
    </g>
    <g id="text_17">
     <!-- pristine -->
     <g transform="translate(104.4 33.383551)scale(0.12 -0.12)">
      <defs>
       <path d="M 18.109375 8.203125 
L 18.109375 -20.796875 
L 9.078125 -20.796875 
L 9.078125 54.6875 
L 18.109375 54.6875 
L 18.109375 46.390625 
Q 20.953125 51.265625 25.265625 53.625 
Q 29.59375 56 35.59375 56 
Q 45.5625 56 51.78125 48.09375 
Q 58.015625 40.1875 58.015625 27.296875 
Q 58.015625 14.40625 51.78125 6.484375 
Q 45.5625 -1.421875 35.59375 -1.421875 
Q 29.59375 -1.421875 25.265625 0.953125 
Q 20.953125 3.328125 18.109375 8.203125 
z
M 48.6875 27.296875 
Q 48.6875 37.203125 44.609375 42.84375 
Q 40.53125 48.484375 33.40625 48.484375 
Q 26.265625 48.484375 22.1875 42.84375 
Q 18.109375 37.203125 18.109375 27.296875 
Q 18.109375 17.390625 22.1875 11.75 
Q 26.265625 6.109375 33.40625 6.109375 
Q 40.53125 6.109375 44.609375 11.75 
Q 48.6875 17.390625 48.6875 27.296875 
z
" id="DejaVuSans-112"/>
       <path d="M 18.3125 70.21875 
L 18.3125 54.6875 
L 36.8125 54.6875 
L 36.8125 47.703125 
L 18.3125 47.703125 
L 18.3125 18.015625 
Q 18.3125 11.328125 20.140625 9.421875 
Q 21.96875 7.515625 27.59375 7.515625 
L 36.8125 7.515625 
L 36.8125 0 
L 27.59375 0 
Q 17.1875 0 13.234375 3.875 
Q 9.28125 7.765625 9.28125 18.015625 
L 9.28125 47.703125 
L 2.6875 47.703125 
L 2.6875 54.6875 
L 9.28125 54.6875 
L 9.28125 70.21875 
z
" id="DejaVuSans-116"/>
      </defs>
      <use xlink:href="#DejaVuSans-112"/>
      <use x="63.476562" xlink:href="#DejaVuSans-114"/>
      <use x="104.589844" xlink:href="#DejaVuSans-105"/>
      <use x="132.373047" xlink:href="#DejaVuSans-115"/>
      <use x="184.472656" xlink:href="#DejaVuSans-116"/>
      <use x="223.681641" xlink:href="#DejaVuSans-105"/>
      <use x="251.464844" xlink:href="#DejaVuSans-110"/>
      <use x="314.84375" xlink:href="#DejaVuSans-101"/>
     </g>
    </g>
   </g>
  </g>
 </g>
 <defs>
  <clipPath id="p9e54845837">
   <rect height="218.034574" width="361.2" x="60" y="13.465426"/>
  </clipPath>
 </defs>
</svg>
