<?xml version="1.0" encoding="utf-8" standalone="no"?>
<!DOCTYPE svg PUBLIC "-//W3C//DTD SVG 1.1//EN"
  "http://www.w3.org/Graphics/SVG/1.1/DTD/svg11.dtd">
<!-- Created with matplotlib (https://matplotlib.org/) -->
<svg height="270.121562pt" version="1.1" viewBox="0 0 599.188437 270.121562" width="599.188437pt" xmlns="http://www.w3.org/2000/svg" xmlns:xlink="http://www.w3.org/1999/xlink">
 <metadata>
  <rdf:RDF xmlns:cc="http://creativecommons.org/ns#" xmlns:dc="http://purl.org/dc/elements/1.1/" xmlns:rdf="http://www.w3.org/1999/02/22-rdf-syntax-ns#">
   <cc:Work>
    <dc:type rdf:resource="http://purl.org/dc/dcmitype/StillImage"/>
    <dc:date>2021-05-21T13:23:14.307613</dc:date>
    <dc:format>image/svg+xml</dc:format>
    <dc:creator>
     <cc:Agent>
      <dc:title>Matplotlib v3.3.4, https://matplotlib.org/</dc:title>
     </cc:Agent>
    </dc:creator>
   </cc:Work>
  </rdf:RDF>
 </metadata>
 <defs>
  <style type="text/css">*{stroke-linecap:butt;stroke-linejoin:round;}</style>
 </defs>
 <g id="figure_1">
  <g id="patch_1">
   <path d="M 0 270.121562 
L 599.188437 270.121562 
L 599.188437 0 
L 0 0 
z
" style="fill:none;"/>
  </g>
  <g id="axes_1">
   <g id="patch_2">
    <path d="M 25.717188 224.64 
L 583.717188 224.64 
L 583.717188 7.2 
L 25.717188 7.2 
z
" style="fill:#ffffff;"/>
   </g>
   <g id="matplotlib.axis_1">
    <g id="xtick_1">
     <g id="line2d_1">
      <defs>
       <path d="M 0 0 
L 0 3.5 
" id="m2994ef73be" style="stroke:#000000;stroke-width:0.8;"/>
      </defs>
      <g>
       <use style="stroke:#000000;stroke-width:0.8;" x="25.717188" xlink:href="#m2994ef73be" y="224.64"/>
      </g>
     </g>
     <g id="text_1">
      <!-- 4 -->
      <g transform="translate(21.581563 241.517969)scale(0.13 -0.13)">
       <defs>
        <path d="M 37.796875 64.3125 
L 12.890625 25.390625 
L 37.796875 25.390625 
z
M 35.203125 72.90625 
L 47.609375 72.90625 
L 47.609375 25.390625 
L 58.015625 25.390625 
L 58.015625 17.1875 
L 47.609375 17.1875 
L 47.609375 0 
L 37.796875 0 
L 37.796875 17.1875 
L 4.890625 17.1875 
L 4.890625 26.703125 
z
" id="DejaVuSans-52"/>
       </defs>
       <use xlink:href="#DejaVuSans-52"/>
      </g>
     </g>
    </g>
    <g id="xtick_2">
     <g id="line2d_2">
      <g>
       <use style="stroke:#000000;stroke-width:0.8;" x="118.717188" xlink:href="#m2994ef73be" y="224.64"/>
      </g>
     </g>
     <g id="text_2">
      <!-- 6 -->
      <g transform="translate(114.581563 241.517969)scale(0.13 -0.13)">
       <defs>
        <path d="M 33.015625 40.375 
Q 26.375 40.375 22.484375 35.828125 
Q 18.609375 31.296875 18.609375 23.390625 
Q 18.609375 15.53125 22.484375 10.953125 
Q 26.375 6.390625 33.015625 6.390625 
Q 39.65625 6.390625 43.53125 10.953125 
Q 47.40625 15.53125 47.40625 23.390625 
Q 47.40625 31.296875 43.53125 35.828125 
Q 39.65625 40.375 33.015625 40.375 
z
M 52.59375 71.296875 
L 52.59375 62.3125 
Q 48.875 64.0625 45.09375 64.984375 
Q 41.3125 65.921875 37.59375 65.921875 
Q 27.828125 65.921875 22.671875 59.328125 
Q 17.53125 52.734375 16.796875 39.40625 
Q 19.671875 43.65625 24.015625 45.921875 
Q 28.375 48.1875 33.59375 48.1875 
Q 44.578125 48.1875 50.953125 41.515625 
Q 57.328125 34.859375 57.328125 23.390625 
Q 57.328125 12.15625 50.6875 5.359375 
Q 44.046875 -1.421875 33.015625 -1.421875 
Q 20.359375 -1.421875 13.671875 8.265625 
Q 6.984375 17.96875 6.984375 36.375 
Q 6.984375 53.65625 15.1875 63.9375 
Q 23.390625 74.21875 37.203125 74.21875 
Q 40.921875 74.21875 44.703125 73.484375 
Q 48.484375 72.75 52.59375 71.296875 
z
" id="DejaVuSans-54"/>
       </defs>
       <use xlink:href="#DejaVuSans-54"/>
      </g>
     </g>
    </g>
    <g id="xtick_3">
     <g id="line2d_3">
      <g>
       <use style="stroke:#000000;stroke-width:0.8;" x="211.717188" xlink:href="#m2994ef73be" y="224.64"/>
      </g>
     </g>
     <g id="text_3">
      <!-- 8 -->
      <g transform="translate(207.581563 241.517969)scale(0.13 -0.13)">
       <defs>
        <path d="M 31.78125 34.625 
Q 24.75 34.625 20.71875 30.859375 
Q 16.703125 27.09375 16.703125 20.515625 
Q 16.703125 13.921875 20.71875 10.15625 
Q 24.75 6.390625 31.78125 6.390625 
Q 38.8125 6.390625 42.859375 10.171875 
Q 46.921875 13.96875 46.921875 20.515625 
Q 46.921875 27.09375 42.890625 30.859375 
Q 38.875 34.625 31.78125 34.625 
z
M 21.921875 38.8125 
Q 15.578125 40.375 12.03125 44.71875 
Q 8.5 49.078125 8.5 55.328125 
Q 8.5 64.0625 14.71875 69.140625 
Q 20.953125 74.21875 31.78125 74.21875 
Q 42.671875 74.21875 48.875 69.140625 
Q 55.078125 64.0625 55.078125 55.328125 
Q 55.078125 49.078125 51.53125 44.71875 
Q 48 40.375 41.703125 38.8125 
Q 48.828125 37.15625 52.796875 32.3125 
Q 56.78125 27.484375 56.78125 20.515625 
Q 56.78125 9.90625 50.3125 4.234375 
Q 43.84375 -1.421875 31.78125 -1.421875 
Q 19.734375 -1.421875 13.25 4.234375 
Q 6.78125 9.90625 6.78125 20.515625 
Q 6.78125 27.484375 10.78125 32.3125 
Q 14.796875 37.15625 21.921875 38.8125 
z
M 18.3125 54.390625 
Q 18.3125 48.734375 21.84375 45.5625 
Q 25.390625 42.390625 31.78125 42.390625 
Q 38.140625 42.390625 41.71875 45.5625 
Q 45.3125 48.734375 45.3125 54.390625 
Q 45.3125 60.0625 41.71875 63.234375 
Q 38.140625 66.40625 31.78125 66.40625 
Q 25.390625 66.40625 21.84375 63.234375 
Q 18.3125 60.0625 18.3125 54.390625 
z
" id="DejaVuSans-56"/>
       </defs>
       <use xlink:href="#DejaVuSans-56"/>
      </g>
     </g>
    </g>
    <g id="xtick_4">
     <g id="line2d_4">
      <g>
       <use style="stroke:#000000;stroke-width:0.8;" x="304.717188" xlink:href="#m2994ef73be" y="224.64"/>
      </g>
     </g>
     <g id="text_4">
      <!-- 10 -->
      <g transform="translate(296.445938 241.517969)scale(0.13 -0.13)">
       <defs>
        <path d="M 12.40625 8.296875 
L 28.515625 8.296875 
L 28.515625 63.921875 
L 10.984375 60.40625 
L 10.984375 69.390625 
L 28.421875 72.90625 
L 38.28125 72.90625 
L 38.28125 8.296875 
L 54.390625 8.296875 
L 54.390625 0 
L 12.40625 0 
z
" id="DejaVuSans-49"/>
        <path d="M 31.78125 66.40625 
Q 24.171875 66.40625 20.328125 58.90625 
Q 16.5 51.421875 16.5 36.375 
Q 16.5 21.390625 20.328125 13.890625 
Q 24.171875 6.390625 31.78125 6.390625 
Q 39.453125 6.390625 43.28125 13.890625 
Q 47.125 21.390625 47.125 36.375 
Q 47.125 51.421875 43.28125 58.90625 
Q 39.453125 66.40625 31.78125 66.40625 
z
M 31.78125 74.21875 
Q 44.046875 74.21875 50.515625 64.515625 
Q 56.984375 54.828125 56.984375 36.375 
Q 56.984375 17.96875 50.515625 8.265625 
Q 44.046875 -1.421875 31.78125 -1.421875 
Q 19.53125 -1.421875 13.0625 8.265625 
Q 6.59375 17.96875 6.59375 36.375 
Q 6.59375 54.828125 13.0625 64.515625 
Q 19.53125 74.21875 31.78125 74.21875 
z
" id="DejaVuSans-48"/>
       </defs>
       <use xlink:href="#DejaVuSans-49"/>
       <use x="63.623047" xlink:href="#DejaVuSans-48"/>
      </g>
     </g>
    </g>
    <g id="xtick_5">
     <g id="line2d_5">
      <g>
       <use style="stroke:#000000;stroke-width:0.8;" x="397.717188" xlink:href="#m2994ef73be" y="224.64"/>
      </g>
     </g>
     <g id="text_5">
      <!-- 12 -->
      <g transform="translate(389.445938 241.517969)scale(0.13 -0.13)">
       <defs>
        <path d="M 19.1875 8.296875 
L 53.609375 8.296875 
L 53.609375 0 
L 7.328125 0 
L 7.328125 8.296875 
Q 12.9375 14.109375 22.625 23.890625 
Q 32.328125 33.6875 34.8125 36.53125 
Q 39.546875 41.84375 41.421875 45.53125 
Q 43.3125 49.21875 43.3125 52.78125 
Q 43.3125 58.59375 39.234375 62.25 
Q 35.15625 65.921875 28.609375 65.921875 
Q 23.96875 65.921875 18.8125 64.3125 
Q 13.671875 62.703125 7.8125 59.421875 
L 7.8125 69.390625 
Q 13.765625 71.78125 18.9375 73 
Q 24.125 74.21875 28.421875 74.21875 
Q 39.75 74.21875 46.484375 68.546875 
Q 53.21875 62.890625 53.21875 53.421875 
Q 53.21875 48.921875 51.53125 44.890625 
Q 49.859375 40.875 45.40625 35.40625 
Q 44.1875 33.984375 37.640625 27.21875 
Q 31.109375 20.453125 19.1875 8.296875 
z
" id="DejaVuSans-50"/>
       </defs>
       <use xlink:href="#DejaVuSans-49"/>
       <use x="63.623047" xlink:href="#DejaVuSans-50"/>
      </g>
     </g>
    </g>
    <g id="xtick_6">
     <g id="line2d_6">
      <g>
       <use style="stroke:#000000;stroke-width:0.8;" x="490.717188" xlink:href="#m2994ef73be" y="224.64"/>
      </g>
     </g>
     <g id="text_6">
      <!-- 14 -->
      <g transform="translate(482.445938 241.517969)scale(0.13 -0.13)">
       <use xlink:href="#DejaVuSans-49"/>
       <use x="63.623047" xlink:href="#DejaVuSans-52"/>
      </g>
     </g>
    </g>
    <g id="xtick_7">
     <g id="line2d_7">
      <g>
       <use style="stroke:#000000;stroke-width:0.8;" x="583.717188" xlink:href="#m2994ef73be" y="224.64"/>
      </g>
     </g>
     <g id="text_7">
      <!-- 16 -->
      <g transform="translate(575.445938 241.517969)scale(0.13 -0.13)">
       <use xlink:href="#DejaVuSans-49"/>
       <use x="63.623047" xlink:href="#DejaVuSans-54"/>
      </g>
     </g>
    </g>
    <g id="text_8">
     <!-- Angle ($2\theta$) -->
     <g transform="translate(265.717188 259.771562)scale(0.15 -0.15)">
      <defs>
       <path d="M 34.1875 63.1875 
L 20.796875 26.90625 
L 47.609375 26.90625 
z
M 28.609375 72.90625 
L 39.796875 72.90625 
L 67.578125 0 
L 57.328125 0 
L 50.6875 18.703125 
L 17.828125 18.703125 
L 11.1875 0 
L 0.78125 0 
z
" id="DejaVuSans-65"/>
       <path d="M 54.890625 33.015625 
L 54.890625 0 
L 45.90625 0 
L 45.90625 32.71875 
Q 45.90625 40.484375 42.875 44.328125 
Q 39.84375 48.1875 33.796875 48.1875 
Q 26.515625 48.1875 22.3125 43.546875 
Q 18.109375 38.921875 18.109375 30.90625 
L 18.109375 0 
L 9.078125 0 
L 9.078125 54.6875 
L 18.109375 54.6875 
L 18.109375 46.1875 
Q 21.34375 51.125 25.703125 53.5625 
Q 30.078125 56 35.796875 56 
Q 45.21875 56 50.046875 50.171875 
Q 54.890625 44.34375 54.890625 33.015625 
z
" id="DejaVuSans-110"/>
       <path d="M 45.40625 27.984375 
Q 45.40625 37.75 41.375 43.109375 
Q 37.359375 48.484375 30.078125 48.484375 
Q 22.859375 48.484375 18.828125 43.109375 
Q 14.796875 37.75 14.796875 27.984375 
Q 14.796875 18.265625 18.828125 12.890625 
Q 22.859375 7.515625 30.078125 7.515625 
Q 37.359375 7.515625 41.375 12.890625 
Q 45.40625 18.265625 45.40625 27.984375 
z
M 54.390625 6.78125 
Q 54.390625 -7.171875 48.1875 -13.984375 
Q 42 -20.796875 29.203125 -20.796875 
Q 24.46875 -20.796875 20.265625 -20.09375 
Q 16.0625 -19.390625 12.109375 -17.921875 
L 12.109375 -9.1875 
Q 16.0625 -11.328125 19.921875 -12.34375 
Q 23.78125 -13.375 27.78125 -13.375 
Q 36.625 -13.375 41.015625 -8.765625 
Q 45.40625 -4.15625 45.40625 5.171875 
L 45.40625 9.625 
Q 42.625 4.78125 38.28125 2.390625 
Q 33.9375 0 27.875 0 
Q 17.828125 0 11.671875 7.65625 
Q 5.515625 15.328125 5.515625 27.984375 
Q 5.515625 40.671875 11.671875 48.328125 
Q 17.828125 56 27.875 56 
Q 33.9375 56 38.28125 53.609375 
Q 42.625 51.21875 45.40625 46.390625 
L 45.40625 54.6875 
L 54.390625 54.6875 
z
" id="DejaVuSans-103"/>
       <path d="M 9.421875 75.984375 
L 18.40625 75.984375 
L 18.40625 0 
L 9.421875 0 
z
" id="DejaVuSans-108"/>
       <path d="M 56.203125 29.59375 
L 56.203125 25.203125 
L 14.890625 25.203125 
Q 15.484375 15.921875 20.484375 11.0625 
Q 25.484375 6.203125 34.421875 6.203125 
Q 39.59375 6.203125 44.453125 7.46875 
Q 49.3125 8.734375 54.109375 11.28125 
L 54.109375 2.78125 
Q 49.265625 0.734375 44.1875 -0.34375 
Q 39.109375 -1.421875 33.890625 -1.421875 
Q 20.796875 -1.421875 13.15625 6.1875 
Q 5.515625 13.8125 5.515625 26.8125 
Q 5.515625 40.234375 12.765625 48.109375 
Q 20.015625 56 32.328125 56 
Q 43.359375 56 49.78125 48.890625 
Q 56.203125 41.796875 56.203125 29.59375 
z
M 47.21875 32.234375 
Q 47.125 39.59375 43.09375 43.984375 
Q 39.0625 48.390625 32.421875 48.390625 
Q 24.90625 48.390625 20.390625 44.140625 
Q 15.875 39.890625 15.1875 32.171875 
z
" id="DejaVuSans-101"/>
       <path id="DejaVuSans-32"/>
       <path d="M 31 75.875 
Q 24.46875 64.65625 21.28125 53.65625 
Q 18.109375 42.671875 18.109375 31.390625 
Q 18.109375 20.125 21.3125 9.0625 
Q 24.515625 -2 31 -13.1875 
L 23.1875 -13.1875 
Q 15.875 -1.703125 12.234375 9.375 
Q 8.59375 20.453125 8.59375 31.390625 
Q 8.59375 42.28125 12.203125 53.3125 
Q 15.828125 64.359375 23.1875 75.875 
z
" id="DejaVuSans-40"/>
       <path d="M 45.515625 34.671875 
L 14.453125 34.671875 
Q 12.359375 20.0625 14.5 13.875 
Q 17.1875 6.25 24.46875 6.25 
Q 31.78125 6.25 37.359375 13.921875 
Q 42.234375 20.65625 45.515625 34.671875 
z
M 47.015625 42.96875 
Q 48.34375 56.84375 46.625 61.71875 
Q 43.953125 69.4375 36.765625 69.4375 
Q 29.296875 69.4375 23.828125 61.8125 
Q 19.53125 55.671875 16.15625 42.96875 
z
M 38.1875 76.765625 
Q 49.90625 76.765625 54.59375 66.40625 
Q 59.28125 56.109375 55.71875 37.84375 
Q 52.203125 19.625 43.453125 9.28125 
Q 34.765625 -1.125 23.046875 -1.125 
Q 11.28125 -1.125 6.640625 9.28125 
Q 2 19.625 5.515625 37.84375 
Q 9.078125 56.109375 17.71875 66.40625 
Q 26.421875 76.765625 38.1875 76.765625 
z
" id="DejaVuSans-Oblique-952"/>
       <path d="M 8.015625 75.875 
L 15.828125 75.875 
Q 23.140625 64.359375 26.78125 53.3125 
Q 30.421875 42.28125 30.421875 31.390625 
Q 30.421875 20.453125 26.78125 9.375 
Q 23.140625 -1.703125 15.828125 -13.1875 
L 8.015625 -13.1875 
Q 14.5 -2 17.703125 9.0625 
Q 20.90625 20.125 20.90625 31.390625 
Q 20.90625 42.671875 17.703125 53.65625 
Q 14.5 64.65625 8.015625 75.875 
z
" id="DejaVuSans-41"/>
      </defs>
      <use transform="translate(0 0.234375)" xlink:href="#DejaVuSans-65"/>
      <use transform="translate(68.408203 0.234375)" xlink:href="#DejaVuSans-110"/>
      <use transform="translate(131.787109 0.234375)" xlink:href="#DejaVuSans-103"/>
      <use transform="translate(195.263672 0.234375)" xlink:href="#DejaVuSans-108"/>
      <use transform="translate(223.046875 0.234375)" xlink:href="#DejaVuSans-101"/>
      <use transform="translate(284.570312 0.234375)" xlink:href="#DejaVuSans-32"/>
      <use transform="translate(316.357422 0.234375)" xlink:href="#DejaVuSans-40"/>
      <use transform="translate(355.371094 0.234375)" xlink:href="#DejaVuSans-50"/>
      <use transform="translate(418.994141 0.234375)" xlink:href="#DejaVuSans-Oblique-952"/>
      <use transform="translate(480.175781 0.234375)" xlink:href="#DejaVuSans-41"/>
     </g>
    </g>
   </g>
   <g id="matplotlib.axis_2">
    <g id="text_9">
     <!-- Log Intensity (a.u.) -->
     <g transform="translate(18.597656 186.697734)rotate(-90)scale(0.15 -0.15)">
      <defs>
       <path d="M 9.8125 72.90625 
L 19.671875 72.90625 
L 19.671875 8.296875 
L 55.171875 8.296875 
L 55.171875 0 
L 9.8125 0 
z
" id="DejaVuSans-76"/>
       <path d="M 30.609375 48.390625 
Q 23.390625 48.390625 19.1875 42.75 
Q 14.984375 37.109375 14.984375 27.296875 
Q 14.984375 17.484375 19.15625 11.84375 
Q 23.34375 6.203125 30.609375 6.203125 
Q 37.796875 6.203125 41.984375 11.859375 
Q 46.1875 17.53125 46.1875 27.296875 
Q 46.1875 37.015625 41.984375 42.703125 
Q 37.796875 48.390625 30.609375 48.390625 
z
M 30.609375 56 
Q 42.328125 56 49.015625 48.375 
Q 55.71875 40.765625 55.71875 27.296875 
Q 55.71875 13.875 49.015625 6.21875 
Q 42.328125 -1.421875 30.609375 -1.421875 
Q 18.84375 -1.421875 12.171875 6.21875 
Q 5.515625 13.875 5.515625 27.296875 
Q 5.515625 40.765625 12.171875 48.375 
Q 18.84375 56 30.609375 56 
z
" id="DejaVuSans-111"/>
       <path d="M 9.8125 72.90625 
L 19.671875 72.90625 
L 19.671875 0 
L 9.8125 0 
z
" id="DejaVuSans-73"/>
       <path d="M 18.3125 70.21875 
L 18.3125 54.6875 
L 36.8125 54.6875 
L 36.8125 47.703125 
L 18.3125 47.703125 
L 18.3125 18.015625 
Q 18.3125 11.328125 20.140625 9.421875 
Q 21.96875 7.515625 27.59375 7.515625 
L 36.8125 7.515625 
L 36.8125 0 
L 27.59375 0 
Q 17.1875 0 13.234375 3.875 
Q 9.28125 7.765625 9.28125 18.015625 
L 9.28125 47.703125 
L 2.6875 47.703125 
L 2.6875 54.6875 
L 9.28125 54.6875 
L 9.28125 70.21875 
z
" id="DejaVuSans-116"/>
       <path d="M 44.28125 53.078125 
L 44.28125 44.578125 
Q 40.484375 46.53125 36.375 47.5 
Q 32.28125 48.484375 27.875 48.484375 
Q 21.1875 48.484375 17.84375 46.4375 
Q 14.5 44.390625 14.5 40.28125 
Q 14.5 37.15625 16.890625 35.375 
Q 19.28125 33.59375 26.515625 31.984375 
L 29.59375 31.296875 
Q 39.15625 29.25 43.1875 25.515625 
Q 47.21875 21.78125 47.21875 15.09375 
Q 47.21875 7.46875 41.1875 3.015625 
Q 35.15625 -1.421875 24.609375 -1.421875 
Q 20.21875 -1.421875 15.453125 -0.5625 
Q 10.6875 0.296875 5.421875 2 
L 5.421875 11.28125 
Q 10.40625 8.6875 15.234375 7.390625 
Q 20.0625 6.109375 24.8125 6.109375 
Q 31.15625 6.109375 34.5625 8.28125 
Q 37.984375 10.453125 37.984375 14.40625 
Q 37.984375 18.0625 35.515625 20.015625 
Q 33.0625 21.96875 24.703125 23.78125 
L 21.578125 24.515625 
Q 13.234375 26.265625 9.515625 29.90625 
Q 5.8125 33.546875 5.8125 39.890625 
Q 5.8125 47.609375 11.28125 51.796875 
Q 16.75 56 26.8125 56 
Q 31.78125 56 36.171875 55.265625 
Q 40.578125 54.546875 44.28125 53.078125 
z
" id="DejaVuSans-115"/>
       <path d="M 9.421875 54.6875 
L 18.40625 54.6875 
L 18.40625 0 
L 9.421875 0 
z
M 9.421875 75.984375 
L 18.40625 75.984375 
L 18.40625 64.59375 
L 9.421875 64.59375 
z
" id="DejaVuSans-105"/>
       <path d="M 32.171875 -5.078125 
Q 28.375 -14.84375 24.75 -17.8125 
Q 21.140625 -20.796875 15.09375 -20.796875 
L 7.90625 -20.796875 
L 7.90625 -13.28125 
L 13.1875 -13.28125 
Q 16.890625 -13.28125 18.9375 -11.515625 
Q 21 -9.765625 23.484375 -3.21875 
L 25.09375 0.875 
L 2.984375 54.6875 
L 12.5 54.6875 
L 29.59375 11.921875 
L 46.6875 54.6875 
L 56.203125 54.6875 
z
" id="DejaVuSans-121"/>
       <path d="M 34.28125 27.484375 
Q 23.390625 27.484375 19.1875 25 
Q 14.984375 22.515625 14.984375 16.5 
Q 14.984375 11.71875 18.140625 8.90625 
Q 21.296875 6.109375 26.703125 6.109375 
Q 34.1875 6.109375 38.703125 11.40625 
Q 43.21875 16.703125 43.21875 25.484375 
L 43.21875 27.484375 
z
M 52.203125 31.203125 
L 52.203125 0 
L 43.21875 0 
L 43.21875 8.296875 
Q 40.140625 3.328125 35.546875 0.953125 
Q 30.953125 -1.421875 24.3125 -1.421875 
Q 15.921875 -1.421875 10.953125 3.296875 
Q 6 8.015625 6 15.921875 
Q 6 25.140625 12.171875 29.828125 
Q 18.359375 34.515625 30.609375 34.515625 
L 43.21875 34.515625 
L 43.21875 35.40625 
Q 43.21875 41.609375 39.140625 45 
Q 35.0625 48.390625 27.6875 48.390625 
Q 23 48.390625 18.546875 47.265625 
Q 14.109375 46.140625 10.015625 43.890625 
L 10.015625 52.203125 
Q 14.9375 54.109375 19.578125 55.046875 
Q 24.21875 56 28.609375 56 
Q 40.484375 56 46.34375 49.84375 
Q 52.203125 43.703125 52.203125 31.203125 
z
" id="DejaVuSans-97"/>
       <path d="M 10.6875 12.40625 
L 21 12.40625 
L 21 0 
L 10.6875 0 
z
" id="DejaVuSans-46"/>
       <path d="M 8.5 21.578125 
L 8.5 54.6875 
L 17.484375 54.6875 
L 17.484375 21.921875 
Q 17.484375 14.15625 20.5 10.265625 
Q 23.53125 6.390625 29.59375 6.390625 
Q 36.859375 6.390625 41.078125 11.03125 
Q 45.3125 15.671875 45.3125 23.6875 
L 45.3125 54.6875 
L 54.296875 54.6875 
L 54.296875 0 
L 45.3125 0 
L 45.3125 8.40625 
Q 42.046875 3.421875 37.71875 1 
Q 33.40625 -1.421875 27.6875 -1.421875 
Q 18.265625 -1.421875 13.375 4.4375 
Q 8.5 10.296875 8.5 21.578125 
z
M 31.109375 56 
z
" id="DejaVuSans-117"/>
      </defs>
      <use xlink:href="#DejaVuSans-76"/>
      <use x="53.962891" xlink:href="#DejaVuSans-111"/>
      <use x="115.144531" xlink:href="#DejaVuSans-103"/>
      <use x="178.621094" xlink:href="#DejaVuSans-32"/>
      <use x="210.408203" xlink:href="#DejaVuSans-73"/>
      <use x="239.900391" xlink:href="#DejaVuSans-110"/>
      <use x="303.279297" xlink:href="#DejaVuSans-116"/>
      <use x="342.488281" xlink:href="#DejaVuSans-101"/>
      <use x="404.011719" xlink:href="#DejaVuSans-110"/>
      <use x="467.390625" xlink:href="#DejaVuSans-115"/>
      <use x="519.490234" xlink:href="#DejaVuSans-105"/>
      <use x="547.273438" xlink:href="#DejaVuSans-116"/>
      <use x="586.482422" xlink:href="#DejaVuSans-121"/>
      <use x="645.662109" xlink:href="#DejaVuSans-32"/>
      <use x="677.449219" xlink:href="#DejaVuSans-40"/>
      <use x="716.462891" xlink:href="#DejaVuSans-97"/>
      <use x="777.742188" xlink:href="#DejaVuSans-46"/>
      <use x="809.529297" xlink:href="#DejaVuSans-117"/>
      <use x="872.908203" xlink:href="#DejaVuSans-46"/>
      <use x="904.695312" xlink:href="#DejaVuSans-41"/>
     </g>
    </g>
   </g>
   <g id="line2d_8">
    <path clip-path="url(#p537875981a)" d="M 25.634477 100.335523 
L 26.395416 99.441699 
L 27.156355 99.972752 
L 27.917294 99.171319 
L 28.678233 98.74731 
L 30.200112 98.348325 
L 30.961051 97.065911 
L 31.72199 96.310538 
L 32.482929 96.402997 
L 33.243868 95.113858 
L 34.004808 94.99019 
L 34.765747 93.909687 
L 36.287625 92.795525 
L 37.809503 91.031136 
L 38.570443 89.550459 
L 39.331382 89.439918 
L 40.092321 87.748198 
L 41.614199 85.655428 
L 44.657956 78.446826 
L 45.418895 75.252049 
L 46.179834 71.388917 
L 46.940773 68.878784 
L 47.701713 70.380817 
L 48.462652 78.483134 
L 49.223591 88.197954 
L 49.98453 92.165514 
L 50.745469 92.917862 
L 52.267348 92.631814 
L 53.789226 91.5426 
L 54.550165 90.15712 
L 55.311104 90.15712 
L 56.832983 89.18394 
L 57.593922 88.147566 
L 58.354861 86.443476 
L 59.1158 86.335469 
L 60.637678 85.315565 
L 61.398618 83.829753 
L 62.920496 81.877169 
L 63.681435 80.608772 
L 64.442374 79.968323 
L 65.964253 77.918784 
L 66.725192 76.565417 
L 67.486131 75.562832 
L 69.768948 71.606617 
L 70.529888 70.225419 
L 71.290827 69.180641 
L 72.812705 66.130367 
L 73.573644 64.71716 
L 77.37834 55.486889 
L 78.900218 50.802862 
L 80.422097 44.584309 
L 81.183036 40.64819 
L 81.943975 37.506906 
L 82.704914 36.8583 
L 83.465853 41.304312 
L 84.226793 49.834592 
L 84.987732 55.270444 
L 85.748671 55.709334 
L 87.270549 52.875011 
L 88.792428 48.242145 
L 90.314306 41.783638 
L 91.836184 33.000179 
L 92.597123 28.852874 
L 93.358063 27.758151 
L 94.119002 35.765629 
L 95.64088 75.370406 
L 96.401819 86.957678 
L 97.162758 91.658739 
L 97.923698 93.978593 
L 98.684637 95.604413 
L 100.206515 97.206338 
L 100.967454 98.136636 
L 101.728393 98.171789 
L 102.489333 99.079831 
L 103.250272 99.565607 
L 104.011211 99.140785 
L 104.77215 100.112124 
L 106.294028 100.496368 
L 107.054968 99.941189 
L 107.815907 99.802797 
L 108.576846 98.928118 
L 109.337785 99.226379 
L 110.859663 98.549971 
L 111.620603 97.920982 
L 113.142481 97.59248 
L 113.90342 96.245485 
L 114.664359 95.816219 
L 116.947177 93.568072 
L 117.708116 91.555972 
L 118.469055 91.400421 
L 119.990933 88.341945 
L 120.751873 87.77106 
L 121.512812 85.848283 
L 124.556569 80.262666 
L 125.317508 77.969547 
L 126.078447 76.28417 
L 126.839386 74.231728 
L 127.600325 71.503353 
L 131.405021 54.954761 
L 132.16596 54.956721 
L 132.926899 61.295239 
L 134.448778 88.620679 
L 135.209717 96.94858 
L 136.731595 101.27702 
L 137.492534 102.284487 
L 138.253474 102.180445 
L 139.014413 101.044786 
L 139.775352 101.464427 
L 140.536291 100.880261 
L 141.29723 99.947498 
L 142.819109 98.68734 
L 143.580048 97.724496 
L 144.340987 96.299684 
L 145.862865 93.885125 
L 148.145683 89.488985 
L 151.189439 82.524971 
L 152.711318 77.399555 
L 154.233196 71.891405 
L 154.994135 67.857716 
L 155.755074 64.578092 
L 157.276953 56.917057 
L 158.037892 55.998232 
L 158.798831 61.933046 
L 159.55977 76.745893 
L 160.320709 95.399675 
L 161.081649 107.209756 
L 161.842588 112.18959 
L 162.603527 115.055281 
L 163.364466 116.727465 
L 164.125405 117.707569 
L 164.886344 117.45879 
L 165.647284 119.496307 
L 166.408223 118.025523 
L 167.169162 119.397301 
L 167.930101 119.939703 
L 168.69104 119.72414 
L 169.451979 120.46504 
L 170.212919 119.709838 
L 170.973858 119.925273 
L 171.734797 121.123029 
L 172.495736 120.613017 
L 173.256675 121.73716 
L 174.017614 121.908819 
L 174.778554 122.208225 
L 175.539493 122.113274 
L 176.300432 121.397457 
L 177.061371 122.239958 
L 177.82231 121.987251 
L 178.583249 121.520434 
L 179.344189 121.815035 
L 180.105128 121.168551 
L 180.866067 121.613078 
L 181.627006 121.259853 
L 182.387945 122.176533 
L 183.148884 121.259853 
L 183.909824 122.559605 
L 184.670763 121.815035 
L 185.431702 120.583349 
L 186.192641 122.081707 
L 186.95358 122.30355 
L 187.714519 122.065938 
L 188.475459 122.83467 
L 189.236398 122.479296 
L 189.997337 121.520434 
L 190.758276 121.721615 
L 191.519215 121.613078 
L 192.280154 122.41524 
L 193.041094 120.672463 
L 194.562972 119.538862 
L 195.323911 119.968591 
L 196.08485 118.619532 
L 197.606729 118.186082 
L 198.367668 119.2987 
L 199.889546 119.144563 
L 200.650485 118.880622 
L 201.411424 117.576314 
L 202.172364 117.681261 
L 203.694242 115.700641 
L 204.455181 115.895217 
L 205.21612 113.892628 
L 205.977059 112.70834 
L 206.737999 110.637993 
L 207.498938 110.539969 
L 209.020816 106.913278 
L 209.781755 106.620394 
L 210.542694 104.117916 
L 211.303634 102.578214 
L 212.064573 99.790255 
L 212.825512 98.371961 
L 215.108329 90.127683 
L 215.869269 86.124453 
L 217.391147 80.220796 
L 218.152086 78.289257 
L 218.913025 79.285314 
L 219.673964 85.872939 
L 220.434904 97.759054 
L 221.195843 111.467323 
L 221.956782 118.119053 
L 222.717721 121.597613 
L 224.239599 124.554261 
L 225.000539 122.41524 
L 225.761478 124.835462 
L 226.522417 124.676884 
L 227.283356 125.209576 
L 228.044295 125.444108 
L 228.805234 125.191629 
L 230.327113 125.191629 
L 231.088052 125.371702 
L 231.848991 124.121333 
L 232.60993 124.172877 
L 233.370869 124.764854 
L 234.131809 122.785901 
L 234.892748 122.144883 
L 236.414626 122.36731 
L 237.175565 121.815035 
L 237.936504 120.21554 
L 238.697444 120.568529 
L 239.458383 118.347716 
L 240.219322 118.633204 
L 240.980261 118.293718 
L 241.7412 117.367777 
L 243.263079 113.62439 
L 244.024018 112.053812 
L 244.784957 110.775899 
L 245.545896 108.694862 
L 246.306835 106.142728 
L 247.067774 104.260822 
L 247.828714 101.250365 
L 248.589653 99.019032 
L 250.87247 89.760648 
L 251.633409 87.786313 
L 252.394349 89.678003 
L 253.155288 96.078238 
L 253.916227 107.286584 
L 254.677166 116.103685 
L 255.438105 120.941793 
L 256.199044 120.259383 
L 256.959984 120.613017 
L 257.720923 121.138193 
L 258.481862 120.39139 
L 259.242801 120.288655 
L 260.00374 118.825421 
L 262.286558 116.177694 
L 263.808436 112.847858 
L 264.569375 111.558985 
L 265.330315 109.779246 
L 266.091254 107.175688 
L 266.852193 105.152127 
L 269.89595 93.63601 
L 270.656889 93.197792 
L 271.417828 95.562274 
L 272.939706 109.477794 
L 273.700645 116.079066 
L 274.461585 116.854177 
L 275.222524 116.551177 
L 275.983463 116.40109 
L 276.744402 115.846426 
L 277.505341 117.341836 
L 278.26628 120.851682 
L 279.02722 126.143013 
L 279.788159 129.244983 
L 281.310037 130.285505 
L 282.070976 131.096402 
L 282.831915 129.673101 
L 283.592855 129.458094 
L 284.353794 129.673101 
L 285.114733 128.596038 
L 285.875672 130.263364 
L 286.636611 130.936581 
L 287.39755 128.308585 
L 288.15849 126.997691 
L 288.919429 128.227079 
L 289.680368 129.160262 
L 290.441307 127.466191 
L 291.202246 125.209576 
L 291.963185 126.424559 
L 292.724125 124.57174 
L 294.246003 123.88224 
L 295.006942 121.971544 
L 295.767881 120.986974 
L 296.52882 118.551291 
L 297.28976 117.328876 
L 298.050699 114.890742 
L 298.811638 111.774226 
L 299.572577 110.520411 
L 300.333516 110.520411 
L 301.094455 111.661242 
L 301.855395 115.280392 
L 302.616334 121.290364 
L 303.377273 124.087032 
L 304.899151 124.624255 
L 306.42103 123.494509 
L 307.181969 122.495336 
L 307.942908 121.259853 
L 308.703847 120.39139 
L 309.464786 118.442504 
L 310.225725 118.23984 
L 310.986665 114.738953 
L 311.747604 113.903869 
L 312.508543 110.432599 
L 313.269482 108.667688 
L 314.030421 106.429843 
L 316.313239 97.065911 
L 317.074178 95.83218 
L 317.835117 95.041641 
L 318.596056 97.828319 
L 319.356995 99.110289 
L 320.117935 100.137551 
L 320.878874 97.695736 
L 321.639813 96.315967 
L 322.400752 94.38117 
L 323.161691 95.965596 
L 323.92263 101.816374 
L 325.444509 121.062465 
L 326.966387 131.770015 
L 327.727326 132.414517 
L 328.488265 133.680911 
L 329.249205 134.040484 
L 330.010144 134.092291 
L 330.771083 133.988787 
L 331.532022 135.811653 
L 332.292961 134.669625 
L 333.81484 133.452552 
L 334.575779 134.118236 
L 335.336718 135.044334 
L 336.097657 132.977433 
L 336.858596 133.101561 
L 337.619535 132.682102 
L 338.380475 131.793581 
L 339.141414 130.642548 
L 339.902353 130.374272 
L 340.663292 128.803477 
L 341.424231 127.883717 
L 342.18517 125.263497 
L 342.94611 124.659328 
L 343.707049 123.030736 
L 344.467988 123.561495 
L 345.228927 127.683995 
L 345.989866 130.800429 
L 346.750805 134.431773 
L 347.511745 135.315588 
L 348.272684 137.572797 
L 349.033623 137.216049 
L 349.794562 138.087381 
L 350.555501 137.995772 
L 351.31644 138.333383 
L 352.07738 138.519543 
L 352.838319 137.275143 
L 353.599258 137.692893 
L 354.360197 135.728265 
L 355.121136 137.334381 
L 356.643015 136.690615 
L 358.164893 134.170211 
L 359.686771 133.553779 
L 361.20865 137.632771 
L 361.969589 138.45733 
L 362.730528 138.644451 
L 363.491467 139.21467 
L 364.252406 139.118694 
L 365.013345 139.343234 
L 365.774285 141.782665 
L 366.535224 139.897394 
L 367.296163 139.56988 
L 368.057102 141.218886 
L 368.818041 140.804521 
L 369.57898 139.343234 
L 370.33992 141.534391 
L 371.861798 139.963433 
L 372.622737 138.959576 
L 373.383676 140.702031 
L 374.144615 139.375482 
L 374.905555 140.770309 
L 375.666494 140.941855 
L 376.427433 140.804521 
L 377.188372 140.029653 
L 377.949311 138.613164 
L 378.71025 141.463922 
L 379.47119 139.897394 
L 380.232129 139.246747 
L 380.993068 138.056806 
L 381.754007 138.519543 
L 382.514946 138.271647 
L 383.275885 136.951904 
L 384.036825 137.275143 
L 384.797764 137.874164 
L 385.558703 137.662813 
L 386.319642 137.098295 
L 387.080581 134.616566 
L 387.84152 134.300638 
L 388.60246 132.317944 
L 389.363399 132.682102 
L 390.885277 129.933661 
L 391.646216 129.308719 
L 393.168095 125.553126 
L 393.929034 121.70608 
L 395.450912 116.103685 
L 396.211851 114.564988 
L 396.97279 112.389418 
L 397.73373 109.189307 
L 398.494669 108.61343 
L 399.255608 111.07409 
L 400.016547 114.750595 
L 400.777486 120.971904 
L 401.538425 129.479508 
L 402.299365 134.222297 
L 403.821243 140.129324 
L 404.582182 141.889854 
L 405.343121 142.359915 
L 406.10406 140.804521 
L 406.865 141.463922 
L 407.625939 142.690783 
L 408.386878 142.616864 
L 409.147817 143.063809 
L 409.908756 144.258203 
L 410.669696 143.634373 
L 411.430635 143.442684 
L 412.191574 142.214304 
L 412.952513 142.506408 
L 413.713452 143.13911 
L 414.474391 143.557515 
L 415.235331 142.433051 
L 415.99627 143.4809 
L 416.757209 140.87309 
L 417.518148 142.913907 
L 418.279087 140.941855 
L 419.040026 142.543171 
L 419.800966 140.464564 
L 420.561905 142.105669 
L 421.322844 142.616864 
L 422.083783 139.537372 
L 422.844722 141.499131 
L 423.605661 138.864607 
L 424.366601 140.464564 
L 425.12754 141.288643 
L 425.888479 140.498345 
L 426.649418 140.029653 
L 427.410357 141.323597 
L 428.171296 140.97631 
L 428.932236 138.959576 
L 429.693175 139.086787 
L 431.215053 135.979297 
L 431.975992 133.226331 
L 432.736931 132.780145 
L 433.497871 130.396515 
L 434.25881 130.823068 
L 435.019749 129.266209 
L 435.780688 129.393963 
L 436.541627 130.508037 
L 437.302566 132.006719 
L 438.063506 136.893595 
L 438.824445 136.951904 
L 439.585384 135.867405 
L 440.346323 139.118694 
L 441.868201 140.43083 
L 442.629141 140.532174 
L 443.39008 141.393658 
L 444.151019 142.764929 
L 444.911958 144.416711 
L 446.433836 140.941855 
L 447.194776 143.13911 
L 447.955715 143.13911 
L 448.716654 141.961578 
L 449.477593 142.433051 
L 450.238532 142.178038 
L 450.999471 142.433051 
L 451.760411 141.782665 
L 452.52135 139.798673 
L 453.282289 137.1571 
L 454.043228 137.393765 
L 454.804167 138.148647 
L 455.565106 135.424947 
L 456.326046 135.098342 
L 457.086985 135.071323 
L 457.847924 136.460707 
L 458.608863 138.675779 
L 459.369802 140.43083 
L 460.130741 143.214646 
L 460.891681 142.653795 
L 461.65262 144.179338 
L 462.413559 143.214646 
L 463.174498 143.634373 
L 463.935437 143.519177 
L 464.696376 145.020551 
L 465.457316 143.750121 
L 466.979194 142.359915 
L 467.740133 142.359915 
L 468.501072 141.463922 
L 469.262011 141.997521 
L 470.022951 141.288643 
L 470.78389 141.889854 
L 471.544829 141.499131 
L 472.305768 142.690783 
L 473.066707 141.25374 
L 473.827646 141.114627 
L 474.588586 142.469702 
L 475.349525 143.595913 
L 476.110464 142.396455 
L 476.871403 143.366432 
L 477.632342 145.556372 
L 478.393281 144.73688 
L 479.154221 143.063809 
L 479.91516 143.866426 
L 480.676099 143.634373 
L 481.437038 145.225232 
L 482.197977 141.961578 
L 482.958916 144.022375 
L 483.719856 144.817589 
L 484.480795 141.997521 
L 485.241734 141.358602 
L 486.002673 140.397143 
L 486.763612 140.363503 
L 487.524551 136.661756 
L 488.285491 136.632932 
L 489.04643 135.479813 
L 489.807369 135.397561 
L 490.568308 136.922732 
L 491.329247 135.125391 
L 492.090186 138.395277 
L 492.851126 137.995772 
L 493.612065 140.363503 
L 494.373004 142.069566 
L 495.133943 138.927878 
L 495.894882 141.393658 
L 496.655821 138.8015 
L 497.416761 137.783359 
L 498.1777 138.45733 
L 498.938639 136.2897 
L 499.699578 132.780145 
L 500.460517 133.91145 
L 501.221456 131.21121 
L 501.982396 131.096402 
L 502.743335 128.596038 
L 503.504274 129.543867 
L 504.265213 130.130942 
L 505.026152 132.317944 
L 506.548031 135.617526 
L 507.30897 135.951276 
L 508.069909 136.632932 
L 508.830848 138.395277 
L 509.591787 139.864442 
L 510.352726 142.913907 
L 511.113666 142.690783 
L 511.874605 143.214646 
L 512.635544 140.838781 
L 513.396483 142.579989 
L 514.918361 137.542866 
L 515.679301 138.833033 
L 516.44024 138.02627 
L 517.201179 137.995772 
L 517.962118 134.170211 
L 518.723057 131.073506 
L 519.483996 130.642548 
L 521.005875 125.462244 
L 522.527753 123.729777 
L 523.288692 126.424559 
L 524.049631 130.065003 
L 524.810571 137.039632 
L 525.57151 138.959576 
L 526.332449 143.328396 
L 527.093388 144.73688 
L 527.854327 145.473161 
L 528.615266 144.73688 
L 529.376206 146.621443 
L 530.137145 145.72366 
L 530.898084 145.934411 
L 531.659023 145.976783 
L 533.180901 145.390235 
L 533.941841 146.019229 
L 534.70278 146.019229 
L 535.463719 145.431662 
L 536.224658 146.621443 
L 536.985597 146.534488 
L 537.746536 143.788827 
L 538.507476 145.598085 
L 539.268415 143.827595 
L 540.029354 145.51473 
L 540.790293 143.557515 
L 541.551232 143.13911 
L 542.312171 142.876576 
L 543.073111 144.696626 
L 543.83405 142.690783 
L 544.594989 142.359915 
L 545.355928 141.569703 
L 546.116867 142.433051 
L 546.877806 140.633945 
L 547.638746 139.311029 
L 548.399685 138.675779 
L 549.160624 136.460707 
L 550.682502 132.92796 
L 551.443442 130.152962 
L 552.204381 128.886954 
L 552.96532 129.999243 
L 553.726259 130.285505 
L 554.487198 133.151392 
L 555.248137 133.452552 
L 556.009077 136.748435 
L 556.770016 136.346568 
L 557.530955 136.489326 
L 558.291894 135.672832 
L 559.052833 131.699453 
L 559.813772 129.716333 
L 561.335651 124.241773 
L 562.09659 122.802146 
L 562.857529 120.568529 
L 563.618468 118.853005 
L 564.379407 119.496307 
L 565.140347 124.362816 
L 565.901286 131.050631 
L 566.662225 135.756029 
L 568.184103 142.616864 
L 568.945042 145.348878 
L 569.705982 144.376986 
L 570.466921 144.258203 
L 571.22786 146.665038 
L 571.988799 143.827595 
L 572.749738 145.266377 
L 573.510677 146.06175 
L 574.271617 144.218739 
L 575.032556 143.944275 
L 576.554434 143.063809 
L 577.315373 143.366432 
L 578.076312 141.605067 
L 578.837252 141.114627 
L 579.598191 137.934892 
L 581.120069 138.644451 
L 581.881008 136.632932 
L 583.402887 139.864442 
L 584.163826 140.32991 
L 584.163826 140.32991 
" style="fill:none;stroke:#0000ff;stroke-linecap:square;stroke-width:1.5;"/>
   </g>
   <g id="line2d_9">
    <path clip-path="url(#p537875981a)" d="M 25.549788 200.298757 
L 33.217638 200.143868 
L 36.374988 199.874943 
L 37.728138 199.583124 
L 38.630238 199.215327 
L 39.532338 198.512813 
L 39.983388 197.879347 
L 40.434438 196.647381 
L 40.885488 193.10933 
L 41.336538 183.860617 
L 42.238638 159.648578 
L 42.689688 157.553948 
L 43.140738 164.393093 
L 44.042838 188.947786 
L 44.493887 195.228221 
L 44.944938 197.421619 
L 45.395987 198.295981 
L 46.298088 199.133156 
L 47.200187 199.543348 
L 48.553337 199.849273 
L 50.808587 200.057295 
L 54.868037 200.154592 
L 61.633788 200.087465 
L 66.595338 199.86128 
L 69.301637 199.55567 
L 71.105838 199.151443 
L 72.458988 198.578602 
L 73.361087 197.907132 
L 73.812138 197.40651 
L 74.263188 196.724401 
L 74.714238 195.757292 
L 75.165288 194.240166 
L 75.616338 191.022469 
L 76.067388 182.543752 
L 76.969488 151.660476 
L 77.420537 143.035732 
L 77.871588 144.207616 
L 78.322638 153.784839 
L 79.224738 183.117906 
L 79.675788 190.956733 
L 80.126838 193.929417 
L 80.577888 195.210343 
L 81.028938 195.92158 
L 81.479988 196.327284 
L 81.931038 196.519694 
L 82.382088 196.542878 
L 82.833138 196.414516 
L 83.284188 196.132358 
L 83.735238 195.67814 
L 84.186287 195.004728 
L 84.637338 194.0415 
L 85.088388 192.665746 
L 85.539438 190.631673 
L 85.990488 187.059843 
L 86.441537 178.699714 
L 87.794688 130.016832 
L 88.245737 126.589442 
L 88.696787 132.64706 
L 89.147838 146.656401 
L 90.049937 180.118492 
L 90.500987 188.0383 
L 90.952038 191.54288 
L 91.403088 193.558671 
L 91.854138 194.95105 
L 92.756238 196.729365 
L 93.658338 197.771118 
L 94.560438 198.428554 
L 95.913588 199.034417 
L 97.717788 199.488793 
L 99.973038 199.790031 
L 104.032488 200.027637 
L 109.896138 200.11101 
L 115.308738 199.989492 
L 118.466088 199.709396 
L 120.270287 199.323559 
L 121.172388 198.978954 
L 122.074488 198.430774 
L 122.976587 197.469777 
L 123.427638 196.703315 
L 123.878688 195.587799 
L 124.329737 193.71191 
L 124.780788 189.345118 
L 125.231838 178.785982 
L 126.133938 149.487353 
L 126.584988 143.956859 
L 127.036038 147.130135 
L 127.487088 157.051568 
L 128.389188 184.603331 
L 128.840238 191.947126 
L 129.291288 194.935681 
L 129.742338 196.36923 
L 130.193388 197.272008 
L 131.095487 198.362287 
L 131.997588 198.968286 
L 133.350737 199.466079 
L 135.154938 199.792145 
L 137.861238 199.998963 
L 141.469638 200.037361 
L 144.626988 199.875649 
L 146.431188 199.594533 
L 147.784337 199.128358 
L 148.686438 198.515486 
L 149.137488 198.021865 
L 149.588538 197.298256 
L 150.039587 196.089813 
L 150.490637 193.298831 
L 150.941688 185.954302 
L 151.843788 160.629134 
L 152.294837 154.647309 
L 152.745888 156.710804 
L 153.196938 164.416432 
L 154.099038 187.410899 
L 154.550088 193.869619 
L 155.001138 196.463774 
L 155.452188 197.595094 
L 155.903237 198.263778 
L 156.805338 199.048531 
L 157.707438 199.477202 
L 159.060587 199.82128 
L 161.315838 200.082712 
L 164.473187 200.250127 
L 171.689988 200.361905 
L 186.123587 200.348445 
L 188.829887 200.205656 
L 189.280938 200.074157 
L 189.731988 199.665441 
L 190.183038 198.648824 
L 190.634088 197.115329 
L 191.085138 196.175988 
L 191.536188 196.560743 
L 192.889338 199.675721 
L 193.340388 200.053735 
L 194.242488 200.230512 
L 196.948787 200.271675 
L 201.910338 200.126243 
L 204.616638 199.884134 
L 206.420838 199.526621 
L 207.322938 199.198366 
L 208.225038 198.661146 
L 208.676087 198.255183 
L 209.127138 197.697152 
L 209.578187 196.900422 
L 210.029238 195.655374 
L 210.480288 193.140335 
L 210.931338 186.780186 
L 212.284488 153.085893 
L 212.735537 153.276252 
L 213.186587 158.269637 
L 213.637637 167.451447 
L 214.539738 189.07192 
L 214.990788 194.177919 
L 215.441838 196.288254 
L 215.892888 197.352535 
L 216.343937 198.036928 
L 217.246037 198.872025 
L 218.148138 199.342682 
L 219.501287 199.736557 
L 221.305488 200.003937 
L 224.462837 200.208284 
L 230.326488 200.320348 
L 237.543288 200.256829 
L 240.249588 200.072257 
L 241.602737 199.813288 
L 242.504837 199.441071 
L 242.955888 199.107349 
L 243.406938 198.488105 
L 243.857988 196.878141 
L 244.309038 192.602539 
L 245.211138 178.104887 
L 245.662188 176.177607 
L 246.113237 178.663158 
L 246.564287 182.944012 
L 247.466387 194.58031 
L 247.917438 197.620407 
L 248.368488 198.822347 
L 248.819538 199.313428 
L 249.721637 199.764452 
L 251.074787 200.053735 
L 253.330038 200.227882 
L 257.389487 200.256829 
L 259.644738 200.122433 
L 260.997887 199.869995 
L 261.448937 199.697932 
L 261.899987 199.401298 
L 262.351037 198.693883 
L 262.802088 196.666974 
L 263.253138 192.260572 
L 263.704188 186.683087 
L 264.155237 183.800217 
L 264.606288 185.085991 
L 265.057338 187.687323 
L 265.959437 195.597667 
L 266.410487 198.146357 
L 266.861538 199.228858 
L 267.312588 199.629728 
L 268.214688 199.898752 
L 268.665738 199.873764 
L 269.116787 199.627162 
L 270.018887 198.583068 
L 270.469938 198.613017 
L 271.372038 199.335769 
L 272.274137 200.090793 
L 273.176238 200.289167 
L 276.333588 200.375132 
L 285.354588 200.346042 
L 288.962988 200.187509 
L 290.316138 199.971979 
L 291.218237 199.594999 
L 291.669287 199.062424 
L 292.120337 197.551394 
L 292.571388 194.081326 
L 293.022438 189.272236 
L 293.473488 186.349644 
L 293.924537 187.291353 
L 294.375587 189.330493 
L 295.728737 198.067299 
L 296.179788 199.239643 
L 296.630838 199.680161 
L 297.532938 199.985467 
L 299.337137 200.170568 
L 302.494487 200.182735 
L 305.200788 200.008912 
L 306.553937 199.761403 
L 307.456037 199.408693 
L 307.907088 199.081342 
L 308.358138 198.405928 
L 308.809188 196.591371 
L 309.260238 192.410095 
L 309.711288 186.457712 
L 310.162337 182.376668 
L 310.613387 183.034323 
L 311.515488 188.116526 
L 312.417588 195.473628 
L 312.868638 196.988079 
L 313.319688 197.124369 
L 313.770737 196.203297 
L 314.221788 193.162277 
L 314.672837 186.259083 
L 315.123887 177.095909 
L 315.574938 170.887805 
L 316.025988 171.385229 
L 316.928088 178.629199 
L 317.830188 191.826593 
L 318.281237 196.02905 
L 318.732287 197.849861 
L 319.183337 198.622858 
L 320.085438 199.342452 
L 320.987538 199.70378 
L 322.340688 199.986414 
L 324.595938 200.197297 
L 329.106438 200.331391 
L 333.616938 200.277185 
L 334.519038 200.178917 
L 334.970088 200.050174 
L 335.421137 199.68811 
L 335.872187 198.730935 
L 336.774287 195.472449 
L 337.225338 195.543641 
L 338.578488 198.260031 
L 339.029538 199.318263 
L 339.480588 199.91456 
L 339.931637 200.15626 
L 341.284787 200.332591 
L 344.893187 200.417747 
L 350.305788 200.392217 
L 351.207887 200.192044 
L 352.109987 199.64326 
L 352.561037 199.651896 
L 354.816287 200.371043 
L 356.620488 200.441375 
L 374.662487 200.449095 
L 385.487687 200.280779 
L 387.291888 200.07986 
L 388.193988 199.837507 
L 388.645038 199.617369 
L 389.096087 199.202491 
L 389.547137 198.152061 
L 389.998187 195.48954 
L 390.900288 186.39195 
L 391.351337 185.827239 
L 391.802388 188.070803 
L 392.253438 189.603413 
L 392.704488 191.672739 
L 393.606587 197.674555 
L 394.057637 199.052402 
L 394.508688 199.603619 
L 395.410788 199.995174 
L 396.763937 200.217364 
L 399.470237 200.36479 
L 406.687037 200.440169 
L 413.452787 200.362867 
L 414.354888 200.31003 
L 417.963287 200.429317 
L 423.826937 200.299956 
L 425.180088 200.10863 
L 425.631138 199.911964 
L 426.082188 199.39021 
L 426.533238 198.168303 
L 426.984287 196.280131 
L 427.435337 194.970084 
L 427.886387 195.509396 
L 428.337438 196.40186 
L 428.788488 196.774503 
L 429.239537 197.546686 
L 429.690587 198.559404 
L 430.141638 199.045115 
L 430.592688 198.62174 
L 431.043738 197.09831 
L 431.494787 194.980087 
L 431.945838 194.087073 
L 432.847938 196.003743 
L 433.298988 196.486905 
L 434.652137 199.686473 
L 435.103187 200.027637 
L 436.005288 200.2396 
L 438.260538 200.380906 
L 444.575238 200.432693 
L 447.281538 200.346763 
L 447.732588 200.230034 
L 448.183638 199.951406 
L 449.085737 199.207303 
L 452.694138 200.406183 
L 456.753587 200.437757 
L 459.910938 200.30835 
L 460.361987 200.144582 
L 460.813037 199.758823 
L 461.264087 199.155102 
L 461.715137 198.753418 
L 464.872487 200.333072 
L 467.127737 200.42546 
L 475.697688 200.449819 
L 479.757137 200.350127 
L 480.659238 200.137197 
L 481.110288 199.744758 
L 482.012388 198.186752 
L 482.463438 198.136488 
L 482.914488 198.663386 
L 483.365537 198.925431 
L 483.816587 199.038969 
L 485.169738 200.200402 
L 486.071838 200.369119 
L 489.229187 200.437757 
L 492.386538 200.391495 
L 493.288637 200.16866 
L 494.190738 199.731403 
L 496.897038 200.263054 
L 499.603338 200.24582 
L 503.211738 200.437516 
L 509.526437 200.327309 
L 510.879588 200.18369 
L 511.781687 199.87942 
L 512.232737 199.375203 
L 512.683787 198.148551 
L 513.585888 194.008763 
L 514.036937 194.136819 
L 514.487988 195.580697 
L 514.939038 196.221521 
L 515.390088 196.375753 
L 515.841138 197.411617 
L 516.292187 198.737228 
L 516.743237 199.60059 
L 517.194287 199.99328 
L 518.096387 200.236969 
L 520.351638 200.385719 
L 526.215288 200.437033 
L 540.648888 200.396551 
L 542.002038 200.285332 
L 542.453088 200.13029 
L 542.904137 199.762341 
L 543.806237 198.60452 
L 544.257287 198.757467 
L 544.708338 199.193326 
L 545.159387 199.338764 
L 545.610437 199.348215 
L 546.963588 200.193954 
L 547.865688 200.327789 
L 550.120937 200.316508 
L 551.925137 200.15054 
L 552.827238 199.855864 
L 553.278288 199.398525 
L 553.729338 198.270171 
L 554.631437 193.851249 
L 555.082488 193.455845 
L 555.533537 195.016866 
L 555.984588 196.046539 
L 556.435637 196.039904 
L 556.886687 196.584995 
L 557.788788 199.162879 
L 558.239838 199.785571 
L 558.690887 200.048276 
L 559.592988 200.238404 
L 561.848238 200.379462 
L 567.711887 200.43414 
L 570.869238 200.35205 
L 571.320287 200.261378 
L 571.771338 200.039259 
L 572.673437 199.223582 
L 573.124488 199.250891 
L 573.575537 199.574977 
L 574.026588 199.729764 
L 574.477638 199.70963 
L 574.928688 199.823631 
L 575.830787 200.262575 
L 576.732888 200.397032 
L 580.341288 200.430764 
L 581.694437 200.375613 
L 582.596537 200.102445 
L 583.047587 199.842919 
L 583.498637 199.724143 
L 583.949687 199.877063 
L 583.949687 199.877063 
" style="fill:none;stroke:#000000;stroke-linecap:square;stroke-width:1.5;"/>
   </g>
   <g id="patch_3">
    <path d="M 25.717188 224.64 
L 25.717188 7.2 
" style="fill:none;stroke:#000000;stroke-linecap:square;stroke-linejoin:miter;stroke-width:0.8;"/>
   </g>
   <g id="patch_4">
    <path d="M 583.717188 224.64 
L 583.717188 7.2 
" style="fill:none;stroke:#000000;stroke-linecap:square;stroke-linejoin:miter;stroke-width:0.8;"/>
   </g>
   <g id="patch_5">
    <path d="M 25.717188 224.64 
L 583.717188 224.64 
" style="fill:none;stroke:#000000;stroke-linecap:square;stroke-linejoin:miter;stroke-width:0.8;"/>
   </g>
   <g id="patch_6">
    <path d="M 25.717188 7.2 
L 583.717188 7.2 
" style="fill:none;stroke:#000000;stroke-linecap:square;stroke-linejoin:miter;stroke-width:0.8;"/>
   </g>
   <g id="text_10">
    <!-- simulated -->
    <g transform="translate(456.141563 176.32)scale(0.14 -0.14)">
     <defs>
      <path d="M 52 44.1875 
Q 55.375 50.25 60.0625 53.125 
Q 64.75 56 71.09375 56 
Q 79.640625 56 84.28125 50.015625 
Q 88.921875 44.046875 88.921875 33.015625 
L 88.921875 0 
L 79.890625 0 
L 79.890625 32.71875 
Q 79.890625 40.578125 77.09375 44.375 
Q 74.3125 48.1875 68.609375 48.1875 
Q 61.625 48.1875 57.5625 43.546875 
Q 53.515625 38.921875 53.515625 30.90625 
L 53.515625 0 
L 44.484375 0 
L 44.484375 32.71875 
Q 44.484375 40.625 41.703125 44.40625 
Q 38.921875 48.1875 33.109375 48.1875 
Q 26.21875 48.1875 22.15625 43.53125 
Q 18.109375 38.875 18.109375 30.90625 
L 18.109375 0 
L 9.078125 0 
L 9.078125 54.6875 
L 18.109375 54.6875 
L 18.109375 46.1875 
Q 21.1875 51.21875 25.484375 53.609375 
Q 29.78125 56 35.6875 56 
Q 41.65625 56 45.828125 52.96875 
Q 50 49.953125 52 44.1875 
z
" id="DejaVuSans-109"/>
      <path d="M 45.40625 46.390625 
L 45.40625 75.984375 
L 54.390625 75.984375 
L 54.390625 0 
L 45.40625 0 
L 45.40625 8.203125 
Q 42.578125 3.328125 38.25 0.953125 
Q 33.9375 -1.421875 27.875 -1.421875 
Q 17.96875 -1.421875 11.734375 6.484375 
Q 5.515625 14.40625 5.515625 27.296875 
Q 5.515625 40.1875 11.734375 48.09375 
Q 17.96875 56 27.875 56 
Q 33.9375 56 38.25 53.625 
Q 42.578125 51.265625 45.40625 46.390625 
z
M 14.796875 27.296875 
Q 14.796875 17.390625 18.875 11.75 
Q 22.953125 6.109375 30.078125 6.109375 
Q 37.203125 6.109375 41.296875 11.75 
Q 45.40625 17.390625 45.40625 27.296875 
Q 45.40625 37.203125 41.296875 42.84375 
Q 37.203125 48.484375 30.078125 48.484375 
Q 22.953125 48.484375 18.875 42.84375 
Q 14.796875 37.203125 14.796875 27.296875 
z
" id="DejaVuSans-100"/>
     </defs>
     <use xlink:href="#DejaVuSans-115"/>
     <use x="52.099609" xlink:href="#DejaVuSans-105"/>
     <use x="79.882812" xlink:href="#DejaVuSans-109"/>
     <use x="177.294922" xlink:href="#DejaVuSans-117"/>
     <use x="240.673828" xlink:href="#DejaVuSans-108"/>
     <use x="268.457031" xlink:href="#DejaVuSans-97"/>
     <use x="329.736328" xlink:href="#DejaVuSans-116"/>
     <use x="368.945312" xlink:href="#DejaVuSans-101"/>
     <use x="430.46875" xlink:href="#DejaVuSans-100"/>
    </g>
   </g>
   <g id="text_11">
    <!-- synthesised -->
    <g transform="translate(449.014688 103.84)scale(0.14 -0.14)">
     <defs>
      <path d="M 54.890625 33.015625 
L 54.890625 0 
L 45.90625 0 
L 45.90625 32.71875 
Q 45.90625 40.484375 42.875 44.328125 
Q 39.84375 48.1875 33.796875 48.1875 
Q 26.515625 48.1875 22.3125 43.546875 
Q 18.109375 38.921875 18.109375 30.90625 
L 18.109375 0 
L 9.078125 0 
L 9.078125 75.984375 
L 18.109375 75.984375 
L 18.109375 46.1875 
Q 21.34375 51.125 25.703125 53.5625 
Q 30.078125 56 35.796875 56 
Q 45.21875 56 50.046875 50.171875 
Q 54.890625 44.34375 54.890625 33.015625 
z
" id="DejaVuSans-104"/>
     </defs>
     <use xlink:href="#DejaVuSans-115"/>
     <use x="52.099609" xlink:href="#DejaVuSans-121"/>
     <use x="111.279297" xlink:href="#DejaVuSans-110"/>
     <use x="174.658203" xlink:href="#DejaVuSans-116"/>
     <use x="213.867188" xlink:href="#DejaVuSans-104"/>
     <use x="277.246094" xlink:href="#DejaVuSans-101"/>
     <use x="338.769531" xlink:href="#DejaVuSans-115"/>
     <use x="390.869141" xlink:href="#DejaVuSans-105"/>
     <use x="418.652344" xlink:href="#DejaVuSans-115"/>
     <use x="470.751953" xlink:href="#DejaVuSans-101"/>
     <use x="532.275391" xlink:href="#DejaVuSans-100"/>
    </g>
   </g>
  </g>
 </g>
 <defs>
  <clipPath id="p537875981a">
   <rect height="217.44" width="558" x="25.717188" y="7.2"/>
  </clipPath>
 </defs>
</svg>
