<?xml version="1.0" encoding="utf-8" standalone="no"?>
<!DOCTYPE svg PUBLIC "-//W3C//DTD SVG 1.1//EN"
  "http://www.w3.org/Graphics/SVG/1.1/DTD/svg11.dtd">
<!-- Created with matplotlib (https://matplotlib.org/) -->
<svg height="432pt" version="1.1" viewBox="0 0 432 432" width="432pt" xmlns="http://www.w3.org/2000/svg" xmlns:xlink="http://www.w3.org/1999/xlink">
 <metadata>
  <rdf:RDF xmlns:cc="http://creativecommons.org/ns#" xmlns:dc="http://purl.org/dc/elements/1.1/" xmlns:rdf="http://www.w3.org/1999/02/22-rdf-syntax-ns#">
   <cc:Work>
    <dc:type rdf:resource="http://purl.org/dc/dcmitype/StillImage"/>
    <dc:date>2021-02-18T11:42:56.805652</dc:date>
    <dc:format>image/svg+xml</dc:format>
    <dc:creator>
     <cc:Agent>
      <dc:title>Matplotlib v3.3.2, https://matplotlib.org/</dc:title>
     </cc:Agent>
    </dc:creator>
   </cc:Work>
  </rdf:RDF>
 </metadata>
 <defs>
  <style type="text/css">*{stroke-linecap:butt;stroke-linejoin:round;}</style>
 </defs>
 <g id="figure_1">
  <g id="patch_1">
   <path d="M 0 432 
L 432 432 
L 432 0 
L 0 0 
z
" style="fill:none;"/>
  </g>
  <g id="axes_1">
   <g id="patch_2">
    <path d="M 60 375.5 
L 421.2 375.5 
L 421.2 12.298139 
L 60 12.298139 
z
" style="fill:#ffffff;"/>
   </g>
   <g id="matplotlib.axis_1">
    <g id="xtick_1">
     <g id="line2d_1">
      <defs>
       <path d="M 0 0 
L 0 3.5 
" id="ma6c2a02200" style="stroke:#000000;stroke-width:0.8;"/>
      </defs>
      <g>
       <use style="stroke:#000000;stroke-width:0.8;" x="60" xlink:href="#ma6c2a02200" y="375.5"/>
      </g>
     </g>
     <g id="text_1">
      <!-- 0.0 -->
      <g transform="translate(49.662969 392.377969)scale(0.13 -0.13)">
       <defs>
        <path d="M 31.78125 66.40625 
Q 24.171875 66.40625 20.328125 58.90625 
Q 16.5 51.421875 16.5 36.375 
Q 16.5 21.390625 20.328125 13.890625 
Q 24.171875 6.390625 31.78125 6.390625 
Q 39.453125 6.390625 43.28125 13.890625 
Q 47.125 21.390625 47.125 36.375 
Q 47.125 51.421875 43.28125 58.90625 
Q 39.453125 66.40625 31.78125 66.40625 
z
M 31.78125 74.21875 
Q 44.046875 74.21875 50.515625 64.515625 
Q 56.984375 54.828125 56.984375 36.375 
Q 56.984375 17.96875 50.515625 8.265625 
Q 44.046875 -1.421875 31.78125 -1.421875 
Q 19.53125 -1.421875 13.0625 8.265625 
Q 6.59375 17.96875 6.59375 36.375 
Q 6.59375 54.828125 13.0625 64.515625 
Q 19.53125 74.21875 31.78125 74.21875 
z
" id="DejaVuSans-48"/>
        <path d="M 10.6875 12.40625 
L 21 12.40625 
L 21 0 
L 10.6875 0 
z
" id="DejaVuSans-46"/>
       </defs>
       <use xlink:href="#DejaVuSans-48"/>
       <use x="63.623047" xlink:href="#DejaVuSans-46"/>
       <use x="95.410156" xlink:href="#DejaVuSans-48"/>
      </g>
     </g>
    </g>
    <g id="xtick_2">
     <g id="line2d_2">
      <g>
       <use style="stroke:#000000;stroke-width:0.8;" x="129.450047" xlink:href="#ma6c2a02200" y="375.5"/>
      </g>
     </g>
     <g id="text_2">
      <!-- 0.2 -->
      <g transform="translate(119.113016 392.377969)scale(0.13 -0.13)">
       <defs>
        <path d="M 19.1875 8.296875 
L 53.609375 8.296875 
L 53.609375 0 
L 7.328125 0 
L 7.328125 8.296875 
Q 12.9375 14.109375 22.625 23.890625 
Q 32.328125 33.6875 34.8125 36.53125 
Q 39.546875 41.84375 41.421875 45.53125 
Q 43.3125 49.21875 43.3125 52.78125 
Q 43.3125 58.59375 39.234375 62.25 
Q 35.15625 65.921875 28.609375 65.921875 
Q 23.96875 65.921875 18.8125 64.3125 
Q 13.671875 62.703125 7.8125 59.421875 
L 7.8125 69.390625 
Q 13.765625 71.78125 18.9375 73 
Q 24.125 74.21875 28.421875 74.21875 
Q 39.75 74.21875 46.484375 68.546875 
Q 53.21875 62.890625 53.21875 53.421875 
Q 53.21875 48.921875 51.53125 44.890625 
Q 49.859375 40.875 45.40625 35.40625 
Q 44.1875 33.984375 37.640625 27.21875 
Q 31.109375 20.453125 19.1875 8.296875 
z
" id="DejaVuSans-50"/>
       </defs>
       <use xlink:href="#DejaVuSans-48"/>
       <use x="63.623047" xlink:href="#DejaVuSans-46"/>
       <use x="95.410156" xlink:href="#DejaVuSans-50"/>
      </g>
     </g>
    </g>
    <g id="xtick_3">
     <g id="line2d_3">
      <g>
       <use style="stroke:#000000;stroke-width:0.8;" x="198.900094" xlink:href="#ma6c2a02200" y="375.5"/>
      </g>
     </g>
     <g id="text_3">
      <!-- 0.4 -->
      <g transform="translate(188.563063 392.377969)scale(0.13 -0.13)">
       <defs>
        <path d="M 37.796875 64.3125 
L 12.890625 25.390625 
L 37.796875 25.390625 
z
M 35.203125 72.90625 
L 47.609375 72.90625 
L 47.609375 25.390625 
L 58.015625 25.390625 
L 58.015625 17.1875 
L 47.609375 17.1875 
L 47.609375 0 
L 37.796875 0 
L 37.796875 17.1875 
L 4.890625 17.1875 
L 4.890625 26.703125 
z
" id="DejaVuSans-52"/>
       </defs>
       <use xlink:href="#DejaVuSans-48"/>
       <use x="63.623047" xlink:href="#DejaVuSans-46"/>
       <use x="95.410156" xlink:href="#DejaVuSans-52"/>
      </g>
     </g>
    </g>
    <g id="xtick_4">
     <g id="line2d_4">
      <g>
       <use style="stroke:#000000;stroke-width:0.8;" x="268.350141" xlink:href="#ma6c2a02200" y="375.5"/>
      </g>
     </g>
     <g id="text_4">
      <!-- 0.6 -->
      <g transform="translate(258.01311 392.377969)scale(0.13 -0.13)">
       <defs>
        <path d="M 33.015625 40.375 
Q 26.375 40.375 22.484375 35.828125 
Q 18.609375 31.296875 18.609375 23.390625 
Q 18.609375 15.53125 22.484375 10.953125 
Q 26.375 6.390625 33.015625 6.390625 
Q 39.65625 6.390625 43.53125 10.953125 
Q 47.40625 15.53125 47.40625 23.390625 
Q 47.40625 31.296875 43.53125 35.828125 
Q 39.65625 40.375 33.015625 40.375 
z
M 52.59375 71.296875 
L 52.59375 62.3125 
Q 48.875 64.0625 45.09375 64.984375 
Q 41.3125 65.921875 37.59375 65.921875 
Q 27.828125 65.921875 22.671875 59.328125 
Q 17.53125 52.734375 16.796875 39.40625 
Q 19.671875 43.65625 24.015625 45.921875 
Q 28.375 48.1875 33.59375 48.1875 
Q 44.578125 48.1875 50.953125 41.515625 
Q 57.328125 34.859375 57.328125 23.390625 
Q 57.328125 12.15625 50.6875 5.359375 
Q 44.046875 -1.421875 33.015625 -1.421875 
Q 20.359375 -1.421875 13.671875 8.265625 
Q 6.984375 17.96875 6.984375 36.375 
Q 6.984375 53.65625 15.1875 63.9375 
Q 23.390625 74.21875 37.203125 74.21875 
Q 40.921875 74.21875 44.703125 73.484375 
Q 48.484375 72.75 52.59375 71.296875 
z
" id="DejaVuSans-54"/>
       </defs>
       <use xlink:href="#DejaVuSans-48"/>
       <use x="63.623047" xlink:href="#DejaVuSans-46"/>
       <use x="95.410156" xlink:href="#DejaVuSans-54"/>
      </g>
     </g>
    </g>
    <g id="xtick_5">
     <g id="line2d_5">
      <g>
       <use style="stroke:#000000;stroke-width:0.8;" x="337.800189" xlink:href="#ma6c2a02200" y="375.5"/>
      </g>
     </g>
     <g id="text_5">
      <!-- 0.8 -->
      <g transform="translate(327.463157 392.377969)scale(0.13 -0.13)">
       <defs>
        <path d="M 31.78125 34.625 
Q 24.75 34.625 20.71875 30.859375 
Q 16.703125 27.09375 16.703125 20.515625 
Q 16.703125 13.921875 20.71875 10.15625 
Q 24.75 6.390625 31.78125 6.390625 
Q 38.8125 6.390625 42.859375 10.171875 
Q 46.921875 13.96875 46.921875 20.515625 
Q 46.921875 27.09375 42.890625 30.859375 
Q 38.875 34.625 31.78125 34.625 
z
M 21.921875 38.8125 
Q 15.578125 40.375 12.03125 44.71875 
Q 8.5 49.078125 8.5 55.328125 
Q 8.5 64.0625 14.71875 69.140625 
Q 20.953125 74.21875 31.78125 74.21875 
Q 42.671875 74.21875 48.875 69.140625 
Q 55.078125 64.0625 55.078125 55.328125 
Q 55.078125 49.078125 51.53125 44.71875 
Q 48 40.375 41.703125 38.8125 
Q 48.828125 37.15625 52.796875 32.3125 
Q 56.78125 27.484375 56.78125 20.515625 
Q 56.78125 9.90625 50.3125 4.234375 
Q 43.84375 -1.421875 31.78125 -1.421875 
Q 19.734375 -1.421875 13.25 4.234375 
Q 6.78125 9.90625 6.78125 20.515625 
Q 6.78125 27.484375 10.78125 32.3125 
Q 14.796875 37.15625 21.921875 38.8125 
z
M 18.3125 54.390625 
Q 18.3125 48.734375 21.84375 45.5625 
Q 25.390625 42.390625 31.78125 42.390625 
Q 38.140625 42.390625 41.71875 45.5625 
Q 45.3125 48.734375 45.3125 54.390625 
Q 45.3125 60.0625 41.71875 63.234375 
Q 38.140625 66.40625 31.78125 66.40625 
Q 25.390625 66.40625 21.84375 63.234375 
Q 18.3125 60.0625 18.3125 54.390625 
z
" id="DejaVuSans-56"/>
       </defs>
       <use xlink:href="#DejaVuSans-48"/>
       <use x="63.623047" xlink:href="#DejaVuSans-46"/>
       <use x="95.410156" xlink:href="#DejaVuSans-56"/>
      </g>
     </g>
    </g>
    <g id="xtick_6">
     <g id="line2d_6">
      <g>
       <use style="stroke:#000000;stroke-width:0.8;" x="407.250236" xlink:href="#ma6c2a02200" y="375.5"/>
      </g>
     </g>
     <g id="text_6">
      <!-- 1.0 -->
      <g transform="translate(396.913205 392.377969)scale(0.13 -0.13)">
       <defs>
        <path d="M 12.40625 8.296875 
L 28.515625 8.296875 
L 28.515625 63.921875 
L 10.984375 60.40625 
L 10.984375 69.390625 
L 28.421875 72.90625 
L 38.28125 72.90625 
L 38.28125 8.296875 
L 54.390625 8.296875 
L 54.390625 0 
L 12.40625 0 
z
" id="DejaVuSans-49"/>
       </defs>
       <use xlink:href="#DejaVuSans-49"/>
       <use x="63.623047" xlink:href="#DejaVuSans-46"/>
       <use x="95.410156" xlink:href="#DejaVuSans-48"/>
      </g>
     </g>
    </g>
    <g id="text_7">
     <!-- Pressure ($p/p^0$) -->
     <g transform="translate(183.9 412.731562)scale(0.15 -0.15)">
      <defs>
       <path d="M 19.671875 64.796875 
L 19.671875 37.40625 
L 32.078125 37.40625 
Q 38.96875 37.40625 42.71875 40.96875 
Q 46.484375 44.53125 46.484375 51.125 
Q 46.484375 57.671875 42.71875 61.234375 
Q 38.96875 64.796875 32.078125 64.796875 
z
M 9.8125 72.90625 
L 32.078125 72.90625 
Q 44.34375 72.90625 50.609375 67.359375 
Q 56.890625 61.8125 56.890625 51.125 
Q 56.890625 40.328125 50.609375 34.8125 
Q 44.34375 29.296875 32.078125 29.296875 
L 19.671875 29.296875 
L 19.671875 0 
L 9.8125 0 
z
" id="DejaVuSans-80"/>
       <path d="M 41.109375 46.296875 
Q 39.59375 47.171875 37.8125 47.578125 
Q 36.03125 48 33.890625 48 
Q 26.265625 48 22.1875 43.046875 
Q 18.109375 38.09375 18.109375 28.8125 
L 18.109375 0 
L 9.078125 0 
L 9.078125 54.6875 
L 18.109375 54.6875 
L 18.109375 46.1875 
Q 20.953125 51.171875 25.484375 53.578125 
Q 30.03125 56 36.53125 56 
Q 37.453125 56 38.578125 55.875 
Q 39.703125 55.765625 41.0625 55.515625 
z
" id="DejaVuSans-114"/>
       <path d="M 56.203125 29.59375 
L 56.203125 25.203125 
L 14.890625 25.203125 
Q 15.484375 15.921875 20.484375 11.0625 
Q 25.484375 6.203125 34.421875 6.203125 
Q 39.59375 6.203125 44.453125 7.46875 
Q 49.3125 8.734375 54.109375 11.28125 
L 54.109375 2.78125 
Q 49.265625 0.734375 44.1875 -0.34375 
Q 39.109375 -1.421875 33.890625 -1.421875 
Q 20.796875 -1.421875 13.15625 6.1875 
Q 5.515625 13.8125 5.515625 26.8125 
Q 5.515625 40.234375 12.765625 48.109375 
Q 20.015625 56 32.328125 56 
Q 43.359375 56 49.78125 48.890625 
Q 56.203125 41.796875 56.203125 29.59375 
z
M 47.21875 32.234375 
Q 47.125 39.59375 43.09375 43.984375 
Q 39.0625 48.390625 32.421875 48.390625 
Q 24.90625 48.390625 20.390625 44.140625 
Q 15.875 39.890625 15.1875 32.171875 
z
" id="DejaVuSans-101"/>
       <path d="M 44.28125 53.078125 
L 44.28125 44.578125 
Q 40.484375 46.53125 36.375 47.5 
Q 32.28125 48.484375 27.875 48.484375 
Q 21.1875 48.484375 17.84375 46.4375 
Q 14.5 44.390625 14.5 40.28125 
Q 14.5 37.15625 16.890625 35.375 
Q 19.28125 33.59375 26.515625 31.984375 
L 29.59375 31.296875 
Q 39.15625 29.25 43.1875 25.515625 
Q 47.21875 21.78125 47.21875 15.09375 
Q 47.21875 7.46875 41.1875 3.015625 
Q 35.15625 -1.421875 24.609375 -1.421875 
Q 20.21875 -1.421875 15.453125 -0.5625 
Q 10.6875 0.296875 5.421875 2 
L 5.421875 11.28125 
Q 10.40625 8.6875 15.234375 7.390625 
Q 20.0625 6.109375 24.8125 6.109375 
Q 31.15625 6.109375 34.5625 8.28125 
Q 37.984375 10.453125 37.984375 14.40625 
Q 37.984375 18.0625 35.515625 20.015625 
Q 33.0625 21.96875 24.703125 23.78125 
L 21.578125 24.515625 
Q 13.234375 26.265625 9.515625 29.90625 
Q 5.8125 33.546875 5.8125 39.890625 
Q 5.8125 47.609375 11.28125 51.796875 
Q 16.75 56 26.8125 56 
Q 31.78125 56 36.171875 55.265625 
Q 40.578125 54.546875 44.28125 53.078125 
z
" id="DejaVuSans-115"/>
       <path d="M 8.5 21.578125 
L 8.5 54.6875 
L 17.484375 54.6875 
L 17.484375 21.921875 
Q 17.484375 14.15625 20.5 10.265625 
Q 23.53125 6.390625 29.59375 6.390625 
Q 36.859375 6.390625 41.078125 11.03125 
Q 45.3125 15.671875 45.3125 23.6875 
L 45.3125 54.6875 
L 54.296875 54.6875 
L 54.296875 0 
L 45.3125 0 
L 45.3125 8.40625 
Q 42.046875 3.421875 37.71875 1 
Q 33.40625 -1.421875 27.6875 -1.421875 
Q 18.265625 -1.421875 13.375 4.4375 
Q 8.5 10.296875 8.5 21.578125 
z
M 31.109375 56 
z
" id="DejaVuSans-117"/>
       <path id="DejaVuSans-32"/>
       <path d="M 31 75.875 
Q 24.46875 64.65625 21.28125 53.65625 
Q 18.109375 42.671875 18.109375 31.390625 
Q 18.109375 20.125 21.3125 9.0625 
Q 24.515625 -2 31 -13.1875 
L 23.1875 -13.1875 
Q 15.875 -1.703125 12.234375 9.375 
Q 8.59375 20.453125 8.59375 31.390625 
Q 8.59375 42.28125 12.203125 53.3125 
Q 15.828125 64.359375 23.1875 75.875 
z
" id="DejaVuSans-40"/>
       <path d="M 49.609375 33.6875 
Q 49.609375 40.875 46.484375 44.671875 
Q 43.359375 48.484375 37.5 48.484375 
Q 33.5 48.484375 29.859375 46.4375 
Q 26.21875 44.390625 23.390625 40.484375 
Q 20.609375 36.625 18.9375 31.15625 
Q 17.28125 25.6875 17.28125 20.3125 
Q 17.28125 13.484375 20.40625 9.796875 
Q 23.53125 6.109375 29.296875 6.109375 
Q 33.546875 6.109375 37.1875 8.109375 
Q 40.828125 10.109375 43.40625 13.921875 
Q 46.1875 17.921875 47.890625 23.34375 
Q 49.609375 28.765625 49.609375 33.6875 
z
M 21.78125 46.390625 
Q 25.390625 51.125 30.296875 53.5625 
Q 35.203125 56 41.21875 56 
Q 49.609375 56 54.25 50.5 
Q 58.890625 45.015625 58.890625 35.109375 
Q 58.890625 27 56 19.65625 
Q 53.125 12.3125 47.703125 6.5 
Q 44.09375 2.640625 39.546875 0.609375 
Q 35.015625 -1.421875 29.984375 -1.421875 
Q 24.171875 -1.421875 20.21875 1 
Q 16.265625 3.421875 14.3125 8.203125 
L 8.6875 -20.796875 
L -0.296875 -20.796875 
L 14.40625 54.6875 
L 23.390625 54.6875 
z
" id="DejaVuSans-Oblique-112"/>
       <path d="M 25.390625 72.90625 
L 33.6875 72.90625 
L 8.296875 -9.28125 
L 0 -9.28125 
z
" id="DejaVuSans-47"/>
       <path d="M 8.015625 75.875 
L 15.828125 75.875 
Q 23.140625 64.359375 26.78125 53.3125 
Q 30.421875 42.28125 30.421875 31.390625 
Q 30.421875 20.453125 26.78125 9.375 
Q 23.140625 -1.703125 15.828125 -13.1875 
L 8.015625 -13.1875 
Q 14.5 -2 17.703125 9.0625 
Q 20.90625 20.125 20.90625 31.390625 
Q 20.90625 42.671875 17.703125 53.65625 
Q 14.5 64.65625 8.015625 75.875 
z
" id="DejaVuSans-41"/>
      </defs>
      <use transform="translate(0 0.765625)" xlink:href="#DejaVuSans-80"/>
      <use transform="translate(60.302734 0.765625)" xlink:href="#DejaVuSans-114"/>
      <use transform="translate(101.416016 0.765625)" xlink:href="#DejaVuSans-101"/>
      <use transform="translate(162.939453 0.765625)" xlink:href="#DejaVuSans-115"/>
      <use transform="translate(215.039062 0.765625)" xlink:href="#DejaVuSans-115"/>
      <use transform="translate(267.138672 0.765625)" xlink:href="#DejaVuSans-117"/>
      <use transform="translate(330.517578 0.765625)" xlink:href="#DejaVuSans-114"/>
      <use transform="translate(371.630859 0.765625)" xlink:href="#DejaVuSans-101"/>
      <use transform="translate(433.154297 0.765625)" xlink:href="#DejaVuSans-32"/>
      <use transform="translate(464.941406 0.765625)" xlink:href="#DejaVuSans-40"/>
      <use transform="translate(503.955078 0.765625)" xlink:href="#DejaVuSans-Oblique-112"/>
      <use transform="translate(567.431641 0.765625)" xlink:href="#DejaVuSans-47"/>
      <use transform="translate(601.123047 0.765625)" xlink:href="#DejaVuSans-Oblique-112"/>
      <use transform="translate(669.249505 39.046875)scale(0.7)" xlink:href="#DejaVuSans-48"/>
      <use transform="translate(716.520013 0.765625)" xlink:href="#DejaVuSans-41"/>
     </g>
    </g>
   </g>
   <g id="matplotlib.axis_2">
    <g id="ytick_1">
     <g id="line2d_7">
      <defs>
       <path d="M 0 0 
L -3.5 0 
" id="mb583b7cf20" style="stroke:#000000;stroke-width:0.8;"/>
      </defs>
      <g>
       <use style="stroke:#000000;stroke-width:0.8;" x="60" xlink:href="#mb583b7cf20" y="375.5"/>
      </g>
     </g>
     <g id="text_8">
      <!-- 0 -->
      <g transform="translate(44.72875 380.438984)scale(0.13 -0.13)">
       <use xlink:href="#DejaVuSans-48"/>
      </g>
     </g>
    </g>
    <g id="ytick_2">
     <g id="line2d_8">
      <g>
       <use style="stroke:#000000;stroke-width:0.8;" x="60" xlink:href="#mb583b7cf20" y="324.171101"/>
      </g>
     </g>
     <g id="text_9">
      <!-- 10 -->
      <g transform="translate(36.4575 329.110085)scale(0.13 -0.13)">
       <use xlink:href="#DejaVuSans-49"/>
       <use x="63.623047" xlink:href="#DejaVuSans-48"/>
      </g>
     </g>
    </g>
    <g id="ytick_3">
     <g id="line2d_9">
      <g>
       <use style="stroke:#000000;stroke-width:0.8;" x="60" xlink:href="#mb583b7cf20" y="272.842201"/>
      </g>
     </g>
     <g id="text_10">
      <!-- 20 -->
      <g transform="translate(36.4575 277.781186)scale(0.13 -0.13)">
       <use xlink:href="#DejaVuSans-50"/>
       <use x="63.623047" xlink:href="#DejaVuSans-48"/>
      </g>
     </g>
    </g>
    <g id="ytick_4">
     <g id="line2d_10">
      <g>
       <use style="stroke:#000000;stroke-width:0.8;" x="60" xlink:href="#mb583b7cf20" y="221.513302"/>
      </g>
     </g>
     <g id="text_11">
      <!-- 30 -->
      <g transform="translate(36.4575 226.452287)scale(0.13 -0.13)">
       <defs>
        <path d="M 40.578125 39.3125 
Q 47.65625 37.796875 51.625 33 
Q 55.609375 28.21875 55.609375 21.1875 
Q 55.609375 10.40625 48.1875 4.484375 
Q 40.765625 -1.421875 27.09375 -1.421875 
Q 22.515625 -1.421875 17.65625 -0.515625 
Q 12.796875 0.390625 7.625 2.203125 
L 7.625 11.71875 
Q 11.71875 9.328125 16.59375 8.109375 
Q 21.484375 6.890625 26.8125 6.890625 
Q 36.078125 6.890625 40.9375 10.546875 
Q 45.796875 14.203125 45.796875 21.1875 
Q 45.796875 27.640625 41.28125 31.265625 
Q 36.765625 34.90625 28.71875 34.90625 
L 20.21875 34.90625 
L 20.21875 43.015625 
L 29.109375 43.015625 
Q 36.375 43.015625 40.234375 45.921875 
Q 44.09375 48.828125 44.09375 54.296875 
Q 44.09375 59.90625 40.109375 62.90625 
Q 36.140625 65.921875 28.71875 65.921875 
Q 24.65625 65.921875 20.015625 65.03125 
Q 15.375 64.15625 9.8125 62.3125 
L 9.8125 71.09375 
Q 15.4375 72.65625 20.34375 73.4375 
Q 25.25 74.21875 29.59375 74.21875 
Q 40.828125 74.21875 47.359375 69.109375 
Q 53.90625 64.015625 53.90625 55.328125 
Q 53.90625 49.265625 50.4375 45.09375 
Q 46.96875 40.921875 40.578125 39.3125 
z
" id="DejaVuSans-51"/>
       </defs>
       <use xlink:href="#DejaVuSans-51"/>
       <use x="63.623047" xlink:href="#DejaVuSans-48"/>
      </g>
     </g>
    </g>
    <g id="ytick_5">
     <g id="line2d_11">
      <g>
       <use style="stroke:#000000;stroke-width:0.8;" x="60" xlink:href="#mb583b7cf20" y="170.184403"/>
      </g>
     </g>
     <g id="text_12">
      <!-- 40 -->
      <g transform="translate(36.4575 175.123387)scale(0.13 -0.13)">
       <use xlink:href="#DejaVuSans-52"/>
       <use x="63.623047" xlink:href="#DejaVuSans-48"/>
      </g>
     </g>
    </g>
    <g id="ytick_6">
     <g id="line2d_12">
      <g>
       <use style="stroke:#000000;stroke-width:0.8;" x="60" xlink:href="#mb583b7cf20" y="118.855504"/>
      </g>
     </g>
     <g id="text_13">
      <!-- 50 -->
      <g transform="translate(36.4575 123.794488)scale(0.13 -0.13)">
       <defs>
        <path d="M 10.796875 72.90625 
L 49.515625 72.90625 
L 49.515625 64.59375 
L 19.828125 64.59375 
L 19.828125 46.734375 
Q 21.96875 47.46875 24.109375 47.828125 
Q 26.265625 48.1875 28.421875 48.1875 
Q 40.625 48.1875 47.75 41.5 
Q 54.890625 34.8125 54.890625 23.390625 
Q 54.890625 11.625 47.5625 5.09375 
Q 40.234375 -1.421875 26.90625 -1.421875 
Q 22.3125 -1.421875 17.546875 -0.640625 
Q 12.796875 0.140625 7.71875 1.703125 
L 7.71875 11.625 
Q 12.109375 9.234375 16.796875 8.0625 
Q 21.484375 6.890625 26.703125 6.890625 
Q 35.15625 6.890625 40.078125 11.328125 
Q 45.015625 15.765625 45.015625 23.390625 
Q 45.015625 31 40.078125 35.4375 
Q 35.15625 39.890625 26.703125 39.890625 
Q 22.75 39.890625 18.8125 39.015625 
Q 14.890625 38.140625 10.796875 36.28125 
z
" id="DejaVuSans-53"/>
       </defs>
       <use xlink:href="#DejaVuSans-53"/>
       <use x="63.623047" xlink:href="#DejaVuSans-48"/>
      </g>
     </g>
    </g>
    <g id="ytick_7">
     <g id="line2d_13">
      <g>
       <use style="stroke:#000000;stroke-width:0.8;" x="60" xlink:href="#mb583b7cf20" y="67.526604"/>
      </g>
     </g>
     <g id="text_14">
      <!-- 60 -->
      <g transform="translate(36.4575 72.465589)scale(0.13 -0.13)">
       <use xlink:href="#DejaVuSans-54"/>
       <use x="63.623047" xlink:href="#DejaVuSans-48"/>
      </g>
     </g>
    </g>
    <g id="ytick_8">
     <g id="line2d_14">
      <g>
       <use style="stroke:#000000;stroke-width:0.8;" x="60" xlink:href="#mb583b7cf20" y="16.197705"/>
      </g>
     </g>
     <g id="text_15">
      <!-- 70 -->
      <g transform="translate(36.4575 21.136689)scale(0.13 -0.13)">
       <defs>
        <path d="M 8.203125 72.90625 
L 55.078125 72.90625 
L 55.078125 68.703125 
L 28.609375 0 
L 18.3125 0 
L 43.21875 64.59375 
L 8.203125 64.59375 
z
" id="DejaVuSans-55"/>
       </defs>
       <use xlink:href="#DejaVuSans-55"/>
       <use x="63.623047" xlink:href="#DejaVuSans-48"/>
      </g>
     </g>
    </g>
    <g id="text_16">
     <!-- Loading ($g\ g^{-1}$) -->
     <g transform="translate(29.3075 252.174069)rotate(-90)scale(0.15 -0.15)">
      <defs>
       <path d="M 9.8125 72.90625 
L 19.671875 72.90625 
L 19.671875 8.296875 
L 55.171875 8.296875 
L 55.171875 0 
L 9.8125 0 
z
" id="DejaVuSans-76"/>
       <path d="M 30.609375 48.390625 
Q 23.390625 48.390625 19.1875 42.75 
Q 14.984375 37.109375 14.984375 27.296875 
Q 14.984375 17.484375 19.15625 11.84375 
Q 23.34375 6.203125 30.609375 6.203125 
Q 37.796875 6.203125 41.984375 11.859375 
Q 46.1875 17.53125 46.1875 27.296875 
Q 46.1875 37.015625 41.984375 42.703125 
Q 37.796875 48.390625 30.609375 48.390625 
z
M 30.609375 56 
Q 42.328125 56 49.015625 48.375 
Q 55.71875 40.765625 55.71875 27.296875 
Q 55.71875 13.875 49.015625 6.21875 
Q 42.328125 -1.421875 30.609375 -1.421875 
Q 18.84375 -1.421875 12.171875 6.21875 
Q 5.515625 13.875 5.515625 27.296875 
Q 5.515625 40.765625 12.171875 48.375 
Q 18.84375 56 30.609375 56 
z
" id="DejaVuSans-111"/>
       <path d="M 34.28125 27.484375 
Q 23.390625 27.484375 19.1875 25 
Q 14.984375 22.515625 14.984375 16.5 
Q 14.984375 11.71875 18.140625 8.90625 
Q 21.296875 6.109375 26.703125 6.109375 
Q 34.1875 6.109375 38.703125 11.40625 
Q 43.21875 16.703125 43.21875 25.484375 
L 43.21875 27.484375 
z
M 52.203125 31.203125 
L 52.203125 0 
L 43.21875 0 
L 43.21875 8.296875 
Q 40.140625 3.328125 35.546875 0.953125 
Q 30.953125 -1.421875 24.3125 -1.421875 
Q 15.921875 -1.421875 10.953125 3.296875 
Q 6 8.015625 6 15.921875 
Q 6 25.140625 12.171875 29.828125 
Q 18.359375 34.515625 30.609375 34.515625 
L 43.21875 34.515625 
L 43.21875 35.40625 
Q 43.21875 41.609375 39.140625 45 
Q 35.0625 48.390625 27.6875 48.390625 
Q 23 48.390625 18.546875 47.265625 
Q 14.109375 46.140625 10.015625 43.890625 
L 10.015625 52.203125 
Q 14.9375 54.109375 19.578125 55.046875 
Q 24.21875 56 28.609375 56 
Q 40.484375 56 46.34375 49.84375 
Q 52.203125 43.703125 52.203125 31.203125 
z
" id="DejaVuSans-97"/>
       <path d="M 45.40625 46.390625 
L 45.40625 75.984375 
L 54.390625 75.984375 
L 54.390625 0 
L 45.40625 0 
L 45.40625 8.203125 
Q 42.578125 3.328125 38.25 0.953125 
Q 33.9375 -1.421875 27.875 -1.421875 
Q 17.96875 -1.421875 11.734375 6.484375 
Q 5.515625 14.40625 5.515625 27.296875 
Q 5.515625 40.1875 11.734375 48.09375 
Q 17.96875 56 27.875 56 
Q 33.9375 56 38.25 53.625 
Q 42.578125 51.265625 45.40625 46.390625 
z
M 14.796875 27.296875 
Q 14.796875 17.390625 18.875 11.75 
Q 22.953125 6.109375 30.078125 6.109375 
Q 37.203125 6.109375 41.296875 11.75 
Q 45.40625 17.390625 45.40625 27.296875 
Q 45.40625 37.203125 41.296875 42.84375 
Q 37.203125 48.484375 30.078125 48.484375 
Q 22.953125 48.484375 18.875 42.84375 
Q 14.796875 37.203125 14.796875 27.296875 
z
" id="DejaVuSans-100"/>
       <path d="M 9.421875 54.6875 
L 18.40625 54.6875 
L 18.40625 0 
L 9.421875 0 
z
M 9.421875 75.984375 
L 18.40625 75.984375 
L 18.40625 64.59375 
L 9.421875 64.59375 
z
" id="DejaVuSans-105"/>
       <path d="M 54.890625 33.015625 
L 54.890625 0 
L 45.90625 0 
L 45.90625 32.71875 
Q 45.90625 40.484375 42.875 44.328125 
Q 39.84375 48.1875 33.796875 48.1875 
Q 26.515625 48.1875 22.3125 43.546875 
Q 18.109375 38.921875 18.109375 30.90625 
L 18.109375 0 
L 9.078125 0 
L 9.078125 54.6875 
L 18.109375 54.6875 
L 18.109375 46.1875 
Q 21.34375 51.125 25.703125 53.5625 
Q 30.078125 56 35.796875 56 
Q 45.21875 56 50.046875 50.171875 
Q 54.890625 44.34375 54.890625 33.015625 
z
" id="DejaVuSans-110"/>
       <path d="M 45.40625 27.984375 
Q 45.40625 37.75 41.375 43.109375 
Q 37.359375 48.484375 30.078125 48.484375 
Q 22.859375 48.484375 18.828125 43.109375 
Q 14.796875 37.75 14.796875 27.984375 
Q 14.796875 18.265625 18.828125 12.890625 
Q 22.859375 7.515625 30.078125 7.515625 
Q 37.359375 7.515625 41.375 12.890625 
Q 45.40625 18.265625 45.40625 27.984375 
z
M 54.390625 6.78125 
Q 54.390625 -7.171875 48.1875 -13.984375 
Q 42 -20.796875 29.203125 -20.796875 
Q 24.46875 -20.796875 20.265625 -20.09375 
Q 16.0625 -19.390625 12.109375 -17.921875 
L 12.109375 -9.1875 
Q 16.0625 -11.328125 19.921875 -12.34375 
Q 23.78125 -13.375 27.78125 -13.375 
Q 36.625 -13.375 41.015625 -8.765625 
Q 45.40625 -4.15625 45.40625 5.171875 
L 45.40625 9.625 
Q 42.625 4.78125 38.28125 2.390625 
Q 33.9375 0 27.875 0 
Q 17.828125 0 11.671875 7.65625 
Q 5.515625 15.328125 5.515625 27.984375 
Q 5.515625 40.671875 11.671875 48.328125 
Q 17.828125 56 27.875 56 
Q 33.9375 56 38.28125 53.609375 
Q 42.625 51.21875 45.40625 46.390625 
L 45.40625 54.6875 
L 54.390625 54.6875 
z
" id="DejaVuSans-103"/>
       <path d="M 59.625 54.6875 
L 50.296875 6.78125 
Q 47.609375 -7.125 40.015625 -13.953125 
Q 32.421875 -20.796875 19.578125 -20.796875 
Q 14.84375 -20.796875 10.78125 -20.09375 
Q 6.734375 -19.390625 3.21875 -17.921875 
L 4.890625 -9.1875 
Q 8.203125 -11.328125 11.90625 -12.34375 
Q 15.625 -13.375 19.828125 -13.375 
Q 28.375 -13.375 33.859375 -8.703125 
Q 39.359375 -4.046875 41.109375 4.6875 
L 41.890625 8.796875 
Q 38.140625 4.5 33.15625 2.25 
Q 28.171875 0 22.40625 0 
Q 14.109375 0 9.34375 5.484375 
Q 4.59375 10.984375 4.59375 20.609375 
Q 4.59375 28.171875 7.46875 35.421875 
Q 10.359375 42.671875 15.578125 48.296875 
Q 19.046875 52 23.65625 54 
Q 28.265625 56 33.296875 56 
Q 38.8125 56 42.90625 53.4375 
Q 47.015625 50.875 49.03125 46.1875 
L 50.59375 54.6875 
z
M 46.09375 34.625 
Q 46.09375 41.265625 42.96875 44.875 
Q 39.84375 48.484375 34.078125 48.484375 
Q 30.515625 48.484375 27.296875 47.0625 
Q 24.078125 45.65625 21.78125 43.109375 
Q 18.0625 38.921875 15.984375 33.234375 
Q 13.921875 27.546875 13.921875 21.484375 
Q 13.921875 14.75 17.0625 11.125 
Q 20.21875 7.515625 26.125 7.515625 
Q 34.671875 7.515625 40.375 15.25 
Q 46.09375 23 46.09375 34.625 
z
" id="DejaVuSans-Oblique-103"/>
       <path d="M 10.59375 35.5 
L 73.1875 35.5 
L 73.1875 27.203125 
L 10.59375 27.203125 
z
" id="DejaVuSans-8722"/>
      </defs>
      <use transform="translate(0 0.684375)" xlink:href="#DejaVuSans-76"/>
      <use transform="translate(55.712891 0.684375)" xlink:href="#DejaVuSans-111"/>
      <use transform="translate(116.894531 0.684375)" xlink:href="#DejaVuSans-97"/>
      <use transform="translate(178.173828 0.684375)" xlink:href="#DejaVuSans-100"/>
      <use transform="translate(241.650391 0.684375)" xlink:href="#DejaVuSans-105"/>
      <use transform="translate(269.433594 0.684375)" xlink:href="#DejaVuSans-110"/>
      <use transform="translate(332.8125 0.684375)" xlink:href="#DejaVuSans-103"/>
      <use transform="translate(396.289062 0.684375)" xlink:href="#DejaVuSans-32"/>
      <use transform="translate(428.076172 0.684375)" xlink:href="#DejaVuSans-40"/>
      <use transform="translate(467.089844 0.684375)" xlink:href="#DejaVuSans-Oblique-103"/>
      <use transform="translate(563.036785 0.684375)" xlink:href="#DejaVuSans-Oblique-103"/>
      <use transform="translate(631.163243 38.965625)scale(0.7)" xlink:href="#DejaVuSans-8722"/>
      <use transform="translate(689.815587 38.965625)scale(0.7)" xlink:href="#DejaVuSans-49"/>
      <use transform="translate(737.086095 0.684375)" xlink:href="#DejaVuSans-41"/>
     </g>
    </g>
   </g>
   <g id="line2d_15">
    <path clip-path="url(#p8b8ec28a8c)" d="M 60.538198 347.009891 
L 60.682308 344.943098 
L 60.850636 342.901886 
L 61.041457 340.875575 
L 61.257706 338.892386 
L 61.49306 336.934412 
L 61.755224 334.993617 
L 62.039328 333.086009 
L 62.344709 331.204757 
L 62.67572 329.344623 
L 63.020347 327.515377 
L 63.393678 325.705202 
L 66.766391 313.855521 
L 70.678317 306.026483 
L 73.698956 302.023179 
L 76.541827 299.097611 
L 80.259578 295.986702 
L 85.766774 292.227024 
L 87.64554 291.072593 
L 91.061657 289.110948 
L 94.468867 287.265365 
L 97.919128 285.474057 
L 101.283667 283.767334 
L 104.709736 282.044846 
L 108.145848 280.316349 
L 111.548275 278.58158 
L 114.873545 276.793422 
L 118.180915 274.841977 
L 121.452313 272.70252 
L 125.150037 270.783136 
L 128.973172 268.867932 
L 132.49151 267.075917 
L 136.060903 265.225494 
L 139.546132 263.352057 
L 143.059276 261.418043 
L 146.425558 259.512678 
L 149.867624 257.491924 
L 153.194835 255.482148 
L 156.656917 253.325276 
L 160.194128 251.044357 
L 163.470431 248.844848 
L 166.919197 246.454937 
L 170.340403 243.984598 
L 173.76391 241.404906 
L 177.242578 238.643829 
L 180.727215 235.809044 
L 184.477256 232.491212 
L 187.893637 228.913416 
L 190.055376 223.05911 
L 193.711729 94.619865 
L 197.001948 56.35178 
L 200.521848 49.883684 
L 208.384244 46.888388 
L 217.452899 45.471957 
L 227.911757 44.110272 
L 233.243032 43.48051 
L 250.627979 41.644019 
L 267.677398 40.032724 
L 285.221945 38.581109 
L 302.507265 37.304178 
L 319.73151 36.065352 
L 337.355272 34.936921 
L 354.455893 33.813775 
L 371.89027 32.54484 
L 389.15908 30.960538 
L 403.776016 28.236794 
" style="fill:none;stroke:#4878cf;stroke-linecap:square;stroke-width:1.5;"/>
    <defs>
     <path d="M 0 3 
C 0.795609 3 1.55874 2.683901 2.12132 2.12132 
C 2.683901 1.55874 3 0.795609 3 0 
C 3 -0.795609 2.683901 -1.55874 2.12132 -2.12132 
C 1.55874 -2.683901 0.795609 -3 0 -3 
C -0.795609 -3 -1.55874 -2.683901 -2.12132 -2.12132 
C -2.683901 -1.55874 -3 -0.795609 -3 0 
C -3 0.795609 -2.683901 1.55874 -2.12132 2.12132 
C -1.55874 2.683901 -0.795609 3 0 3 
z
" id="m3cd85cc5d9" style="stroke:#4878cf;"/>
    </defs>
    <g clip-path="url(#p8b8ec28a8c)">
     <use style="fill:#4878cf;stroke:#4878cf;" x="60.538198" xlink:href="#m3cd85cc5d9" y="347.009891"/>
     <use style="fill:#4878cf;stroke:#4878cf;" x="60.682308" xlink:href="#m3cd85cc5d9" y="344.943098"/>
     <use style="fill:#4878cf;stroke:#4878cf;" x="60.850636" xlink:href="#m3cd85cc5d9" y="342.901886"/>
     <use style="fill:#4878cf;stroke:#4878cf;" x="61.041457" xlink:href="#m3cd85cc5d9" y="340.875575"/>
     <use style="fill:#4878cf;stroke:#4878cf;" x="61.257706" xlink:href="#m3cd85cc5d9" y="338.892386"/>
     <use style="fill:#4878cf;stroke:#4878cf;" x="61.49306" xlink:href="#m3cd85cc5d9" y="336.934412"/>
     <use style="fill:#4878cf;stroke:#4878cf;" x="61.755224" xlink:href="#m3cd85cc5d9" y="334.993617"/>
     <use style="fill:#4878cf;stroke:#4878cf;" x="62.039328" xlink:href="#m3cd85cc5d9" y="333.086009"/>
     <use style="fill:#4878cf;stroke:#4878cf;" x="62.344709" xlink:href="#m3cd85cc5d9" y="331.204757"/>
     <use style="fill:#4878cf;stroke:#4878cf;" x="62.67572" xlink:href="#m3cd85cc5d9" y="329.344623"/>
     <use style="fill:#4878cf;stroke:#4878cf;" x="63.020347" xlink:href="#m3cd85cc5d9" y="327.515377"/>
     <use style="fill:#4878cf;stroke:#4878cf;" x="63.393678" xlink:href="#m3cd85cc5d9" y="325.705202"/>
     <use style="fill:#4878cf;stroke:#4878cf;" x="66.766391" xlink:href="#m3cd85cc5d9" y="313.855521"/>
     <use style="fill:#4878cf;stroke:#4878cf;" x="70.678317" xlink:href="#m3cd85cc5d9" y="306.026483"/>
     <use style="fill:#4878cf;stroke:#4878cf;" x="73.698956" xlink:href="#m3cd85cc5d9" y="302.023179"/>
     <use style="fill:#4878cf;stroke:#4878cf;" x="76.541827" xlink:href="#m3cd85cc5d9" y="299.097611"/>
     <use style="fill:#4878cf;stroke:#4878cf;" x="80.259578" xlink:href="#m3cd85cc5d9" y="295.986702"/>
     <use style="fill:#4878cf;stroke:#4878cf;" x="85.766774" xlink:href="#m3cd85cc5d9" y="292.227024"/>
     <use style="fill:#4878cf;stroke:#4878cf;" x="87.64554" xlink:href="#m3cd85cc5d9" y="291.072593"/>
     <use style="fill:#4878cf;stroke:#4878cf;" x="91.061657" xlink:href="#m3cd85cc5d9" y="289.110948"/>
     <use style="fill:#4878cf;stroke:#4878cf;" x="94.468867" xlink:href="#m3cd85cc5d9" y="287.265365"/>
     <use style="fill:#4878cf;stroke:#4878cf;" x="97.919128" xlink:href="#m3cd85cc5d9" y="285.474057"/>
     <use style="fill:#4878cf;stroke:#4878cf;" x="101.283667" xlink:href="#m3cd85cc5d9" y="283.767334"/>
     <use style="fill:#4878cf;stroke:#4878cf;" x="104.709736" xlink:href="#m3cd85cc5d9" y="282.044846"/>
     <use style="fill:#4878cf;stroke:#4878cf;" x="108.145848" xlink:href="#m3cd85cc5d9" y="280.316349"/>
     <use style="fill:#4878cf;stroke:#4878cf;" x="111.548275" xlink:href="#m3cd85cc5d9" y="278.58158"/>
     <use style="fill:#4878cf;stroke:#4878cf;" x="114.873545" xlink:href="#m3cd85cc5d9" y="276.793422"/>
     <use style="fill:#4878cf;stroke:#4878cf;" x="118.180915" xlink:href="#m3cd85cc5d9" y="274.841977"/>
     <use style="fill:#4878cf;stroke:#4878cf;" x="121.452313" xlink:href="#m3cd85cc5d9" y="272.70252"/>
     <use style="fill:#4878cf;stroke:#4878cf;" x="125.150037" xlink:href="#m3cd85cc5d9" y="270.783136"/>
     <use style="fill:#4878cf;stroke:#4878cf;" x="128.973172" xlink:href="#m3cd85cc5d9" y="268.867932"/>
     <use style="fill:#4878cf;stroke:#4878cf;" x="132.49151" xlink:href="#m3cd85cc5d9" y="267.075917"/>
     <use style="fill:#4878cf;stroke:#4878cf;" x="136.060903" xlink:href="#m3cd85cc5d9" y="265.225494"/>
     <use style="fill:#4878cf;stroke:#4878cf;" x="139.546132" xlink:href="#m3cd85cc5d9" y="263.352057"/>
     <use style="fill:#4878cf;stroke:#4878cf;" x="143.059276" xlink:href="#m3cd85cc5d9" y="261.418043"/>
     <use style="fill:#4878cf;stroke:#4878cf;" x="146.425558" xlink:href="#m3cd85cc5d9" y="259.512678"/>
     <use style="fill:#4878cf;stroke:#4878cf;" x="149.867624" xlink:href="#m3cd85cc5d9" y="257.491924"/>
     <use style="fill:#4878cf;stroke:#4878cf;" x="153.194835" xlink:href="#m3cd85cc5d9" y="255.482148"/>
     <use style="fill:#4878cf;stroke:#4878cf;" x="156.656917" xlink:href="#m3cd85cc5d9" y="253.325276"/>
     <use style="fill:#4878cf;stroke:#4878cf;" x="160.194128" xlink:href="#m3cd85cc5d9" y="251.044357"/>
     <use style="fill:#4878cf;stroke:#4878cf;" x="163.470431" xlink:href="#m3cd85cc5d9" y="248.844848"/>
     <use style="fill:#4878cf;stroke:#4878cf;" x="166.919197" xlink:href="#m3cd85cc5d9" y="246.454937"/>
     <use style="fill:#4878cf;stroke:#4878cf;" x="170.340403" xlink:href="#m3cd85cc5d9" y="243.984598"/>
     <use style="fill:#4878cf;stroke:#4878cf;" x="173.76391" xlink:href="#m3cd85cc5d9" y="241.404906"/>
     <use style="fill:#4878cf;stroke:#4878cf;" x="177.242578" xlink:href="#m3cd85cc5d9" y="238.643829"/>
     <use style="fill:#4878cf;stroke:#4878cf;" x="180.727215" xlink:href="#m3cd85cc5d9" y="235.809044"/>
     <use style="fill:#4878cf;stroke:#4878cf;" x="184.477256" xlink:href="#m3cd85cc5d9" y="232.491212"/>
     <use style="fill:#4878cf;stroke:#4878cf;" x="187.893637" xlink:href="#m3cd85cc5d9" y="228.913416"/>
     <use style="fill:#4878cf;stroke:#4878cf;" x="190.055376" xlink:href="#m3cd85cc5d9" y="223.05911"/>
     <use style="fill:#4878cf;stroke:#4878cf;" x="193.711729" xlink:href="#m3cd85cc5d9" y="94.619865"/>
     <use style="fill:#4878cf;stroke:#4878cf;" x="197.001948" xlink:href="#m3cd85cc5d9" y="56.35178"/>
     <use style="fill:#4878cf;stroke:#4878cf;" x="200.521848" xlink:href="#m3cd85cc5d9" y="49.883684"/>
     <use style="fill:#4878cf;stroke:#4878cf;" x="208.384244" xlink:href="#m3cd85cc5d9" y="46.888388"/>
     <use style="fill:#4878cf;stroke:#4878cf;" x="217.452899" xlink:href="#m3cd85cc5d9" y="45.471957"/>
     <use style="fill:#4878cf;stroke:#4878cf;" x="227.911757" xlink:href="#m3cd85cc5d9" y="44.110272"/>
     <use style="fill:#4878cf;stroke:#4878cf;" x="233.243032" xlink:href="#m3cd85cc5d9" y="43.48051"/>
     <use style="fill:#4878cf;stroke:#4878cf;" x="250.627979" xlink:href="#m3cd85cc5d9" y="41.644019"/>
     <use style="fill:#4878cf;stroke:#4878cf;" x="267.677398" xlink:href="#m3cd85cc5d9" y="40.032724"/>
     <use style="fill:#4878cf;stroke:#4878cf;" x="285.221945" xlink:href="#m3cd85cc5d9" y="38.581109"/>
     <use style="fill:#4878cf;stroke:#4878cf;" x="302.507265" xlink:href="#m3cd85cc5d9" y="37.304178"/>
     <use style="fill:#4878cf;stroke:#4878cf;" x="319.73151" xlink:href="#m3cd85cc5d9" y="36.065352"/>
     <use style="fill:#4878cf;stroke:#4878cf;" x="337.355272" xlink:href="#m3cd85cc5d9" y="34.936921"/>
     <use style="fill:#4878cf;stroke:#4878cf;" x="354.455893" xlink:href="#m3cd85cc5d9" y="33.813775"/>
     <use style="fill:#4878cf;stroke:#4878cf;" x="371.89027" xlink:href="#m3cd85cc5d9" y="32.54484"/>
     <use style="fill:#4878cf;stroke:#4878cf;" x="389.15908" xlink:href="#m3cd85cc5d9" y="30.960538"/>
     <use style="fill:#4878cf;stroke:#4878cf;" x="403.776016" xlink:href="#m3cd85cc5d9" y="28.236794"/>
    </g>
   </g>
   <g id="line2d_16">
    <path clip-path="url(#p8b8ec28a8c)" d="M 384.177264 30.514663 
L 366.06048 32.100102 
L 348.26178 33.366349 
L 330.819427 34.558255 
L 313.465644 35.751349 
L 296.172321 37.007948 
L 278.963315 38.400863 
L 261.764113 39.939263 
L 244.664329 41.656213 
L 227.650034 43.635738 
L 210.633591 45.998649 
L 193.873532 48.827555 
L 183.169473 229.329388 
L 178.947869 235.410618 
L 173.737096 240.184548 
L 169.073364 243.921833 
L 162.968513 248.386014 
L 156.163985 253.035404 
L 151.011895 256.310729 
L 144.692666 260.118539 
L 137.861645 263.989853 
L 130.78343 267.760437 
L 113.680736 277.33937 
L 94.644133 287.187861 
" style="fill:none;stroke:#4878cf;stroke-dasharray:5.55,2.4;stroke-dashoffset:0;stroke-width:1.5;"/>
    <defs>
     <path d="M 0 3 
C 0.795609 3 1.55874 2.683901 2.12132 2.12132 
C 2.683901 1.55874 3 0.795609 3 0 
C 3 -0.795609 2.683901 -1.55874 2.12132 -2.12132 
C 1.55874 -2.683901 0.795609 -3 0 -3 
C -0.795609 -3 -1.55874 -2.683901 -2.12132 -2.12132 
C -2.683901 -1.55874 -3 -0.795609 -3 0 
C -3 0.795609 -2.683901 1.55874 -2.12132 2.12132 
C -1.55874 2.683901 -0.795609 3 0 3 
z
" id="m77bcf1a6d3" style="stroke:#4878cf;"/>
    </defs>
    <g clip-path="url(#p8b8ec28a8c)">
     <use style="fill-opacity:0;stroke:#4878cf;" x="384.177264" xlink:href="#m77bcf1a6d3" y="30.514663"/>
     <use style="fill-opacity:0;stroke:#4878cf;" x="366.06048" xlink:href="#m77bcf1a6d3" y="32.100102"/>
     <use style="fill-opacity:0;stroke:#4878cf;" x="348.26178" xlink:href="#m77bcf1a6d3" y="33.366349"/>
     <use style="fill-opacity:0;stroke:#4878cf;" x="330.819427" xlink:href="#m77bcf1a6d3" y="34.558255"/>
     <use style="fill-opacity:0;stroke:#4878cf;" x="313.465644" xlink:href="#m77bcf1a6d3" y="35.751349"/>
     <use style="fill-opacity:0;stroke:#4878cf;" x="296.172321" xlink:href="#m77bcf1a6d3" y="37.007948"/>
     <use style="fill-opacity:0;stroke:#4878cf;" x="278.963315" xlink:href="#m77bcf1a6d3" y="38.400863"/>
     <use style="fill-opacity:0;stroke:#4878cf;" x="261.764113" xlink:href="#m77bcf1a6d3" y="39.939263"/>
     <use style="fill-opacity:0;stroke:#4878cf;" x="244.664329" xlink:href="#m77bcf1a6d3" y="41.656213"/>
     <use style="fill-opacity:0;stroke:#4878cf;" x="227.650034" xlink:href="#m77bcf1a6d3" y="43.635738"/>
     <use style="fill-opacity:0;stroke:#4878cf;" x="210.633591" xlink:href="#m77bcf1a6d3" y="45.998649"/>
     <use style="fill-opacity:0;stroke:#4878cf;" x="193.873532" xlink:href="#m77bcf1a6d3" y="48.827555"/>
     <use style="fill-opacity:0;stroke:#4878cf;" x="183.169473" xlink:href="#m77bcf1a6d3" y="229.329388"/>
     <use style="fill-opacity:0;stroke:#4878cf;" x="178.947869" xlink:href="#m77bcf1a6d3" y="235.410618"/>
     <use style="fill-opacity:0;stroke:#4878cf;" x="173.737096" xlink:href="#m77bcf1a6d3" y="240.184548"/>
     <use style="fill-opacity:0;stroke:#4878cf;" x="169.073364" xlink:href="#m77bcf1a6d3" y="243.921833"/>
     <use style="fill-opacity:0;stroke:#4878cf;" x="162.968513" xlink:href="#m77bcf1a6d3" y="248.386014"/>
     <use style="fill-opacity:0;stroke:#4878cf;" x="156.163985" xlink:href="#m77bcf1a6d3" y="253.035404"/>
     <use style="fill-opacity:0;stroke:#4878cf;" x="151.011895" xlink:href="#m77bcf1a6d3" y="256.310729"/>
     <use style="fill-opacity:0;stroke:#4878cf;" x="144.692666" xlink:href="#m77bcf1a6d3" y="260.118539"/>
     <use style="fill-opacity:0;stroke:#4878cf;" x="137.861645" xlink:href="#m77bcf1a6d3" y="263.989853"/>
     <use style="fill-opacity:0;stroke:#4878cf;" x="130.78343" xlink:href="#m77bcf1a6d3" y="267.760437"/>
     <use style="fill-opacity:0;stroke:#4878cf;" x="113.680736" xlink:href="#m77bcf1a6d3" y="277.33937"/>
     <use style="fill-opacity:0;stroke:#4878cf;" x="94.644133" xlink:href="#m77bcf1a6d3" y="287.187861"/>
    </g>
   </g>
   <g id="line2d_17">
    <path clip-path="url(#p8b8ec28a8c)" d="M 63.358323 335.312586 
L 70.103437 322.042106 
L 77.050206 315.078899 
L 80.854509 312.246849 
L 83.208347 310.682144 
L 87.44964 308.109836 
L 90.932894 306.136876 
L 94.363578 304.285272 
L 101.895312 300.404246 
L 110.836358 295.819839 
L 119.365659 291.434791 
L 127.912982 287.027864 
L 148.841305 275.368577 
L 165.905719 264.232478 
L 181.402085 250.414122 
L 214.260424 97.49539 
L 295.04955 91.639954 
L 308.055045 90.976281 
L 315.583847 90.59842 
L 316.485093 90.539054 
L 323.683447 90.23535 
L 330.256758 89.952245 
L 337.369886 89.681423 
L 344.208758 89.395893 
L 351.207351 89.104198 
L 358.138721 88.823304 
L 364.990091 88.523687 
L 371.939199 88.204474 
L 375.654861 88.01776 
L 379.099616 87.828599 
L 382.554081 87.620892 
L 386.001943 87.366904 
L 389.466034 87.055736 
L 392.913729 86.669292 
L 396.325445 86.137254 
L 399.624121 85.24298 
L 402.810547 83.56488 
L 403.796052 80.132156 
" style="fill:none;stroke:#6acc65;stroke-linecap:square;stroke-width:1.5;"/>
    <defs>
     <path d="M 0 3 
C 0.795609 3 1.55874 2.683901 2.12132 2.12132 
C 2.683901 1.55874 3 0.795609 3 0 
C 3 -0.795609 2.683901 -1.55874 2.12132 -2.12132 
C 1.55874 -2.683901 0.795609 -3 0 -3 
C -0.795609 -3 -1.55874 -2.683901 -2.12132 -2.12132 
C -2.683901 -1.55874 -3 -0.795609 -3 0 
C -3 0.795609 -2.683901 1.55874 -2.12132 2.12132 
C -1.55874 2.683901 -0.795609 3 0 3 
z
" id="m2b3dcdfb7c" style="stroke:#6acc65;"/>
    </defs>
    <g clip-path="url(#p8b8ec28a8c)">
     <use style="fill:#6acc65;stroke:#6acc65;" x="63.358323" xlink:href="#m2b3dcdfb7c" y="335.312586"/>
     <use style="fill:#6acc65;stroke:#6acc65;" x="70.103437" xlink:href="#m2b3dcdfb7c" y="322.042106"/>
     <use style="fill:#6acc65;stroke:#6acc65;" x="77.050206" xlink:href="#m2b3dcdfb7c" y="315.078899"/>
     <use style="fill:#6acc65;stroke:#6acc65;" x="80.854509" xlink:href="#m2b3dcdfb7c" y="312.246849"/>
     <use style="fill:#6acc65;stroke:#6acc65;" x="83.208347" xlink:href="#m2b3dcdfb7c" y="310.682144"/>
     <use style="fill:#6acc65;stroke:#6acc65;" x="87.44964" xlink:href="#m2b3dcdfb7c" y="308.109836"/>
     <use style="fill:#6acc65;stroke:#6acc65;" x="90.932894" xlink:href="#m2b3dcdfb7c" y="306.136876"/>
     <use style="fill:#6acc65;stroke:#6acc65;" x="94.363578" xlink:href="#m2b3dcdfb7c" y="304.285272"/>
     <use style="fill:#6acc65;stroke:#6acc65;" x="101.895312" xlink:href="#m2b3dcdfb7c" y="300.404246"/>
     <use style="fill:#6acc65;stroke:#6acc65;" x="110.836358" xlink:href="#m2b3dcdfb7c" y="295.819839"/>
     <use style="fill:#6acc65;stroke:#6acc65;" x="119.365659" xlink:href="#m2b3dcdfb7c" y="291.434791"/>
     <use style="fill:#6acc65;stroke:#6acc65;" x="127.912982" xlink:href="#m2b3dcdfb7c" y="287.027864"/>
     <use style="fill:#6acc65;stroke:#6acc65;" x="148.841305" xlink:href="#m2b3dcdfb7c" y="275.368577"/>
     <use style="fill:#6acc65;stroke:#6acc65;" x="165.905719" xlink:href="#m2b3dcdfb7c" y="264.232478"/>
     <use style="fill:#6acc65;stroke:#6acc65;" x="181.402085" xlink:href="#m2b3dcdfb7c" y="250.414122"/>
     <use style="fill:#6acc65;stroke:#6acc65;" x="214.260424" xlink:href="#m2b3dcdfb7c" y="97.49539"/>
     <use style="fill:#6acc65;stroke:#6acc65;" x="295.04955" xlink:href="#m2b3dcdfb7c" y="91.639954"/>
     <use style="fill:#6acc65;stroke:#6acc65;" x="308.055045" xlink:href="#m2b3dcdfb7c" y="90.976281"/>
     <use style="fill:#6acc65;stroke:#6acc65;" x="315.583847" xlink:href="#m2b3dcdfb7c" y="90.59842"/>
     <use style="fill:#6acc65;stroke:#6acc65;" x="316.485093" xlink:href="#m2b3dcdfb7c" y="90.539054"/>
     <use style="fill:#6acc65;stroke:#6acc65;" x="323.683447" xlink:href="#m2b3dcdfb7c" y="90.23535"/>
     <use style="fill:#6acc65;stroke:#6acc65;" x="330.256758" xlink:href="#m2b3dcdfb7c" y="89.952245"/>
     <use style="fill:#6acc65;stroke:#6acc65;" x="337.369886" xlink:href="#m2b3dcdfb7c" y="89.681423"/>
     <use style="fill:#6acc65;stroke:#6acc65;" x="344.208758" xlink:href="#m2b3dcdfb7c" y="89.395893"/>
     <use style="fill:#6acc65;stroke:#6acc65;" x="351.207351" xlink:href="#m2b3dcdfb7c" y="89.104198"/>
     <use style="fill:#6acc65;stroke:#6acc65;" x="358.138721" xlink:href="#m2b3dcdfb7c" y="88.823304"/>
     <use style="fill:#6acc65;stroke:#6acc65;" x="364.990091" xlink:href="#m2b3dcdfb7c" y="88.523687"/>
     <use style="fill:#6acc65;stroke:#6acc65;" x="371.939199" xlink:href="#m2b3dcdfb7c" y="88.204474"/>
     <use style="fill:#6acc65;stroke:#6acc65;" x="375.654861" xlink:href="#m2b3dcdfb7c" y="88.01776"/>
     <use style="fill:#6acc65;stroke:#6acc65;" x="379.099616" xlink:href="#m2b3dcdfb7c" y="87.828599"/>
     <use style="fill:#6acc65;stroke:#6acc65;" x="382.554081" xlink:href="#m2b3dcdfb7c" y="87.620892"/>
     <use style="fill:#6acc65;stroke:#6acc65;" x="386.001943" xlink:href="#m2b3dcdfb7c" y="87.366904"/>
     <use style="fill:#6acc65;stroke:#6acc65;" x="389.466034" xlink:href="#m2b3dcdfb7c" y="87.055736"/>
     <use style="fill:#6acc65;stroke:#6acc65;" x="392.913729" xlink:href="#m2b3dcdfb7c" y="86.669292"/>
     <use style="fill:#6acc65;stroke:#6acc65;" x="396.325445" xlink:href="#m2b3dcdfb7c" y="86.137254"/>
     <use style="fill:#6acc65;stroke:#6acc65;" x="399.624121" xlink:href="#m2b3dcdfb7c" y="85.24298"/>
     <use style="fill:#6acc65;stroke:#6acc65;" x="402.810547" xlink:href="#m2b3dcdfb7c" y="83.56488"/>
     <use style="fill:#6acc65;stroke:#6acc65;" x="403.796052" xlink:href="#m2b3dcdfb7c" y="80.132156"/>
    </g>
   </g>
   <g id="line2d_18">
    <path clip-path="url(#p8b8ec28a8c)" d="M 401.186595 84.096499 
L 395.853343 85.972055 
L 388.173547 87.085289 
L 380.655122 87.703262 
L 373.471592 88.141035 
L 366.428498 88.504011 
L 359.42471 88.828611 
L 352.456982 89.132411 
L 345.464843 89.421172 
L 338.526837 89.720576 
L 331.559657 90.010336 
L 324.618742 90.307794 
L 317.660103 90.603569 
L 310.726083 90.915784 
L 309.927225 90.983425 
L 303.120677 91.276041 
L 295.044144 91.679532 
L 285.971261 92.15231 
L 277.337577 92.659902 
L 268.568504 93.179479 
L 251.987688 94.270315 
L 234.376927 95.615413 
L 217.036538 97.225869 
L 199.651332 99.195773 
L 183.742738 226.297397 
L 164.505359 265.065795 
L 145.153505 277.415201 
L 131.517098 284.984027 
L 121.894004 289.974246 
L 112.779903 294.560574 
L 104.135904 299.035809 
L 96.21883 303.052178 
L 86.62382 308.283897 
L 77.938655 314.037532 
L 70.446477 321.246664 
L 63.600439 334.228788 
" style="fill:none;stroke:#6acc65;stroke-dasharray:5.55,2.4;stroke-dashoffset:0;stroke-width:1.5;"/>
    <defs>
     <path d="M 0 3 
C 0.795609 3 1.55874 2.683901 2.12132 2.12132 
C 2.683901 1.55874 3 0.795609 3 0 
C 3 -0.795609 2.683901 -1.55874 2.12132 -2.12132 
C 1.55874 -2.683901 0.795609 -3 0 -3 
C -0.795609 -3 -1.55874 -2.683901 -2.12132 -2.12132 
C -2.683901 -1.55874 -3 -0.795609 -3 0 
C -3 0.795609 -2.683901 1.55874 -2.12132 2.12132 
C -1.55874 2.683901 -0.795609 3 0 3 
z
" id="m6b72a8b85d" style="stroke:#6acc65;"/>
    </defs>
    <g clip-path="url(#p8b8ec28a8c)">
     <use style="fill-opacity:0;stroke:#6acc65;" x="401.186595" xlink:href="#m6b72a8b85d" y="84.096499"/>
     <use style="fill-opacity:0;stroke:#6acc65;" x="395.853343" xlink:href="#m6b72a8b85d" y="85.972055"/>
     <use style="fill-opacity:0;stroke:#6acc65;" x="388.173547" xlink:href="#m6b72a8b85d" y="87.085289"/>
     <use style="fill-opacity:0;stroke:#6acc65;" x="380.655122" xlink:href="#m6b72a8b85d" y="87.703262"/>
     <use style="fill-opacity:0;stroke:#6acc65;" x="373.471592" xlink:href="#m6b72a8b85d" y="88.141035"/>
     <use style="fill-opacity:0;stroke:#6acc65;" x="366.428498" xlink:href="#m6b72a8b85d" y="88.504011"/>
     <use style="fill-opacity:0;stroke:#6acc65;" x="359.42471" xlink:href="#m6b72a8b85d" y="88.828611"/>
     <use style="fill-opacity:0;stroke:#6acc65;" x="352.456982" xlink:href="#m6b72a8b85d" y="89.132411"/>
     <use style="fill-opacity:0;stroke:#6acc65;" x="345.464843" xlink:href="#m6b72a8b85d" y="89.421172"/>
     <use style="fill-opacity:0;stroke:#6acc65;" x="338.526837" xlink:href="#m6b72a8b85d" y="89.720576"/>
     <use style="fill-opacity:0;stroke:#6acc65;" x="331.559657" xlink:href="#m6b72a8b85d" y="90.010336"/>
     <use style="fill-opacity:0;stroke:#6acc65;" x="324.618742" xlink:href="#m6b72a8b85d" y="90.307794"/>
     <use style="fill-opacity:0;stroke:#6acc65;" x="317.660103" xlink:href="#m6b72a8b85d" y="90.603569"/>
     <use style="fill-opacity:0;stroke:#6acc65;" x="310.726083" xlink:href="#m6b72a8b85d" y="90.915784"/>
     <use style="fill-opacity:0;stroke:#6acc65;" x="309.927225" xlink:href="#m6b72a8b85d" y="90.983425"/>
     <use style="fill-opacity:0;stroke:#6acc65;" x="303.120677" xlink:href="#m6b72a8b85d" y="91.276041"/>
     <use style="fill-opacity:0;stroke:#6acc65;" x="295.044144" xlink:href="#m6b72a8b85d" y="91.679532"/>
     <use style="fill-opacity:0;stroke:#6acc65;" x="285.971261" xlink:href="#m6b72a8b85d" y="92.15231"/>
     <use style="fill-opacity:0;stroke:#6acc65;" x="277.337577" xlink:href="#m6b72a8b85d" y="92.659902"/>
     <use style="fill-opacity:0;stroke:#6acc65;" x="268.568504" xlink:href="#m6b72a8b85d" y="93.179479"/>
     <use style="fill-opacity:0;stroke:#6acc65;" x="251.987688" xlink:href="#m6b72a8b85d" y="94.270315"/>
     <use style="fill-opacity:0;stroke:#6acc65;" x="234.376927" xlink:href="#m6b72a8b85d" y="95.615413"/>
     <use style="fill-opacity:0;stroke:#6acc65;" x="217.036538" xlink:href="#m6b72a8b85d" y="97.225869"/>
     <use style="fill-opacity:0;stroke:#6acc65;" x="199.651332" xlink:href="#m6b72a8b85d" y="99.195773"/>
     <use style="fill-opacity:0;stroke:#6acc65;" x="183.742738" xlink:href="#m6b72a8b85d" y="226.297397"/>
     <use style="fill-opacity:0;stroke:#6acc65;" x="164.505359" xlink:href="#m6b72a8b85d" y="265.065795"/>
     <use style="fill-opacity:0;stroke:#6acc65;" x="145.153505" xlink:href="#m6b72a8b85d" y="277.415201"/>
     <use style="fill-opacity:0;stroke:#6acc65;" x="131.517098" xlink:href="#m6b72a8b85d" y="284.984027"/>
     <use style="fill-opacity:0;stroke:#6acc65;" x="121.894004" xlink:href="#m6b72a8b85d" y="289.974246"/>
     <use style="fill-opacity:0;stroke:#6acc65;" x="112.779903" xlink:href="#m6b72a8b85d" y="294.560574"/>
     <use style="fill-opacity:0;stroke:#6acc65;" x="104.135904" xlink:href="#m6b72a8b85d" y="299.035809"/>
     <use style="fill-opacity:0;stroke:#6acc65;" x="96.21883" xlink:href="#m6b72a8b85d" y="303.052178"/>
     <use style="fill-opacity:0;stroke:#6acc65;" x="86.62382" xlink:href="#m6b72a8b85d" y="308.283897"/>
     <use style="fill-opacity:0;stroke:#6acc65;" x="77.938655" xlink:href="#m6b72a8b85d" y="314.037532"/>
     <use style="fill-opacity:0;stroke:#6acc65;" x="70.446477" xlink:href="#m6b72a8b85d" y="321.246664"/>
     <use style="fill-opacity:0;stroke:#6acc65;" x="63.600439" xlink:href="#m6b72a8b85d" y="334.228788"/>
    </g>
   </g>
   <g id="line2d_19">
    <path clip-path="url(#p8b8ec28a8c)" d="M 63.312049 328.294967 
L 70.665143 313.089632 
L 77.041034 306.430756 
L 80.818579 303.555468 
L 83.236376 301.943779 
L 87.455074 299.415717 
L 90.951944 297.497569 
L 94.414938 295.715497 
L 101.987267 292.029142 
L 111.180297 287.753416 
L 119.614644 283.619421 
L 128.30879 279.530391 
L 145.376988 270.721504 
L 165.873567 257.775919 
L 181.644559 244.224591 
L 287.497221 58.866957 
L 357.711178 55.266865 
L 364.485545 54.900161 
L 365.367502 54.811521 
L 372.125753 54.457368 
L 381.372122 53.866781 
L 382.726001 53.717728 
L 386.267294 53.440189 
L 389.361517 53.1202 
L 392.888672 52.675603 
L 396.290047 52.085308 
L 399.585926 51.115957 
L 402.599529 49.251131 
L 404.025628 45.586087 
" style="fill:none;stroke:#d65f5f;stroke-linecap:square;stroke-width:1.5;"/>
    <defs>
     <path d="M 0 3 
C 0.795609 3 1.55874 2.683901 2.12132 2.12132 
C 2.683901 1.55874 3 0.795609 3 0 
C 3 -0.795609 2.683901 -1.55874 2.12132 -2.12132 
C 1.55874 -2.683901 0.795609 -3 0 -3 
C -0.795609 -3 -1.55874 -2.683901 -2.12132 -2.12132 
C -2.683901 -1.55874 -3 -0.795609 -3 0 
C -3 0.795609 -2.683901 1.55874 -2.12132 2.12132 
C -1.55874 2.683901 -0.795609 3 0 3 
z
" id="m6b2e0cdb12" style="stroke:#d65f5f;"/>
    </defs>
    <g clip-path="url(#p8b8ec28a8c)">
     <use style="fill:#d65f5f;stroke:#d65f5f;" x="63.312049" xlink:href="#m6b2e0cdb12" y="328.294967"/>
     <use style="fill:#d65f5f;stroke:#d65f5f;" x="70.665143" xlink:href="#m6b2e0cdb12" y="313.089632"/>
     <use style="fill:#d65f5f;stroke:#d65f5f;" x="77.041034" xlink:href="#m6b2e0cdb12" y="306.430756"/>
     <use style="fill:#d65f5f;stroke:#d65f5f;" x="80.818579" xlink:href="#m6b2e0cdb12" y="303.555468"/>
     <use style="fill:#d65f5f;stroke:#d65f5f;" x="83.236376" xlink:href="#m6b2e0cdb12" y="301.943779"/>
     <use style="fill:#d65f5f;stroke:#d65f5f;" x="87.455074" xlink:href="#m6b2e0cdb12" y="299.415717"/>
     <use style="fill:#d65f5f;stroke:#d65f5f;" x="90.951944" xlink:href="#m6b2e0cdb12" y="297.497569"/>
     <use style="fill:#d65f5f;stroke:#d65f5f;" x="94.414938" xlink:href="#m6b2e0cdb12" y="295.715497"/>
     <use style="fill:#d65f5f;stroke:#d65f5f;" x="101.987267" xlink:href="#m6b2e0cdb12" y="292.029142"/>
     <use style="fill:#d65f5f;stroke:#d65f5f;" x="111.180297" xlink:href="#m6b2e0cdb12" y="287.753416"/>
     <use style="fill:#d65f5f;stroke:#d65f5f;" x="119.614644" xlink:href="#m6b2e0cdb12" y="283.619421"/>
     <use style="fill:#d65f5f;stroke:#d65f5f;" x="128.30879" xlink:href="#m6b2e0cdb12" y="279.530391"/>
     <use style="fill:#d65f5f;stroke:#d65f5f;" x="145.376988" xlink:href="#m6b2e0cdb12" y="270.721504"/>
     <use style="fill:#d65f5f;stroke:#d65f5f;" x="165.873567" xlink:href="#m6b2e0cdb12" y="257.775919"/>
     <use style="fill:#d65f5f;stroke:#d65f5f;" x="181.644559" xlink:href="#m6b2e0cdb12" y="244.224591"/>
     <use style="fill:#d65f5f;stroke:#d65f5f;" x="287.497221" xlink:href="#m6b2e0cdb12" y="58.866957"/>
     <use style="fill:#d65f5f;stroke:#d65f5f;" x="357.711178" xlink:href="#m6b2e0cdb12" y="55.266865"/>
     <use style="fill:#d65f5f;stroke:#d65f5f;" x="364.485545" xlink:href="#m6b2e0cdb12" y="54.900161"/>
     <use style="fill:#d65f5f;stroke:#d65f5f;" x="365.367502" xlink:href="#m6b2e0cdb12" y="54.811521"/>
     <use style="fill:#d65f5f;stroke:#d65f5f;" x="372.125753" xlink:href="#m6b2e0cdb12" y="54.457368"/>
     <use style="fill:#d65f5f;stroke:#d65f5f;" x="381.372122" xlink:href="#m6b2e0cdb12" y="53.866781"/>
     <use style="fill:#d65f5f;stroke:#d65f5f;" x="382.726001" xlink:href="#m6b2e0cdb12" y="53.717728"/>
     <use style="fill:#d65f5f;stroke:#d65f5f;" x="386.267294" xlink:href="#m6b2e0cdb12" y="53.440189"/>
     <use style="fill:#d65f5f;stroke:#d65f5f;" x="389.361517" xlink:href="#m6b2e0cdb12" y="53.1202"/>
     <use style="fill:#d65f5f;stroke:#d65f5f;" x="392.888672" xlink:href="#m6b2e0cdb12" y="52.675603"/>
     <use style="fill:#d65f5f;stroke:#d65f5f;" x="396.290047" xlink:href="#m6b2e0cdb12" y="52.085308"/>
     <use style="fill:#d65f5f;stroke:#d65f5f;" x="399.585926" xlink:href="#m6b2e0cdb12" y="51.115957"/>
     <use style="fill:#d65f5f;stroke:#d65f5f;" x="402.599529" xlink:href="#m6b2e0cdb12" y="49.251131"/>
     <use style="fill:#d65f5f;stroke:#d65f5f;" x="404.025628" xlink:href="#m6b2e0cdb12" y="45.586087"/>
    </g>
   </g>
   <g id="line2d_20">
    <path clip-path="url(#p8b8ec28a8c)" d="M 401.245538 49.731466 
L 396.019329 51.834295 
L 388.205979 53.075787 
L 380.676982 53.768186 
L 373.435879 54.264345 
L 366.423975 54.671916 
L 359.429015 55.042001 
L 358.523212 55.129827 
L 351.698876 55.44708 
L 339.091396 56.026894 
L 337.739026 56.135863 
L 330.594023 56.467032 
L 324.320628 56.782456 
L 317.140913 57.153489 
L 310.197575 57.505376 
L 303.308779 57.892935 
L 294.617552 58.388359 
L 285.972628 58.912932 
L 277.263788 59.45504 
L 268.634719 60.053446 
L 252.004388 61.309053 
L 234.454596 62.878352 
L 217.010813 64.723848 
L 199.756023 66.964397 
L 181.670961 243.663015 
L 162.805079 260.243798 
L 144.190106 271.771303 
L 126.386151 280.858323 
L 122.087449 282.908137 
L 112.870379 287.434142 
L 103.690331 291.707691 
L 95.405965 295.707825 
L 86.53843 300.447551 
L 78.145243 306.065166 
L 70.178971 314.308902 
L 63.58273 328.058219 
" style="fill:none;stroke:#d65f5f;stroke-dasharray:5.55,2.4;stroke-dashoffset:0;stroke-width:1.5;"/>
    <defs>
     <path d="M 0 3 
C 0.795609 3 1.55874 2.683901 2.12132 2.12132 
C 2.683901 1.55874 3 0.795609 3 0 
C 3 -0.795609 2.683901 -1.55874 2.12132 -2.12132 
C 1.55874 -2.683901 0.795609 -3 0 -3 
C -0.795609 -3 -1.55874 -2.683901 -2.12132 -2.12132 
C -2.683901 -1.55874 -3 -0.795609 -3 0 
C -3 0.795609 -2.683901 1.55874 -2.12132 2.12132 
C -1.55874 2.683901 -0.795609 3 0 3 
z
" id="m471414410d" style="stroke:#d65f5f;"/>
    </defs>
    <g clip-path="url(#p8b8ec28a8c)">
     <use style="fill-opacity:0;stroke:#d65f5f;" x="401.245538" xlink:href="#m471414410d" y="49.731466"/>
     <use style="fill-opacity:0;stroke:#d65f5f;" x="396.019329" xlink:href="#m471414410d" y="51.834295"/>
     <use style="fill-opacity:0;stroke:#d65f5f;" x="388.205979" xlink:href="#m471414410d" y="53.075787"/>
     <use style="fill-opacity:0;stroke:#d65f5f;" x="380.676982" xlink:href="#m471414410d" y="53.768186"/>
     <use style="fill-opacity:0;stroke:#d65f5f;" x="373.435879" xlink:href="#m471414410d" y="54.264345"/>
     <use style="fill-opacity:0;stroke:#d65f5f;" x="366.423975" xlink:href="#m471414410d" y="54.671916"/>
     <use style="fill-opacity:0;stroke:#d65f5f;" x="359.429015" xlink:href="#m471414410d" y="55.042001"/>
     <use style="fill-opacity:0;stroke:#d65f5f;" x="358.523212" xlink:href="#m471414410d" y="55.129827"/>
     <use style="fill-opacity:0;stroke:#d65f5f;" x="351.698876" xlink:href="#m471414410d" y="55.44708"/>
     <use style="fill-opacity:0;stroke:#d65f5f;" x="339.091396" xlink:href="#m471414410d" y="56.026894"/>
     <use style="fill-opacity:0;stroke:#d65f5f;" x="337.739026" xlink:href="#m471414410d" y="56.135863"/>
     <use style="fill-opacity:0;stroke:#d65f5f;" x="330.594023" xlink:href="#m471414410d" y="56.467032"/>
     <use style="fill-opacity:0;stroke:#d65f5f;" x="324.320628" xlink:href="#m471414410d" y="56.782456"/>
     <use style="fill-opacity:0;stroke:#d65f5f;" x="317.140913" xlink:href="#m471414410d" y="57.153489"/>
     <use style="fill-opacity:0;stroke:#d65f5f;" x="310.197575" xlink:href="#m471414410d" y="57.505376"/>
     <use style="fill-opacity:0;stroke:#d65f5f;" x="303.308779" xlink:href="#m471414410d" y="57.892935"/>
     <use style="fill-opacity:0;stroke:#d65f5f;" x="294.617552" xlink:href="#m471414410d" y="58.388359"/>
     <use style="fill-opacity:0;stroke:#d65f5f;" x="285.972628" xlink:href="#m471414410d" y="58.912932"/>
     <use style="fill-opacity:0;stroke:#d65f5f;" x="277.263788" xlink:href="#m471414410d" y="59.45504"/>
     <use style="fill-opacity:0;stroke:#d65f5f;" x="268.634719" xlink:href="#m471414410d" y="60.053446"/>
     <use style="fill-opacity:0;stroke:#d65f5f;" x="252.004388" xlink:href="#m471414410d" y="61.309053"/>
     <use style="fill-opacity:0;stroke:#d65f5f;" x="234.454596" xlink:href="#m471414410d" y="62.878352"/>
     <use style="fill-opacity:0;stroke:#d65f5f;" x="217.010813" xlink:href="#m471414410d" y="64.723848"/>
     <use style="fill-opacity:0;stroke:#d65f5f;" x="199.756023" xlink:href="#m471414410d" y="66.964397"/>
     <use style="fill-opacity:0;stroke:#d65f5f;" x="181.670961" xlink:href="#m471414410d" y="243.663015"/>
     <use style="fill-opacity:0;stroke:#d65f5f;" x="162.805079" xlink:href="#m471414410d" y="260.243798"/>
     <use style="fill-opacity:0;stroke:#d65f5f;" x="144.190106" xlink:href="#m471414410d" y="271.771303"/>
     <use style="fill-opacity:0;stroke:#d65f5f;" x="126.386151" xlink:href="#m471414410d" y="280.858323"/>
     <use style="fill-opacity:0;stroke:#d65f5f;" x="122.087449" xlink:href="#m471414410d" y="282.908137"/>
     <use style="fill-opacity:0;stroke:#d65f5f;" x="112.870379" xlink:href="#m471414410d" y="287.434142"/>
     <use style="fill-opacity:0;stroke:#d65f5f;" x="103.690331" xlink:href="#m471414410d" y="291.707691"/>
     <use style="fill-opacity:0;stroke:#d65f5f;" x="95.405965" xlink:href="#m471414410d" y="295.707825"/>
     <use style="fill-opacity:0;stroke:#d65f5f;" x="86.53843" xlink:href="#m471414410d" y="300.447551"/>
     <use style="fill-opacity:0;stroke:#d65f5f;" x="78.145243" xlink:href="#m471414410d" y="306.065166"/>
     <use style="fill-opacity:0;stroke:#d65f5f;" x="70.178971" xlink:href="#m471414410d" y="314.308902"/>
     <use style="fill-opacity:0;stroke:#d65f5f;" x="63.58273" xlink:href="#m471414410d" y="328.058219"/>
    </g>
   </g>
   <g id="patch_3">
    <path d="M 60 375.5 
L 60 12.298139 
" style="fill:none;stroke:#000000;stroke-linecap:square;stroke-linejoin:miter;stroke-width:0.8;"/>
   </g>
   <g id="patch_4">
    <path d="M 421.2 375.5 
L 421.2 12.298139 
" style="fill:none;stroke:#000000;stroke-linecap:square;stroke-linejoin:miter;stroke-width:0.8;"/>
   </g>
   <g id="patch_5">
    <path d="M 60 375.5 
L 421.2 375.5 
" style="fill:none;stroke:#000000;stroke-linecap:square;stroke-linejoin:miter;stroke-width:0.8;"/>
   </g>
   <g id="patch_6">
    <path d="M 60 12.298139 
L 421.2 12.298139 
" style="fill:none;stroke:#000000;stroke-linecap:square;stroke-linejoin:miter;stroke-width:0.8;"/>
   </g>
   <g id="legend_1">
    <g id="line2d_21">
     <path d="M 294.75 309.596094 
L 324.75 309.596094 
" style="fill:none;stroke:#4878cf;stroke-linecap:square;stroke-width:1.5;"/>
    </g>
    <g id="line2d_22">
     <g>
      <use style="fill:#4878cf;stroke:#4878cf;" x="309.75" xlink:href="#m3cd85cc5d9" y="309.596094"/>
     </g>
    </g>
    <g id="text_17">
     <!-- pristine -->
     <g transform="translate(336.75 314.846094)scale(0.15 -0.15)">
      <defs>
       <path d="M 18.109375 8.203125 
L 18.109375 -20.796875 
L 9.078125 -20.796875 
L 9.078125 54.6875 
L 18.109375 54.6875 
L 18.109375 46.390625 
Q 20.953125 51.265625 25.265625 53.625 
Q 29.59375 56 35.59375 56 
Q 45.5625 56 51.78125 48.09375 
Q 58.015625 40.1875 58.015625 27.296875 
Q 58.015625 14.40625 51.78125 6.484375 
Q 45.5625 -1.421875 35.59375 -1.421875 
Q 29.59375 -1.421875 25.265625 0.953125 
Q 20.953125 3.328125 18.109375 8.203125 
z
M 48.6875 27.296875 
Q 48.6875 37.203125 44.609375 42.84375 
Q 40.53125 48.484375 33.40625 48.484375 
Q 26.265625 48.484375 22.1875 42.84375 
Q 18.109375 37.203125 18.109375 27.296875 
Q 18.109375 17.390625 22.1875 11.75 
Q 26.265625 6.109375 33.40625 6.109375 
Q 40.53125 6.109375 44.609375 11.75 
Q 48.6875 17.390625 48.6875 27.296875 
z
" id="DejaVuSans-112"/>
       <path d="M 18.3125 70.21875 
L 18.3125 54.6875 
L 36.8125 54.6875 
L 36.8125 47.703125 
L 18.3125 47.703125 
L 18.3125 18.015625 
Q 18.3125 11.328125 20.140625 9.421875 
Q 21.96875 7.515625 27.59375 7.515625 
L 36.8125 7.515625 
L 36.8125 0 
L 27.59375 0 
Q 17.1875 0 13.234375 3.875 
Q 9.28125 7.765625 9.28125 18.015625 
L 9.28125 47.703125 
L 2.6875 47.703125 
L 2.6875 54.6875 
L 9.28125 54.6875 
L 9.28125 70.21875 
z
" id="DejaVuSans-116"/>
      </defs>
      <use xlink:href="#DejaVuSans-112"/>
      <use x="63.476562" xlink:href="#DejaVuSans-114"/>
      <use x="104.589844" xlink:href="#DejaVuSans-105"/>
      <use x="132.373047" xlink:href="#DejaVuSans-115"/>
      <use x="184.472656" xlink:href="#DejaVuSans-116"/>
      <use x="223.681641" xlink:href="#DejaVuSans-105"/>
      <use x="251.464844" xlink:href="#DejaVuSans-110"/>
      <use x="314.84375" xlink:href="#DejaVuSans-101"/>
     </g>
    </g>
    <g id="line2d_23">
     <path d="M 294.75 331.613281 
L 324.75 331.613281 
" style="fill:none;stroke:#6acc65;stroke-linecap:square;stroke-width:1.5;"/>
    </g>
    <g id="line2d_24">
     <g>
      <use style="fill:#6acc65;stroke:#6acc65;" x="309.75" xlink:href="#m2b3dcdfb7c" y="331.613281"/>
     </g>
    </g>
    <g id="text_18">
     <!-- after D4 -->
     <g transform="translate(336.75 336.863281)scale(0.15 -0.15)">
      <defs>
       <path d="M 37.109375 75.984375 
L 37.109375 68.5 
L 28.515625 68.5 
Q 23.6875 68.5 21.796875 66.546875 
Q 19.921875 64.59375 19.921875 59.515625 
L 19.921875 54.6875 
L 34.71875 54.6875 
L 34.71875 47.703125 
L 19.921875 47.703125 
L 19.921875 0 
L 10.890625 0 
L 10.890625 47.703125 
L 2.296875 47.703125 
L 2.296875 54.6875 
L 10.890625 54.6875 
L 10.890625 58.5 
Q 10.890625 67.625 15.140625 71.796875 
Q 19.390625 75.984375 28.609375 75.984375 
z
" id="DejaVuSans-102"/>
       <path d="M 19.671875 64.796875 
L 19.671875 8.109375 
L 31.59375 8.109375 
Q 46.6875 8.109375 53.6875 14.9375 
Q 60.6875 21.78125 60.6875 36.53125 
Q 60.6875 51.171875 53.6875 57.984375 
Q 46.6875 64.796875 31.59375 64.796875 
z
M 9.8125 72.90625 
L 30.078125 72.90625 
Q 51.265625 72.90625 61.171875 64.09375 
Q 71.09375 55.28125 71.09375 36.53125 
Q 71.09375 17.671875 61.125 8.828125 
Q 51.171875 0 30.078125 0 
L 9.8125 0 
z
" id="DejaVuSans-68"/>
      </defs>
      <use xlink:href="#DejaVuSans-97"/>
      <use x="61.279297" xlink:href="#DejaVuSans-102"/>
      <use x="94.734375" xlink:href="#DejaVuSans-116"/>
      <use x="133.943359" xlink:href="#DejaVuSans-101"/>
      <use x="195.466797" xlink:href="#DejaVuSans-114"/>
      <use x="236.580078" xlink:href="#DejaVuSans-32"/>
      <use x="268.367188" xlink:href="#DejaVuSans-68"/>
      <use x="345.369141" xlink:href="#DejaVuSans-52"/>
     </g>
    </g>
    <g id="line2d_25">
     <path d="M 294.75 353.630469 
L 324.75 353.630469 
" style="fill:none;stroke:#d65f5f;stroke-linecap:square;stroke-width:1.5;"/>
    </g>
    <g id="line2d_26">
     <g>
      <use style="fill:#d65f5f;stroke:#d65f5f;" x="309.75" xlink:href="#m6b2e0cdb12" y="353.630469"/>
     </g>
    </g>
    <g id="text_19">
     <!-- after H$_2$O -->
     <g transform="translate(336.75 358.880469)scale(0.15 -0.15)">
      <defs>
       <path d="M 9.8125 72.90625 
L 19.671875 72.90625 
L 19.671875 43.015625 
L 55.515625 43.015625 
L 55.515625 72.90625 
L 65.375 72.90625 
L 65.375 0 
L 55.515625 0 
L 55.515625 34.71875 
L 19.671875 34.71875 
L 19.671875 0 
L 9.8125 0 
z
" id="DejaVuSans-72"/>
       <path d="M 39.40625 66.21875 
Q 28.65625 66.21875 22.328125 58.203125 
Q 16.015625 50.203125 16.015625 36.375 
Q 16.015625 22.609375 22.328125 14.59375 
Q 28.65625 6.59375 39.40625 6.59375 
Q 50.140625 6.59375 56.421875 14.59375 
Q 62.703125 22.609375 62.703125 36.375 
Q 62.703125 50.203125 56.421875 58.203125 
Q 50.140625 66.21875 39.40625 66.21875 
z
M 39.40625 74.21875 
Q 54.734375 74.21875 63.90625 63.9375 
Q 73.09375 53.65625 73.09375 36.375 
Q 73.09375 19.140625 63.90625 8.859375 
Q 54.734375 -1.421875 39.40625 -1.421875 
Q 24.03125 -1.421875 14.8125 8.828125 
Q 5.609375 19.09375 5.609375 36.375 
Q 5.609375 53.65625 14.8125 63.9375 
Q 24.03125 74.21875 39.40625 74.21875 
z
" id="DejaVuSans-79"/>
      </defs>
      <use transform="translate(0 0.015625)" xlink:href="#DejaVuSans-97"/>
      <use transform="translate(61.279297 0.015625)" xlink:href="#DejaVuSans-102"/>
      <use transform="translate(96.484375 0.015625)" xlink:href="#DejaVuSans-116"/>
      <use transform="translate(135.693359 0.015625)" xlink:href="#DejaVuSans-101"/>
      <use transform="translate(197.216797 0.015625)" xlink:href="#DejaVuSans-114"/>
      <use transform="translate(238.330078 0.015625)" xlink:href="#DejaVuSans-32"/>
      <use transform="translate(270.117188 0.015625)" xlink:href="#DejaVuSans-72"/>
      <use transform="translate(346.269531 -16.390625)scale(0.7)" xlink:href="#DejaVuSans-50"/>
      <use transform="translate(393.540039 0.015625)" xlink:href="#DejaVuSans-79"/>
     </g>
    </g>
   </g>
  </g>
 </g>
 <defs>
  <clipPath id="p8b8ec28a8c">
   <rect height="363.201861" width="361.2" x="60" y="12.298139"/>
  </clipPath>
 </defs>
</svg>
